<?xml version="1.0" encoding="UTF-8"?>
<!--Generator: Apple Native CoreSVG 123-->
<!DOCTYPE svg
PUBLIC "-//W3C//DTD SVG 1.1//EN"
       "http://www.w3.org/Graphics/SVG/1.1/DTD/svg11.dtd">
<svg version="1.1" xmlns="http://www.w3.org/2000/svg" xmlns:xlink="http://www.w3.org/1999/xlink" width="3300" height="2200">
 <!--glyph: "uni100177.medium", point size: 100.000000, font version: "Version 15.0d7e11", template writer version: "5"-->
 <g id="Notes">
  <rect height="2200" id="artboard" style="fill:white;opacity:1" width="3300" x="0" y="0"/>
  <line id="" style="fill:none;stroke:black;opacity:1;stroke-width:0.5;" x1="263" x2="3036" y1="292" y2="292"/>
  <text style="stroke:none;fill:black;font-family:-apple-system,&quot;SF Pro Display&quot;,&quot;SF Pro Text&quot;,Helvetica,sans-serif;font-weight:bold;" transform="matrix(1 0 0 1 263 322)">Weight/Scale Variations</text>
  <text style="stroke:none;fill:black;font-family:-apple-system,&quot;SF Pro Display&quot;,&quot;SF Pro Text&quot;,Helvetica,sans-serif;text-anchor:middle;" transform="matrix(1 0 0 1 559.711 322)">Ultralight</text>
  <text style="stroke:none;fill:black;font-family:-apple-system,&quot;SF Pro Display&quot;,&quot;SF Pro Text&quot;,Helvetica,sans-serif;text-anchor:middle;" transform="matrix(1 0 0 1 856.422 322)">Thin</text>
  <text style="stroke:none;fill:black;font-family:-apple-system,&quot;SF Pro Display&quot;,&quot;SF Pro Text&quot;,Helvetica,sans-serif;text-anchor:middle;" transform="matrix(1 0 0 1 1153.13 322)">Light</text>
  <text style="stroke:none;fill:black;font-family:-apple-system,&quot;SF Pro Display&quot;,&quot;SF Pro Text&quot;,Helvetica,sans-serif;text-anchor:middle;" transform="matrix(1 0 0 1 1449.84 322)">Regular</text>
  <text style="stroke:none;fill:black;font-family:-apple-system,&quot;SF Pro Display&quot;,&quot;SF Pro Text&quot;,Helvetica,sans-serif;text-anchor:middle;" transform="matrix(1 0 0 1 1746.56 322)">Medium</text>
  <text style="stroke:none;fill:black;font-family:-apple-system,&quot;SF Pro Display&quot;,&quot;SF Pro Text&quot;,Helvetica,sans-serif;text-anchor:middle;" transform="matrix(1 0 0 1 2043.27 322)">Semibold</text>
  <text style="stroke:none;fill:black;font-family:-apple-system,&quot;SF Pro Display&quot;,&quot;SF Pro Text&quot;,Helvetica,sans-serif;text-anchor:middle;" transform="matrix(1 0 0 1 2339.98 322)">Bold</text>
  <text style="stroke:none;fill:black;font-family:-apple-system,&quot;SF Pro Display&quot;,&quot;SF Pro Text&quot;,Helvetica,sans-serif;text-anchor:middle;" transform="matrix(1 0 0 1 2636.69 322)">Heavy</text>
  <text style="stroke:none;fill:black;font-family:-apple-system,&quot;SF Pro Display&quot;,&quot;SF Pro Text&quot;,Helvetica,sans-serif;text-anchor:middle;" transform="matrix(1 0 0 1 2933.4 322)">Black</text>
  <line id="" style="fill:none;stroke:black;opacity:1;stroke-width:0.5;" x1="263" x2="3036" y1="1903" y2="1903"/>
  <g id="" transform="matrix(1 0 0 1 263 1933)">
   <path d="M 9.24805 0.830078 C 13.5547 0.830078 17.1387 -2.74414 17.1387 -7.05078 C 17.1387 -11.3574 13.5449 -14.9316 9.23828 -14.9316 C 4.94141 -14.9316 1.36719 -11.3574 1.36719 -7.05078 C 1.36719 -2.74414 4.95117 0.830078 9.24805 0.830078 Z M 9.24805 -0.654297 C 5.70312 -0.654297 2.87109 -3.49609 2.87109 -7.05078 C 2.87109 -10.6055 5.69336 -13.4473 9.23828 -13.4473 C 12.793 -13.4473 15.6348 -10.6055 15.6445 -7.05078 C 15.6543 -3.49609 12.8027 -0.654297 9.24805 -0.654297 Z M 9.22852 -3.42773 C 9.69727 -3.42773 9.9707 -3.74023 9.9707 -4.25781 L 9.9707 -6.31836 L 12.1973 -6.31836 C 12.6953 -6.31836 13.0371 -6.57227 13.0371 -7.04102 C 13.0371 -7.51953 12.7148 -7.7832 12.1973 -7.7832 L 9.9707 -7.7832 L 9.9707 -10.0098 C 9.9707 -10.5273 9.69727 -10.8496 9.22852 -10.8496 C 8.75977 -10.8496 8.50586 -10.5078 8.50586 -10.0098 L 8.50586 -7.7832 L 6.29883 -7.7832 C 5.78125 -7.7832 5.44922 -7.51953 5.44922 -7.04102 C 5.44922 -6.57227 5.80078 -6.31836 6.29883 -6.31836 L 8.50586 -6.31836 L 8.50586 -4.25781 C 8.50586 -3.75977 8.75977 -3.42773 9.22852 -3.42773 Z"/>
  </g>
  <g id="" transform="matrix(1 0 0 1 281.506 1933)">
   <path d="M 11.709 2.91016 C 17.1582 2.91016 21.6699 -1.60156 21.6699 -7.05078 C 21.6699 -12.4902 17.1484 -17.0117 11.6992 -17.0117 C 6.25977 -17.0117 1.74805 -12.4902 1.74805 -7.05078 C 1.74805 -1.60156 6.26953 2.91016 11.709 2.91016 Z M 11.709 1.25 C 7.09961 1.25 3.41797 -2.44141 3.41797 -7.05078 C 3.41797 -11.6504 7.08984 -15.3516 11.6992 -15.3516 C 16.3086 -15.3516 20 -11.6504 20.0098 -7.05078 C 20.0195 -2.44141 16.3184 1.25 11.709 1.25 Z M 11.6895 -2.41211 C 12.207 -2.41211 12.5195 -2.77344 12.5195 -3.33984 L 12.5195 -6.23047 L 15.5762 -6.23047 C 16.123 -6.23047 16.5039 -6.51367 16.5039 -7.03125 C 16.5039 -7.55859 16.1426 -7.86133 15.5762 -7.86133 L 12.5195 -7.86133 L 12.5195 -10.9277 C 12.5195 -11.5039 12.207 -11.8555 11.6895 -11.8555 C 11.1719 -11.8555 10.8789 -11.4844 10.8789 -10.9277 L 10.8789 -7.86133 L 7.83203 -7.86133 C 7.26562 -7.86133 6.89453 -7.55859 6.89453 -7.03125 C 6.89453 -6.51367 7.28516 -6.23047 7.83203 -6.23047 L 10.8789 -6.23047 L 10.8789 -3.33984 C 10.8789 -2.79297 11.1719 -2.41211 11.6895 -2.41211 Z"/>
  </g>
  <g id="" transform="matrix(1 0 0 1 304.924 1933)">
   <path d="M 14.9707 5.67383 C 21.9336 5.67383 27.6953 -0.078125 27.6953 -7.04102 C 27.6953 -14.0039 21.9238 -19.7559 14.9609 -19.7559 C 8.00781 -19.7559 2.25586 -14.0039 2.25586 -7.04102 C 2.25586 -0.078125 8.01758 5.67383 14.9707 5.67383 Z M 14.9707 3.85742 C 8.93555 3.85742 4.08203 -1.00586 4.08203 -7.04102 C 4.08203 -13.0762 8.92578 -17.9395 14.9609 -17.9395 C 21.0059 -17.9395 25.8594 -13.0762 25.8691 -7.04102 C 25.8789 -1.00586 21.0156 3.85742 14.9707 3.85742 Z M 14.9512 -1.06445 C 15.5176 -1.06445 15.8691 -1.45508 15.8691 -2.06055 L 15.8691 -6.13281 L 20.1074 -6.13281 C 20.6934 -6.13281 21.1133 -6.46484 21.1133 -7.02148 C 21.1133 -7.59766 20.7227 -7.93945 20.1074 -7.93945 L 15.8691 -7.93945 L 15.8691 -12.1875 C 15.8691 -12.8027 15.5176 -13.1934 14.9512 -13.1934 C 14.3848 -13.1934 14.0625 -12.7832 14.0625 -12.1875 L 14.0625 -7.93945 L 9.83398 -7.93945 C 9.21875 -7.93945 8.80859 -7.59766 8.80859 -7.02148 C 8.80859 -6.46484 9.23828 -6.13281 9.83398 -6.13281 L 14.0625 -6.13281 L 14.0625 -2.06055 C 14.0625 -1.47461 14.3848 -1.06445 14.9512 -1.06445 Z"/>
  </g>
  <text style="stroke:none;fill:black;font-family:-apple-system,&quot;SF Pro Display&quot;,&quot;SF Pro Text&quot;,Helvetica,sans-serif;font-weight:bold;" transform="matrix(1 0 0 1 263 1953)">Design Variations</text>
  <text style="stroke:none;fill:black;font-family:-apple-system,&quot;SF Pro Display&quot;,&quot;SF Pro Text&quot;,Helvetica,sans-serif;" transform="matrix(1 0 0 1 263 1971)">Symbols are supported in up to nine weights and three scales.</text>
  <text style="stroke:none;fill:black;font-family:-apple-system,&quot;SF Pro Display&quot;,&quot;SF Pro Text&quot;,Helvetica,sans-serif;" transform="matrix(1 0 0 1 263 1989)">For optimal layout with text and other symbols, vertically align</text>
  <text style="stroke:none;fill:black;font-family:-apple-system,&quot;SF Pro Display&quot;,&quot;SF Pro Text&quot;,Helvetica,sans-serif;" transform="matrix(1 0 0 1 263 2007)">symbols with the adjacent text.</text>
  <rect height="14" id="" style="fill:#00AEEF;stroke:none;opacity:0.4;" width="3" x="776" y="1919"/>
  <g id="" transform="matrix(1 0 0 1 779 1933)">
   <path d="M 10.5273 0 L 12.373 0 L 7.17773 -14.0918 L 5.43945 -14.0918 L 0.244141 0 L 2.08984 0 L 3.50586 -4.0332 L 9.11133 -4.0332 Z M 6.2793 -11.9531 L 6.33789 -11.9531 L 8.59375 -5.52734 L 4.02344 -5.52734 Z"/>
  </g>
  <rect height="14" id="" style="fill:#00AEEF;stroke:none;opacity:0.4;" width="3" x="791.617" y="1919"/>
  <text style="stroke:none;fill:black;font-family:-apple-system,&quot;SF Pro Display&quot;,&quot;SF Pro Text&quot;,Helvetica,sans-serif;font-weight:bold;" transform="matrix(1 0 0 1 776 1953)">Margins</text>
  <text style="stroke:none;fill:black;font-family:-apple-system,&quot;SF Pro Display&quot;,&quot;SF Pro Text&quot;,Helvetica,sans-serif;" transform="matrix(1 0 0 1 776 1971)">Leading and trailing margins on the left and right side of each symbol</text>
  <text style="stroke:none;fill:black;font-family:-apple-system,&quot;SF Pro Display&quot;,&quot;SF Pro Text&quot;,Helvetica,sans-serif;" transform="matrix(1 0 0 1 776 1989)">can be adjusted by modifying the width of the blue rectangles.</text>
  <text style="stroke:none;fill:black;font-family:-apple-system,&quot;SF Pro Display&quot;,&quot;SF Pro Text&quot;,Helvetica,sans-serif;" transform="matrix(1 0 0 1 776 2007)">Modifications are automatically applied proportionally to all</text>
  <text style="stroke:none;fill:black;font-family:-apple-system,&quot;SF Pro Display&quot;,&quot;SF Pro Text&quot;,Helvetica,sans-serif;" transform="matrix(1 0 0 1 776 2025)">scales and weights.</text>
  <g id="" transform="matrix(1 0 0 1 1289 1933)">
   <path d="M 2.83203 3.11523 L 4.375 4.6582 C 5.22461 5.48828 6.19141 5.41992 7.06055 4.46289 L 17.2754 -6.66016 C 17.7051 -6.36719 18.0957 -6.37695 18.5645 -6.47461 L 19.6094 -6.68945 L 20.3027 -5.99609 L 20.2539 -5.47852 C 20.1855 -4.95117 20.3516 -4.53125 20.8496 -4.0332 L 21.6602 -3.22266 C 22.168 -2.71484 22.8223 -2.68555 23.3008 -3.16406 L 26.5527 -6.41602 C 27.0312 -6.89453 27.0117 -7.54883 26.5039 -8.05664 L 25.6836 -8.87695 C 25.1855 -9.375 24.7754 -9.55078 24.2383 -9.47266 L 23.7109 -9.41406 L 23.0566 -10.0781 L 23.3398 -11.2207 C 23.4863 -11.7871 23.3398 -12.2559 22.7148 -12.8613 L 20.3027 -15.2539 C 16.7578 -18.7793 12.2266 -18.6719 9.11133 -15.5371 C 8.69141 -15.1074 8.64258 -14.5215 8.91602 -14.0918 C 9.15039 -13.7207 9.62891 -13.4961 10.2734 -13.6621 C 11.7871 -14.043 13.3008 -13.9258 14.7852 -12.9199 L 14.1602 -11.3379 C 13.9258 -10.752 13.9453 -10.2734 14.1797 -9.83398 L 3.01758 0.439453 C 2.08008 1.30859 1.97266 2.25586 2.83203 3.11523 Z M 10.6738 -15.1465 C 13.3398 -17.1387 16.6504 -16.8262 19.0527 -14.4141 L 21.6797 -11.8066 C 21.9141 -11.5723 21.9434 -11.3867 21.8848 -11.0938 L 21.5039 -9.53125 L 23.0762 -7.95898 L 24.043 -8.04688 C 24.3262 -8.07617 24.4141 -8.05664 24.6387 -7.83203 L 25.2637 -7.20703 L 22.5098 -4.46289 L 21.8848 -5.07812 C 21.6602 -5.30273 21.6406 -5.40039 21.6699 -5.68359 L 21.7578 -6.64062 L 20.1953 -8.20312 L 18.5742 -7.89062 C 18.291 -7.83203 18.1445 -7.83203 17.9102 -8.07617 L 15.7324 -10.2539 C 15.5078 -10.4883 15.4785 -10.625 15.6055 -10.9473 L 16.5527 -13.2227 C 14.9512 -14.7559 12.8418 -15.6055 10.8008 -14.9512 C 10.7129 -14.9219 10.6445 -14.9414 10.6152 -14.9805 C 10.5859 -15.0293 10.5859 -15.0781 10.6738 -15.1465 Z M 4.10156 2.41211 C 3.61328 1.91406 3.78906 1.61133 4.12109 1.30859 L 15.0781 -8.80859 L 16.3086 -7.57812 L 6.15234 3.34961 C 5.84961 3.68164 5.46875 3.7793 5.06836 3.37891 Z"/>
  </g>
  <text style="stroke:none;fill:black;font-family:-apple-system,&quot;SF Pro Display&quot;,&quot;SF Pro Text&quot;,Helvetica,sans-serif;font-weight:bold;" transform="matrix(1 0 0 1 1289 1953)">Exporting</text>
  <text style="stroke:none;fill:black;font-family:-apple-system,&quot;SF Pro Display&quot;,&quot;SF Pro Text&quot;,Helvetica,sans-serif;" transform="matrix(1 0 0 1 1289 1971)">Symbols should be outlined when exporting to ensure the</text>
  <text style="stroke:none;fill:black;font-family:-apple-system,&quot;SF Pro Display&quot;,&quot;SF Pro Text&quot;,Helvetica,sans-serif;" transform="matrix(1 0 0 1 1289 1989)">design is preserved when submitting to Xcode.</text>
  <text id="template-version" style="stroke:none;fill:black;font-family:-apple-system,&quot;SF Pro Display&quot;,&quot;SF Pro Text&quot;,Helvetica,sans-serif;text-anchor:end;" transform="matrix(1 0 0 1 3036 1933)">Template v.1.0</text>
  <text style="stroke:none;fill:black;font-family:-apple-system,&quot;SF Pro Display&quot;,&quot;SF Pro Text&quot;,Helvetica,sans-serif;text-anchor:end;" transform="matrix(1 0 0 1 3036 1951)">Generated from at</text>
  <text style="stroke:none;fill:black;font-family:-apple-system,&quot;SF Pro Display&quot;,&quot;SF Pro Text&quot;,Helvetica,sans-serif;text-anchor:end;" transform="matrix(1 0 0 1 3036 1969)">Typeset at 100 points</text>
  <text style="stroke:none;fill:black;font-family:-apple-system,&quot;SF Pro Display&quot;,&quot;SF Pro Text&quot;,Helvetica,sans-serif;" transform="matrix(1 0 0 1 263 726)">Small</text>
  <text style="stroke:none;fill:black;font-family:-apple-system,&quot;SF Pro Display&quot;,&quot;SF Pro Text&quot;,Helvetica,sans-serif;" transform="matrix(1 0 0 1 263 1156)">Medium</text>
  <text style="stroke:none;fill:black;font-family:-apple-system,&quot;SF Pro Display&quot;,&quot;SF Pro Text&quot;,Helvetica,sans-serif;" transform="matrix(1 0 0 1 263 1586)">Large</text>
 </g>
 <g id="Guides">
  <g id="H-reference" style="fill:#27AAE1;stroke:none;" transform="matrix(1 0 0 1 339 696)">
   <path d="M 54.9316 0 L 57.666 0 L 30.5664 -70.459 L 28.0762 -70.459 L 0.976562 0 L 3.66211 0 L 12.9395 -24.4629 L 45.7031 -24.4629 Z M 29.1992 -67.0898 L 29.4434 -67.0898 L 44.8242 -26.709 L 13.8184 -26.709 Z"/>
  </g>
  <line id="Baseline-S" style="fill:none;stroke:#27AAE1;opacity:1;stroke-width:0.577;" x1="263" x2="3036" y1="696" y2="696"/>
  <line id="Capline-S" style="fill:none;stroke:#27AAE1;opacity:1;stroke-width:0.577;" x1="263" x2="3036" y1="625.541" y2="625.541"/>
  <g id="H-reference" style="fill:#27AAE1;stroke:none;" transform="matrix(1 0 0 1 339 1126)">
   <path d="M 54.9316 0 L 57.666 0 L 30.5664 -70.459 L 28.0762 -70.459 L 0.976562 0 L 3.66211 0 L 12.9395 -24.4629 L 45.7031 -24.4629 Z M 29.1992 -67.0898 L 29.4434 -67.0898 L 44.8242 -26.709 L 13.8184 -26.709 Z"/>
  </g>
  <line id="Baseline-M" style="fill:none;stroke:#27AAE1;opacity:1;stroke-width:0.577;" x1="263" x2="3036" y1="1126" y2="1126"/>
  <line id="Capline-M" style="fill:none;stroke:#27AAE1;opacity:1;stroke-width:0.577;" x1="263" x2="3036" y1="1055.54" y2="1055.54"/>
  <g id="H-reference" style="fill:#27AAE1;stroke:none;" transform="matrix(1 0 0 1 339 1556)">
   <path d="M 54.9316 0 L 57.666 0 L 30.5664 -70.459 L 28.0762 -70.459 L 0.976562 0 L 3.66211 0 L 12.9395 -24.4629 L 45.7031 -24.4629 Z M 29.1992 -67.0898 L 29.4434 -67.0898 L 44.8242 -26.709 L 13.8184 -26.709 Z"/>
  </g>
  <line id="Baseline-L" style="fill:none;stroke:#27AAE1;opacity:1;stroke-width:0.577;" x1="263" x2="3036" y1="1556" y2="1556"/>
  <line id="Capline-L" style="fill:none;stroke:#27AAE1;opacity:1;stroke-width:0.577;" x1="263" x2="3036" y1="1485.54" y2="1485.54"/>
  <rect height="119.336" id="left-margin" style="fill:#00AEEF;stroke:none;opacity:0.4;" width="8.74023" x="1390.47" y="1030.79"/>
  <rect height="119.336" id="right-margin" style="fill:#00AEEF;stroke:none;opacity:0.4;" width="8.74023" x="1500.48" y="1030.79"/>
 </g>
 <g id="Symbols">
  <g id="Black-L" transform="matrix(1 0 0 1 2855.2 1556)">
   <path d="M 11.2793 -31.3965 C 11.2793 9.57031 39.8438 35.6934 81.4453 35.6934 C 91.5039 35.6934 98.1445 34.8633 102.441 33.252 C 106.299 31.7383 107.91 29.4922 107.91 25.9766 C 107.91 22.0703 105.518 19.3848 100.586 19.3848 C 99.2188 19.3848 97.9492 19.4336 96.5332 19.5801 C 92.5781 20.2637 89.0137 20.8008 83.7891 20.8008 C 49.9023 20.8008 28.0273 0.927734 28.0273 -31.0059 C 28.0273 -62.5977 49.0723 -83.8867 79.9805 -83.8867 C 108.545 -83.8867 128.711 -65.9668 128.711 -36.1816 C 128.711 -22.168 124.316 -12.6953 117.236 -12.6953 C 112.646 -12.6953 110.107 -15.9668 110.107 -21.7285 L 110.107 -54.3945 C 110.107 -60.5957 106.738 -64.0625 100.684 -64.0625 C 94.6777 -64.0625 91.3086 -60.5957 91.3086 -54.3945 L 91.3086 -52.6855 L 89.8438 -52.6855 C 86.6699 -59.9609 79.6875 -64.0625 70.8984 -64.0625 C 55.0781 -64.0625 44.3848 -50.9766 44.3848 -31.2988 C 44.3848 -10.9863 55.5664 2.7832 72.2656 2.7832 C 81.4941 2.7832 87.793 -1.61133 91.0645 -9.66797 L 92.4805 -9.66797 C 94.8242 -1.9043 102.344 2.58789 112.695 2.58789 C 132.812 2.58789 145.117 -13.5742 145.117 -38.3789 C 145.117 -74.5605 118.506 -98.7305 80.0293 -98.7305 C 39.4531 -98.7305 11.2793 -71.5332 11.2793 -31.3965 Z M 77.4902 -13.7695 C 69.9707 -13.7695 65.5762 -20.0684 65.5762 -30.6641 C 65.5762 -41.3086 70.0195 -47.7051 77.4902 -47.7051 C 84.9609 -47.7051 89.6484 -41.2598 89.6484 -30.7129 C 89.6484 -20.166 85.0098 -13.7695 77.4902 -13.7695 Z"/>
  </g>
  <g id="Heavy-L" transform="matrix(1 0 0 1 2558.88 1556)">
   <path d="M 11.2793 -31.6895 C 11.2793 9.27734 39.6973 35.3516 80.5664 35.3516 C 90.7715 35.3516 98.1445 34.375 102.832 32.666 C 106.689 31.25 108.203 29.1016 108.203 25.9277 C 108.203 22.4609 105.957 20.0684 101.709 20.0684 C 100.488 20.0684 99.3164 20.166 97.9004 20.3613 C 93.2129 21.2891 88.8672 21.9238 82.7148 21.9238 C 48.584 21.9238 26.2207 1.5625 26.2207 -31.3477 C 26.2207 -63.623 47.8027 -85.6934 79.3945 -85.6934 C 108.545 -85.6934 129.785 -67.3828 129.785 -36.8164 C 129.785 -21.3867 124.805 -11.084 116.846 -11.084 C 111.523 -11.084 108.545 -14.6973 108.545 -20.9961 L 108.545 -56.1035 C 108.545 -61.4746 105.615 -64.5508 100.342 -64.5508 C 95.1172 -64.5508 92.1387 -61.4746 92.1387 -56.1035 L 92.1387 -52.6855 L 90.918 -52.6855 C 87.7441 -60.2051 80.5176 -64.5508 71.4844 -64.5508 C 55.5664 -64.5508 44.7266 -51.2695 44.7266 -31.543 C 44.7266 -11.2793 55.9082 2.53906 72.6074 2.53906 C 82.0312 2.53906 88.5742 -2.09961 91.9922 -10.498 L 93.2129 -10.498 C 95.3125 -2.34375 102.783 2.44141 113.037 2.44141 C 132.471 2.44141 144.336 -13.8672 144.336 -38.5742 C 144.336 -74.8535 117.676 -98.9746 79.4434 -98.9746 C 39.2578 -98.9746 11.2793 -71.8262 11.2793 -31.6895 Z M 76.9043 -12.1094 C 68.3594 -12.1094 63.1348 -19.2871 63.1348 -31.0547 C 63.1348 -42.8223 68.4082 -50.0977 76.9043 -50.0977 C 85.498 -50.0977 90.8691 -42.8711 90.8691 -31.2012 C 90.8691 -19.3848 85.498 -12.1094 76.9043 -12.1094 Z"/>
  </g>
  <g id="Bold-L" transform="matrix(1 0 0 1 2262.61 1556)">
   <path d="M 11.2793 -32.0312 C 11.2793 8.98438 39.502 34.9121 79.5898 34.9121 C 89.9414 34.9121 98.1934 33.8379 103.32 32.0801 C 107.08 30.7129 108.496 28.7109 108.496 25.8789 C 108.496 22.9492 106.494 20.8008 102.979 20.8008 C 101.953 20.8008 100.781 20.9961 99.4629 21.1914 C 93.8965 22.3633 88.6719 23.2422 81.543 23.2422 C 47.1191 23.2422 24.2676 2.29492 24.2676 -31.7383 C 24.2676 -64.7949 46.3379 -87.6465 78.7598 -87.6465 C 108.496 -87.6465 130.957 -68.9453 130.957 -37.5488 C 130.957 -20.5566 125.391 -9.32617 116.357 -9.32617 C 110.303 -9.32617 106.836 -13.3301 106.836 -20.2148 L 106.836 -57.959 C 106.836 -62.4512 104.346 -65.1367 99.9512 -65.1367 C 95.6055 -65.1367 93.0664 -62.4512 93.0664 -57.959 L 93.0664 -52.6855 L 92.0898 -52.6855 C 88.916 -60.4492 81.4453 -65.1367 72.168 -65.1367 C 56.1035 -65.1367 45.0684 -51.6113 45.0684 -31.7871 C 45.0684 -11.5723 56.2988 2.29492 72.9492 2.29492 C 82.5684 2.29492 89.502 -2.63672 93.0176 -11.4258 L 93.9941 -11.4258 C 95.8008 -2.88086 103.271 2.24609 113.477 2.24609 C 132.08 2.24609 143.457 -14.209 143.457 -38.8184 C 143.457 -75.1465 116.748 -99.2676 78.8574 -99.2676 C 39.1113 -99.2676 11.2793 -72.168 11.2793 -32.0312 Z M 76.2207 -10.2539 C 66.5527 -10.2539 60.4492 -18.4082 60.4492 -31.4941 C 60.4492 -44.4824 66.6016 -52.7344 76.2695 -52.7344 C 86.084 -52.7344 92.2363 -44.6777 92.2363 -31.7383 C 92.2363 -18.5547 85.9863 -10.2539 76.2207 -10.2539 Z"/>
  </g>
  <g id="Semibold-L" transform="matrix(1 0 0 1 1966.22 1556)">
   <path d="M 11.2793 -32.2754 C 11.2793 8.78906 39.3555 34.6191 78.9062 34.6191 C 89.4043 34.6191 98.1934 33.4473 103.613 31.6406 C 107.324 30.3711 108.691 28.3691 108.691 25.8789 C 108.691 23.2422 106.836 21.3379 103.857 21.3379 C 102.93 21.3379 101.807 21.5332 100.488 21.7773 C 94.3359 23.1445 88.5254 24.1211 80.7129 24.1211 C 46.1426 24.1211 22.8516 2.7832 22.8516 -31.9824 C 22.8516 -65.5762 45.3613 -89.0137 78.3203 -89.0137 C 108.447 -89.0137 131.787 -70.0684 131.787 -38.0371 C 131.787 -19.9707 125.781 -8.05664 116.064 -8.05664 C 109.424 -8.05664 105.664 -12.3535 105.664 -19.6289 L 105.664 -59.2285 C 105.664 -63.1836 103.467 -65.5273 99.707 -65.5273 C 95.9473 -65.5273 93.75 -63.1836 93.75 -59.2285 L 93.75 -52.6855 L 92.9199 -52.6855 C 89.7461 -60.6445 82.0312 -65.5273 72.6562 -65.5273 C 56.4941 -65.5273 45.3125 -51.8555 45.3125 -31.9336 C 45.3125 -11.8164 56.5918 2.09961 73.2422 2.09961 C 82.959 2.09961 90.1367 -2.97852 93.7012 -12.0117 L 94.5312 -12.0117 C 96.1426 -3.22266 103.564 2.09961 113.721 2.09961 C 131.787 2.09961 142.822 -14.4043 142.822 -38.9648 C 142.822 -75.3906 116.113 -99.4629 78.418 -99.4629 C 38.9648 -99.4629 11.2793 -72.4121 11.2793 -32.2754 Z M 75.7812 -8.93555 C 65.2832 -8.93555 58.5938 -17.8223 58.5938 -31.7871 C 58.5938 -45.6543 65.3809 -54.5898 75.8301 -54.5898 C 86.4746 -54.5898 93.1641 -45.9473 93.1641 -32.1289 C 93.1641 -17.9688 86.3281 -8.93555 75.7812 -8.93555 Z"/>
  </g>
  <g id="Medium-L" transform="matrix(1 0 0 1 1669.72 1556)">
   <path d="M 11.2793 -32.4707 C 11.2793 8.59375 39.2578 34.4238 78.418 34.4238 C 88.9648 34.4238 98.2422 33.1543 103.857 31.2988 C 107.568 30.0781 108.838 28.1738 108.838 25.8789 C 108.838 23.4863 107.129 21.7285 104.541 21.7285 C 103.662 21.7285 102.588 21.9727 101.318 22.2168 C 94.7266 23.7305 88.4277 24.8047 80.127 24.8047 C 45.3613 24.8047 21.8262 3.17383 21.8262 -32.1777 C 21.8262 -66.1621 44.5801 -90.0391 77.9785 -90.0391 C 108.447 -90.0391 132.422 -70.8984 132.422 -38.4277 C 132.422 -19.4824 126.074 -7.12891 115.82 -7.12891 C 108.789 -7.12891 104.736 -11.6211 104.736 -19.2383 L 104.736 -60.2051 C 104.736 -63.6719 102.832 -65.7715 99.5117 -65.7715 C 96.2402 -65.7715 94.2383 -63.6719 94.2383 -60.2051 L 94.2383 -52.6855 L 93.5547 -52.6855 C 90.3809 -60.791 82.5195 -65.7715 72.998 -65.7715 C 56.7871 -65.7715 45.5078 -52.0508 45.5078 -32.0801 C 45.5078 -11.9629 56.8359 1.95312 73.4375 1.95312 C 83.3008 1.95312 90.625 -3.27148 94.2383 -12.5 L 94.9219 -12.5 C 96.4355 -3.4668 103.809 2.00195 113.916 2.00195 C 131.592 2.00195 142.383 -14.5996 142.383 -39.1113 C 142.383 -75.5371 115.625 -99.6094 78.0762 -99.6094 C 38.8672 -99.6094 11.2793 -72.5586 11.2793 -32.4707 Z M 75.4395 -7.95898 C 64.3555 -7.95898 57.1777 -17.3828 57.1777 -31.9824 C 57.1777 -46.5332 64.4531 -56.0059 75.4883 -56.0059 C 86.7676 -56.0059 93.8477 -46.875 93.8477 -32.373 C 93.8477 -17.5293 86.6211 -7.95898 75.4395 -7.95898 Z"/>
  </g>
  <g id="Regular-L" transform="matrix(1 0 0 1 1373.33 1556)">
   <path d="M 11.2793 -32.7148 C 11.2793 8.39844 39.1113 34.1309 77.7344 34.1309 C 88.4277 34.1309 98.2422 32.8125 104.15 30.9082 C 107.812 29.7363 109.033 27.8809 109.033 25.8301 C 109.033 23.8281 107.471 22.2656 105.42 22.2656 C 104.639 22.2656 103.613 22.5098 102.344 22.8027 C 95.166 24.4629 88.2812 25.6836 79.2969 25.6836 C 44.3848 25.6836 20.459 3.66211 20.459 -32.4219 C 20.459 -66.9434 43.6035 -91.4062 77.5391 -91.4062 C 108.398 -91.4062 133.203 -71.9727 133.203 -38.9648 C 133.203 -18.8965 126.465 -5.9082 115.479 -5.9082 C 107.959 -5.9082 103.564 -10.6445 103.564 -18.6523 L 103.564 -61.4746 C 103.564 -64.3555 101.953 -66.1621 99.2676 -66.1621 C 96.582 -66.1621 94.873 -64.3555 94.873 -61.4746 L 94.873 -52.6855 L 94.3359 -52.6855 C 91.2109 -60.9375 83.1543 -66.1621 73.4863 -66.1621 C 57.1289 -66.1621 45.752 -52.2461 45.752 -32.2266 C 45.752 -12.1582 57.0801 1.80664 73.6816 1.80664 C 83.6914 1.80664 91.2109 -3.66211 94.9707 -13.1348 L 95.459 -13.1348 C 96.7773 -3.80859 104.15 1.85547 114.209 1.85547 C 131.299 1.85547 141.748 -14.7949 141.748 -39.2578 C 141.748 -75.7324 114.99 -99.8047 77.6367 -99.8047 C 38.7695 -99.8047 11.2793 -72.8027 11.2793 -32.7148 Z M 75 -6.68945 C 63.0859 -6.68945 55.3711 -16.7969 55.3711 -32.2754 C 55.3711 -47.6562 63.1836 -57.8125 75.0488 -57.8125 C 87.1582 -57.8125 94.7754 -48.1445 94.7754 -32.7637 C 94.7754 -16.9434 86.9629 -6.68945 75 -6.68945 Z"/>
  </g>
  <g id="Light-L" transform="matrix(1 0 0 1 1076.74 1556)">
   <path d="M 11.2793 -33.3008 C 11.2793 7.27539 38.7695 33.7402 77.2949 33.7402 C 88.3789 33.7402 97.9492 32.5684 103.516 30.7617 C 106.201 29.9316 107.178 28.5645 107.178 27.002 C 107.178 25.3906 106.006 24.2188 104.346 24.2188 C 103.516 24.2188 102.441 24.5605 101.123 24.8047 C 94.6777 26.2695 87.3535 27.2949 78.2715 27.2949 C 42.7246 27.2949 18.2617 3.61328 18.2617 -33.1055 C 18.2617 -68.3105 42.627 -93.6035 77.3438 -93.6035 C 110.059 -93.6035 134.961 -72.5098 134.961 -39.0625 C 134.961 -17.7734 127.832 -4.54102 116.016 -4.54102 C 107.617 -4.54102 102.637 -10.2539 102.637 -19.7754 L 102.637 -62.793 C 102.637 -64.9902 101.416 -66.3574 99.3652 -66.3574 C 97.3145 -66.3574 95.9961 -64.9902 95.9961 -62.793 L 95.9961 -51.8066 L 95.5566 -51.8066 C 92.5293 -60.7422 84.1797 -66.3574 74.0723 -66.3574 C 57.7148 -66.3574 46.4355 -52.5391 46.4355 -32.4219 C 46.4355 -12.4512 57.7148 1.31836 74.1699 1.31836 C 84.5215 1.31836 92.0898 -4.24805 95.9473 -14.4531 L 96.3867 -14.4531 C 97.8027 -4.49219 105.078 1.46484 115.186 1.46484 C 131.641 1.46484 141.504 -14.4531 141.504 -39.2578 C 141.504 -75.5371 114.893 -100 77.4414 -100 C 38.8184 -100 11.2793 -72.7051 11.2793 -33.3008 Z M 75 -5.12695 C 62.3047 -5.12695 53.7109 -16.1133 53.7109 -32.4707 C 53.7109 -48.7305 62.4512 -60.0098 75.0488 -60.0098 C 87.8906 -60.0098 95.9473 -49.6582 95.9473 -33.2031 C 95.9473 -16.2109 87.6465 -5.12695 75 -5.12695 Z"/>
  </g>
  <g id="Thin-L" transform="matrix(1 0 0 1 780.202 1556)">
   <path d="M 11.2793 -34.082 C 11.2793 5.76172 38.2812 33.2031 76.6602 33.2031 C 88.2812 33.2031 97.5098 32.2754 102.637 30.6152 C 104.102 30.2246 104.736 29.541 104.736 28.5156 C 104.736 27.4902 104.053 26.7578 102.93 26.7578 C 102.002 26.7578 100.879 27.2461 99.5117 27.4902 C 93.9941 28.6133 86.1328 29.4434 76.8555 29.4434 C 40.5762 29.4434 15.2832 3.56445 15.2832 -34.082 C 15.2832 -70.1172 41.3574 -96.4844 77.0508 -96.4844 C 112.207 -96.4844 137.256 -73.1934 137.256 -39.2578 C 137.256 -16.2109 129.639 -2.68555 116.699 -2.68555 C 107.178 -2.68555 101.416 -9.76562 101.416 -21.2891 L 101.416 -64.502 C 101.416 -65.7715 100.684 -66.6504 99.4629 -66.6504 C 98.291 -66.6504 97.5098 -65.7715 97.5098 -64.502 L 97.5098 -50.6348 L 97.168 -50.6348 C 94.2383 -60.4492 85.5469 -66.6504 74.8535 -66.6504 C 58.4961 -66.6504 47.3633 -52.8809 47.3633 -32.7148 C 47.3633 -12.793 58.4961 0.732422 74.8535 0.732422 C 85.6934 0.732422 93.2617 -5.07812 97.2168 -16.2109 L 97.5586 -16.2109 C 99.1211 -5.41992 106.25 0.976562 116.504 0.976562 C 132.031 0.976562 141.162 -14.0137 141.162 -39.209 C 141.162 -75.293 114.795 -100.244 77.1484 -100.244 C 38.916 -100.244 11.2793 -72.5586 11.2793 -34.082 Z M 75.0488 -3.02734 C 61.2793 -3.02734 51.5625 -15.2344 51.5625 -32.7148 C 51.5625 -50.0977 61.4746 -62.8906 75.0488 -62.8906 C 88.8672 -62.8906 97.4609 -51.709 97.4609 -33.7402 C 97.4609 -15.1855 88.5742 -3.02734 75.0488 -3.02734 Z"/>
  </g>
  <g id="Ultralight-L" transform="matrix(1 0 0 1 483.564 1556)">
   <path d="M 11.2793 -34.5215 C 11.2793 4.98047 38.0371 32.959 76.3672 32.959 C 88.2324 32.959 97.3145 32.1289 102.197 30.5664 C 102.979 30.3223 103.467 30.0293 103.467 29.2969 C 103.467 28.5156 103.027 28.0762 102.197 28.0762 C 101.221 28.0762 100.098 28.6133 98.6816 28.8574 C 93.6035 29.7852 85.5469 30.5664 76.1719 30.5664 C 39.4531 30.5664 13.7695 3.56445 13.7695 -34.5215 C 13.7695 -70.9961 40.7227 -97.998 76.9043 -97.998 C 113.281 -97.998 138.428 -73.584 138.428 -39.3555 C 138.428 -15.4297 130.566 -1.75781 117.041 -1.75781 C 106.934 -1.75781 100.83 -9.47266 100.83 -22.0703 L 100.83 -65.3809 C 100.83 -66.2109 100.293 -66.7969 99.5117 -66.7969 C 98.7793 -66.7969 98.2422 -66.2109 98.2422 -65.3809 L 98.2422 -50 L 97.9492 -50 C 95.1172 -60.3027 86.2305 -66.7969 75.2441 -66.7969 C 58.9355 -66.7969 47.8516 -53.0273 47.8516 -32.8613 C 47.8516 -12.9883 58.9355 0.439453 75.2441 0.439453 C 86.2793 0.439453 93.8477 -5.46875 97.9004 -17.1387 L 98.1934 -17.1387 C 99.8535 -5.9082 106.885 0.732422 117.188 0.732422 C 132.275 0.732422 141.016 -13.7695 141.016 -39.209 C 141.016 -75.1953 114.746 -100.391 77.002 -100.391 C 38.9648 -100.391 11.2793 -72.4609 11.2793 -34.5215 Z M 75.0488 -1.95312 C 60.7422 -1.95312 50.4883 -14.7949 50.4883 -32.8613 C 50.4883 -50.8301 60.9863 -64.3555 75.0488 -64.3555 C 89.3555 -64.3555 98.291 -52.7344 98.291 -34.0332 C 98.291 -14.6973 89.0137 -1.95312 75.0488 -1.95312 Z"/>
  </g>
  <g id="Black-M" transform="matrix(1 0 0 1 2872.34 1126)">
   <path d="M 8.74023 -32.1289 C 8.74023 -0.732422 30.9082 20.0684 64.0137 20.0684 C 71.8262 20.0684 75.8301 19.6289 78.4668 18.5059 C 81.0547 17.3828 82.2754 15.8691 82.2754 12.8418 C 82.2754 9.47266 80.3711 7.17773 75.8301 7.17773 C 74.5605 7.17773 73.4863 7.27539 72.3145 7.32422 C 70.6543 7.42188 68.75 7.51953 65.7715 7.51953 C 39.5508 7.51953 22.9004 -8.10547 22.9004 -31.8848 C 22.9004 -55.7617 39.2578 -71.7285 62.6465 -71.7285 C 85.0586 -71.7285 99.2676 -57.4219 99.2676 -35.1074 C 99.2676 -25.4883 96.3867 -19.1895 91.6992 -19.1895 C 88.623 -19.1895 86.9141 -21.7773 86.9141 -26.3672 L 86.9141 -48.5352 C 86.9141 -54.0039 83.9355 -57.0312 78.5156 -57.0312 C 73.1445 -57.0312 70.2148 -54.0039 70.2148 -48.5352 L 70.2148 -48.291 L 68.7988 -48.291 C 66.4062 -54.0039 61.2305 -57.0312 54.4434 -57.0312 C 42.3828 -57.0312 34.375 -47.1191 34.375 -31.9824 C 34.375 -16.2109 42.8711 -5.71289 55.8594 -5.71289 C 62.9395 -5.71289 67.3828 -8.88672 69.873 -15.0391 L 71.1914 -15.0391 C 73.4375 -9.17969 79.1992 -5.9082 87.4023 -5.9082 C 103.564 -5.9082 113.379 -17.8711 113.379 -37.3535 C 113.379 -65.2832 92.9199 -84.2285 62.6465 -84.2285 C 30.8105 -84.2285 8.74023 -62.8906 8.74023 -32.1289 Z M 60.8398 -19.9707 C 56.0059 -19.9707 53.1738 -24.1699 53.1738 -31.2988 C 53.1738 -38.5254 56.0547 -42.8223 60.8398 -42.8223 C 65.5762 -42.8223 68.5059 -38.5254 68.5059 -31.2988 C 68.5059 -24.1699 65.625 -19.9707 60.8398 -19.9707 Z"/>
  </g>
  <g id="Heavy-M" transform="matrix(1 0 0 1 2576.02 1126)">
   <path d="M 8.74023 -32.3242 C 8.74023 -0.732422 30.8594 19.7266 63.1836 19.7266 C 71.0449 19.7266 75.9766 19.1406 79.1016 17.9199 C 81.8359 16.8457 83.0566 15.2344 83.0566 12.5 C 83.0566 9.47266 81.25 7.42188 77.3438 7.42188 C 76.2695 7.42188 75.2441 7.51953 74.1211 7.61719 C 71.4844 8.00781 68.7988 8.34961 64.8926 8.34961 C 38.5254 8.34961 21.582 -7.37305 21.582 -32.0801 C 21.582 -56.543 38.0859 -73.0957 62.0605 -73.0957 C 84.5703 -73.0957 99.9512 -58.8379 99.9512 -35.8398 C 99.9512 -25 96.582 -17.7734 91.1133 -17.7734 C 87.5 -17.7734 85.4492 -20.5078 85.4492 -25.2441 L 85.4492 -50 C 85.4492 -54.834 82.8613 -57.5195 78.125 -57.5195 C 73.4375 -57.5195 70.8496 -54.834 70.8496 -50 L 70.8496 -48.5352 L 69.6777 -48.5352 C 67.2363 -54.2969 61.8652 -57.5195 54.9316 -57.5195 C 42.7246 -57.5195 34.5215 -47.4121 34.5215 -32.1777 C 34.5215 -16.4551 43.1152 -5.85938 56.0547 -5.85938 C 63.2812 -5.85938 68.0664 -9.22852 70.6055 -15.5762 L 71.7285 -15.5762 C 73.6816 -9.47266 79.4434 -6.00586 87.5488 -6.00586 C 103.125 -6.00586 112.598 -18.3105 112.598 -37.5977 C 112.598 -65.625 92.041 -84.4238 62.1094 -84.4238 C 30.6152 -84.4238 8.74023 -63.2324 8.74023 -32.3242 Z M 60.2051 -18.5547 C 54.4434 -18.5547 50.9766 -23.4863 50.9766 -31.6406 C 50.9766 -39.8438 54.4922 -44.873 60.2051 -44.873 C 65.918 -44.873 69.4824 -39.8926 69.4824 -31.7383 C 69.4824 -23.5352 65.9668 -18.5547 60.2051 -18.5547 Z"/>
  </g>
  <g id="Bold-M" transform="matrix(1 0 0 1 2279.75 1126)">
   <path d="M 8.74023 -32.5195 C 8.74023 -0.78125 30.7129 19.3848 62.2559 19.3848 C 70.2148 19.3848 76.0742 18.6035 79.7852 17.2852 C 82.7637 16.2109 83.9355 14.5508 83.9355 12.1582 C 83.9355 9.52148 82.2266 7.71484 79.0527 7.71484 C 78.1738 7.71484 77.2461 7.8125 76.1719 7.95898 C 72.3633 8.74023 68.8477 9.27734 63.916 9.27734 C 37.4512 9.27734 20.0195 -6.5918 20.0195 -32.2754 C 20.0195 -57.4219 36.8164 -74.6094 61.4258 -74.6094 C 84.082 -74.6094 100.732 -60.4004 100.732 -36.5723 C 100.732 -24.3652 96.8262 -16.2598 90.4297 -16.2598 C 86.2305 -16.2598 83.8379 -19.0918 83.8379 -24.0723 L 83.8379 -51.709 C 83.8379 -55.7129 81.6406 -58.0566 77.6855 -58.0566 C 73.7793 -58.0566 71.5332 -55.7129 71.5332 -51.709 L 71.5332 -48.7793 L 70.6055 -48.7793 C 68.1641 -54.6387 62.5488 -58.0566 55.5176 -58.0566 C 43.1641 -58.0566 34.7168 -47.7051 34.7168 -32.4219 C 34.7168 -16.6992 43.4082 -6.00586 56.2988 -6.00586 C 63.623 -6.00586 68.7988 -9.61914 71.4355 -16.2109 L 72.3633 -16.2109 C 73.9258 -9.81445 79.7363 -6.05469 87.6465 -6.05469 C 102.588 -6.05469 111.719 -18.75 111.719 -37.8418 C 111.719 -66.0156 91.0156 -84.668 61.4746 -84.668 C 30.4199 -84.668 8.74023 -63.6719 8.74023 -32.5195 Z M 59.4727 -16.9922 C 52.6855 -16.9922 48.4863 -22.7539 48.4863 -32.0801 C 48.4863 -41.4062 52.7344 -47.168 59.5215 -47.168 C 66.3574 -47.168 70.6543 -41.4551 70.6543 -32.1777 C 70.6543 -22.8027 66.3086 -16.9922 59.4727 -16.9922 Z"/>
  </g>
  <g id="Semibold-M" transform="matrix(1 0 0 1 1983.35 1126)">
   <path d="M 8.74023 -32.7148 C 8.74023 -0.78125 30.6641 19.1406 61.6211 19.1406 C 69.6289 19.1406 76.1719 18.2617 80.2734 16.8457 C 83.3984 15.7715 84.5215 14.0625 84.5215 11.9141 C 84.5215 9.57031 82.9102 7.91016 80.2246 7.91016 C 79.4434 7.91016 78.6133 8.00781 77.5391 8.20312 C 72.998 9.17969 68.8965 9.91211 63.2324 9.91211 C 36.6699 9.91211 18.9941 -6.00586 18.9941 -32.4219 C 18.9941 -58.0078 35.8887 -75.6836 60.9863 -75.6836 C 83.6914 -75.6836 101.318 -61.4746 101.318 -37.1094 C 101.318 -23.9746 96.9727 -15.1855 89.9902 -15.1855 C 85.3516 -15.1855 82.7148 -18.1152 82.7148 -23.1934 L 82.7148 -52.832 C 82.7148 -56.3477 80.8105 -58.4473 77.3926 -58.4473 C 74.0234 -58.4473 72.0215 -56.3477 72.0215 -52.832 L 72.0215 -48.9746 L 71.2891 -48.9746 C 68.7988 -54.8828 63.0371 -58.4473 55.9082 -58.4473 C 43.457 -58.4473 34.8145 -47.9004 34.8145 -32.5195 C 34.8145 -16.8945 43.5547 -6.10352 56.4941 -6.10352 C 63.916 -6.10352 69.3359 -9.91211 72.0215 -16.6016 L 72.7539 -16.6016 C 74.1211 -10.0586 79.8828 -6.15234 87.7441 -6.15234 C 102.197 -6.15234 111.084 -19.043 111.084 -38.0371 C 111.084 -66.2598 90.332 -84.8633 61.0352 -84.8633 C 30.2734 -84.8633 8.74023 -63.916 8.74023 -32.7148 Z M 58.9844 -15.918 C 51.4648 -15.918 46.7773 -22.2168 46.7773 -32.373 C 46.7773 -42.4316 51.5137 -48.7305 59.0332 -48.7305 C 66.6016 -48.7305 71.4355 -42.4805 71.4355 -32.5195 C 71.4355 -22.3633 66.5527 -15.918 58.9844 -15.918 Z"/>
  </g>
  <g id="Medium-M" transform="matrix(1 0 0 1 1686.86 1126)">
   <path d="M 8.74023 -32.8125 C 8.74023 -0.78125 30.6152 18.9941 61.1328 18.9941 C 69.1406 18.9941 76.2207 17.9688 80.6152 16.5039 C 83.8379 15.4297 84.9609 13.7207 84.9609 11.7188 C 84.9609 9.61914 83.4473 8.05664 81.1523 8.05664 C 80.4688 8.05664 79.6387 8.1543 78.6133 8.34961 C 73.4375 9.57031 68.8965 10.4004 62.7441 10.4004 C 36.084 10.4004 18.1641 -5.61523 18.1641 -32.5195 C 18.1641 -58.4473 35.2051 -76.4648 60.6445 -76.4648 C 83.4473 -76.4648 101.709 -62.3047 101.709 -37.5 C 101.709 -23.6816 97.0703 -14.3555 89.6484 -14.3555 C 84.7168 -14.3555 81.8848 -17.3828 81.8848 -22.5586 L 81.8848 -53.7109 C 81.8848 -56.8359 80.1758 -58.7402 77.1484 -58.7402 C 74.1699 -58.7402 72.4121 -56.8359 72.4121 -53.7109 L 72.4121 -49.0723 L 71.7773 -49.0723 C 69.3359 -55.0781 63.3789 -58.7402 56.2012 -58.7402 C 43.6523 -58.7402 34.9121 -48.0957 34.9121 -32.666 C 34.9121 -17.041 43.7012 -6.20117 56.6406 -6.20117 C 64.1113 -6.20117 69.6777 -10.1074 72.4609 -16.9434 L 73.0469 -16.9434 C 74.2676 -10.2539 80.0293 -6.20117 87.8418 -6.20117 C 101.953 -6.20117 110.645 -19.2871 110.645 -38.1836 C 110.645 -66.4551 89.8438 -84.9609 60.7422 -84.9609 C 30.127 -84.9609 8.74023 -64.1602 8.74023 -32.8125 Z M 58.5938 -15.0879 C 50.5371 -15.0879 45.5078 -21.8262 45.5078 -32.5684 C 45.5078 -43.2129 50.5859 -49.9512 58.6426 -49.9512 C 66.8457 -49.9512 72.0215 -43.3105 72.0215 -32.7637 C 72.0215 -21.9727 66.748 -15.0879 58.5938 -15.0879 Z"/>
  </g>
  <g id="Regular-M" transform="matrix(1 0 0 1 1390.47 1126)">
   <path d="M 8.74023 -32.959 C 8.74023 -0.78125 30.5176 18.75 60.498 18.75 C 68.6035 18.75 76.3184 17.627 81.1035 16.0645 C 84.4727 14.9902 85.5469 13.2324 85.5469 11.4258 C 85.5469 9.61914 84.1309 8.25195 82.3242 8.25195 C 81.7383 8.25195 80.957 8.34961 80.0293 8.59375 C 74.0723 10.0586 68.9453 11.0352 62.0605 11.0352 C 35.3516 11.0352 17.1387 -5.07812 17.1387 -32.666 C 17.1387 -59.082 34.3262 -77.4902 60.2051 -77.4902 C 83.1055 -77.4902 102.246 -63.3789 102.246 -38.0371 C 102.246 -23.2422 97.2656 -13.2812 89.209 -13.2812 C 83.8379 -13.2812 80.8105 -16.4062 80.8105 -21.7285 L 80.8105 -54.834 C 80.8105 -57.4707 79.3457 -59.082 76.8555 -59.082 C 74.4141 -59.082 72.9004 -57.4707 72.9004 -54.834 L 72.9004 -49.2676 L 72.4609 -49.2676 C 69.9707 -55.2734 63.8672 -59.082 56.5918 -59.082 C 43.9453 -59.082 35.0586 -48.291 35.0586 -32.8125 C 35.0586 -17.1875 43.8965 -6.29883 56.7871 -6.29883 C 64.3555 -6.29883 70.2148 -10.4004 73.0469 -17.334 L 73.4863 -17.334 C 74.4141 -10.4492 80.2246 -6.25 87.9395 -6.25 C 101.562 -6.25 110.01 -19.6289 110.01 -38.3789 C 110.01 -66.748 89.1602 -85.1562 60.3027 -85.1562 C 29.9805 -85.1562 8.74023 -64.4043 8.74023 -32.959 Z M 58.1055 -14.0137 C 49.3652 -14.0137 43.7988 -21.2891 43.7988 -32.8613 C 43.7988 -44.2383 49.4141 -51.5137 58.1543 -51.5137 C 67.1387 -51.5137 72.8027 -44.3848 72.8027 -33.0566 C 72.8027 -21.4844 66.9922 -14.0137 58.1055 -14.0137 Z"/>
  </g>
  <g id="Light-M" transform="matrix(1 0 0 1 1093.88 1126)">
   <path d="M 8.74023 -33.4961 C 8.74023 -1.80664 30.2246 18.4082 60.1074 18.4082 C 68.5059 18.4082 76.0254 17.4316 80.5176 15.9668 C 83.0078 15.1855 83.8867 13.916 83.8867 12.5 C 83.8867 11.0352 82.8125 9.96094 81.3477 9.96094 C 80.7129 9.96094 79.9316 10.2051 78.9062 10.4004 C 73.584 11.6211 68.1152 12.5 61.1328 12.5 C 33.8379 12.5 15.1367 -5.07812 15.1367 -33.3008 C 15.1367 -60.2539 33.4961 -79.4922 60.0098 -79.4922 C 84.5703 -79.4922 103.809 -63.8672 103.809 -38.1348 C 103.809 -22.2168 98.4863 -12.0605 89.6484 -12.0605 C 83.5449 -12.0605 79.9805 -16.0645 79.9805 -22.7539 L 79.9805 -56.0059 C 79.9805 -58.0078 78.8086 -59.2773 76.9531 -59.2773 C 75.0488 -59.2773 73.877 -58.0078 73.877 -56.0059 L 73.877 -48.4863 L 73.5352 -48.4863 C 71.0938 -55.0781 64.7949 -59.2773 57.1289 -59.2773 C 44.4824 -59.2773 35.6934 -48.5352 35.6934 -32.959 C 35.6934 -17.4316 44.4336 -6.68945 57.2754 -6.68945 C 65.1367 -6.68945 70.9961 -10.9375 73.9258 -18.5547 L 74.2676 -18.5547 C 75.3418 -11.084 81.0059 -6.5918 88.8184 -6.5918 C 101.855 -6.5918 109.766 -19.2871 109.766 -38.3301 C 109.766 -66.5527 89.0625 -85.3027 60.1074 -85.3027 C 30.0293 -85.3027 8.74023 -64.3066 8.74023 -33.4961 Z M 58.1543 -12.5977 C 48.6328 -12.5977 42.3828 -20.7031 42.3828 -33.0078 C 42.3828 -45.2148 48.7305 -53.4668 58.1543 -53.4668 C 67.7734 -53.4668 73.8281 -45.752 73.8281 -33.4473 C 73.8281 -20.8008 67.627 -12.5977 58.1543 -12.5977 Z"/>
  </g>
  <g id="Thin-M" transform="matrix(1 0 0 1 797.316 1126)">
   <path d="M 8.74023 -34.1797 C 8.74023 -3.125 29.7852 17.9199 59.5215 17.9199 C 68.4082 17.9199 75.6836 17.1387 79.7363 15.8691 C 81.1035 15.4297 81.6895 14.7461 81.6895 13.8184 C 81.6895 12.8906 81.0547 12.2559 80.0781 12.2559 C 79.3457 12.2559 78.5156 12.5977 77.4902 12.793 C 72.998 13.7207 67.041 14.4531 59.8633 14.4531 C 31.8848 14.4531 12.5 -5.12695 12.5 -34.1309 C 12.5 -61.8652 32.3242 -82.0801 59.7656 -82.0801 C 86.4746 -82.0801 105.859 -64.502 105.859 -38.2812 C 105.859 -20.8496 100.098 -10.4004 90.2832 -10.4004 C 83.1543 -10.4004 78.8574 -15.5762 78.8574 -24.1211 L 78.8574 -57.5195 C 78.8574 -58.7402 78.1738 -59.5215 77.0508 -59.5215 C 75.9277 -59.5215 75.2441 -58.7402 75.2441 -57.5195 L 75.2441 -47.4121 L 74.9512 -47.4121 C 72.6562 -54.834 66.0156 -59.5215 57.8125 -59.5215 C 45.166 -59.5215 36.5234 -48.8281 36.5234 -33.2031 C 36.5234 -17.7734 45.166 -7.22656 57.8613 -7.22656 C 66.1621 -7.22656 72.0215 -11.6699 75.0488 -20.1172 L 75.3418 -20.1172 C 76.5625 -11.9141 82.0801 -7.08008 90.0391 -7.08008 C 102.246 -7.08008 109.473 -18.8965 109.473 -38.3301 C 109.473 -66.3574 89.0137 -85.5469 59.8633 -85.5469 C 30.127 -85.5469 8.74023 -64.1602 8.74023 -34.1797 Z M 58.1543 -10.7422 C 47.7051 -10.7422 40.4297 -19.9219 40.4297 -33.2031 C 40.4297 -46.4355 47.8516 -56.0547 58.1543 -56.0547 C 68.6523 -56.0547 75.1953 -47.5586 75.1953 -33.9844 C 75.1953 -19.9219 68.457 -10.7422 58.1543 -10.7422 Z"/>
  </g>
  <g id="Ultralight-M" transform="matrix(1 0 0 1 500.678 1126)">
   <path d="M 8.74023 -34.5215 C 8.74023 -3.85742 29.541 17.6758 59.2773 17.6758 C 68.3594 17.6758 75.4883 17.041 79.2969 15.7715 C 80.127 15.5273 80.5664 15.1855 80.5664 14.5508 C 80.5664 13.8672 80.1758 13.4277 79.4434 13.4277 C 78.6621 13.4277 77.7832 13.8184 76.7578 14.0137 C 72.6562 14.7949 66.4551 15.4297 59.2285 15.4297 C 30.9082 15.4297 11.1328 -5.17578 11.1328 -34.5703 C 11.1328 -62.6953 31.7383 -83.3984 59.668 -83.3984 C 87.4512 -83.3984 106.934 -64.8438 106.934 -38.3789 C 106.934 -20.1172 100.928 -9.57031 90.5762 -9.57031 C 82.959 -9.57031 78.3203 -15.3809 78.3203 -24.8047 L 78.3203 -58.3008 C 78.3203 -59.082 77.832 -59.6191 77.0996 -59.6191 C 76.416 -59.6191 75.9277 -59.082 75.9277 -58.3008 L 75.9277 -46.875 L 75.6836 -46.875 C 73.4375 -54.6875 66.6504 -59.6191 58.2031 -59.6191 C 45.5566 -59.6191 36.9629 -48.9746 36.9629 -33.3496 C 36.9629 -17.9688 45.5566 -7.4707 58.2031 -7.4707 C 66.6992 -7.4707 72.5586 -12.0605 75.6836 -20.9473 L 75.9277 -20.9473 C 77.1484 -12.3535 82.6172 -7.27539 90.625 -7.27539 C 102.441 -7.27539 109.326 -18.6523 109.326 -38.3301 C 109.326 -66.2109 88.9648 -85.6934 59.7168 -85.6934 C 30.1758 -85.6934 8.74023 -64.1113 8.74023 -34.5215 Z M 58.1543 -9.76562 C 47.2168 -9.76562 39.4531 -19.5312 39.4531 -33.3496 C 39.4531 -47.0703 47.4121 -57.373 58.1543 -57.373 C 69.0918 -57.373 75.9277 -48.4863 75.9277 -34.2285 C 75.9277 -19.4336 68.8477 -9.76562 58.1543 -9.76562 Z"/>
  </g>
  <g id="Black-S" transform="matrix(1 0 0 1 2885.6 696)">
   <path d="M 6.83594 -32.8125 C 6.83594 -8.20312 24.2188 8.05664 50.0977 8.05664 C 56.2012 8.05664 59.4238 7.71484 61.5234 6.83594 C 63.5742 5.95703 64.5508 4.73633 64.5508 2.39258 C 64.5508 -0.244141 63.0371 -2.00195 59.5215 -2.00195 C 58.5449 -2.00195 57.7148 -1.95312 56.7871 -1.9043 C 55.4199 -1.80664 53.8574 -1.70898 51.4648 -1.70898 C 30.9082 -1.70898 17.8711 -13.916 17.8711 -32.6172 C 17.8711 -51.3672 30.6641 -63.916 49.0234 -63.916 C 66.5527 -63.916 77.7832 -52.7344 77.7832 -35.2051 C 77.7832 -27.5879 75.4883 -22.5586 71.7773 -22.5586 C 69.3359 -22.5586 67.9688 -24.6094 67.9688 -28.1738 L 67.9688 -45.752 C 67.9688 -50 65.6738 -52.3438 61.4746 -52.3438 C 57.3242 -52.3438 55.0293 -50 55.0293 -45.752 L 55.0293 -45.5078 L 53.9551 -45.5078 C 52.0508 -49.9512 47.998 -52.3438 42.6758 -52.3438 C 33.2031 -52.3438 26.9043 -44.5801 26.9043 -32.7148 C 26.9043 -20.3613 33.5938 -12.1094 43.75 -12.1094 C 49.3164 -12.1094 52.832 -14.5996 54.7852 -19.4336 L 55.8105 -19.4336 C 57.5195 -14.8438 62.0605 -12.2559 68.457 -12.2559 C 81.1035 -12.2559 88.7695 -21.6797 88.7695 -36.9141 C 88.7695 -58.7891 72.7051 -73.6328 49.0234 -73.6328 C 24.1211 -73.6328 6.83594 -56.9336 6.83594 -32.8125 Z M 47.6074 -23.1934 C 43.75 -23.1934 41.5039 -26.5137 41.5039 -32.1777 C 41.5039 -37.8906 43.7988 -41.3086 47.6074 -41.3086 C 51.3672 -41.3086 53.7109 -37.8906 53.7109 -32.1777 C 53.7109 -26.5137 51.416 -23.1934 47.6074 -23.1934 Z"/>
  </g>
  <g id="Heavy-S" transform="matrix(1 0 0 1 2589.18 696)">
   <path d="M 6.83594 -32.9102 C 6.83594 -8.10547 24.1699 7.86133 49.5117 7.86133 C 55.6152 7.86133 59.5215 7.37305 62.0605 6.39648 C 64.3555 5.51758 65.332 4.19922 65.332 2.05078 C 65.332 -0.341797 63.8672 -2.00195 60.791 -2.00195 C 59.9609 -2.00195 59.1797 -1.95312 58.3008 -1.85547 C 56.1035 -1.51367 54.0039 -1.2207 50.8789 -1.2207 C 30.3223 -1.2207 17.041 -13.3789 17.041 -32.666 C 17.041 -51.8066 29.8828 -64.7461 48.584 -64.7461 C 66.0645 -64.7461 78.1738 -53.7598 78.1738 -35.6934 C 78.1738 -27.2949 75.4883 -21.6309 71.2891 -21.6309 C 68.5059 -21.6309 66.9434 -23.6816 66.9434 -27.2461 L 66.9434 -46.7773 C 66.9434 -50.5859 64.8926 -52.6855 61.1816 -52.6855 C 57.4707 -52.6855 55.4199 -50.5859 55.4199 -46.7773 L 55.4199 -45.752 L 54.4922 -45.752 C 52.5879 -50.1953 48.3887 -52.6855 43.0176 -52.6855 C 33.4473 -52.6855 26.9531 -44.7754 26.9531 -32.8125 C 26.9531 -20.5078 33.7402 -12.1582 43.8477 -12.1582 C 49.4629 -12.1582 53.2715 -14.7949 55.2734 -19.7266 L 56.1523 -19.7266 C 57.6172 -14.9902 62.1582 -12.2559 68.457 -12.2559 C 80.7129 -12.2559 88.1836 -22.0215 88.1836 -37.1094 C 88.1836 -59.082 72.0215 -73.7793 48.6328 -73.7793 C 23.9746 -73.7793 6.83594 -57.2266 6.83594 -32.9102 Z M 47.1191 -22.2656 C 42.627 -22.2656 39.9902 -26.0742 39.9902 -32.4219 C 39.9902 -38.8184 42.6758 -42.6758 47.1191 -42.6758 C 51.5625 -42.6758 54.3945 -38.7695 54.3945 -32.4707 C 54.3945 -26.123 51.6113 -22.2656 47.1191 -22.2656 Z"/>
  </g>
  <g id="Bold-S" transform="matrix(1 0 0 1 2292.79 696)">
   <path d="M 6.83594 -33.0078 C 6.83594 -7.95898 24.1211 7.61719 48.8281 7.61719 C 54.9805 7.61719 59.668 6.98242 62.6953 5.9082 C 65.2344 4.98047 66.1621 3.61328 66.1621 1.61133 C 66.1621 -0.488281 64.7949 -2.00195 62.207 -2.00195 C 61.5234 -2.00195 60.8398 -1.95312 60.0098 -1.85547 C 56.8359 -1.17188 54.1504 -0.683594 50.293 -0.683594 C 29.6387 -0.683594 16.1133 -12.7441 16.1133 -32.7637 C 16.1133 -52.3438 29.0039 -65.6738 48.1445 -65.6738 C 65.4785 -65.6738 78.5645 -54.8828 78.5645 -36.2793 C 78.5645 -26.9531 75.5371 -20.6055 70.7031 -20.6055 C 67.5781 -20.6055 65.8203 -22.6074 65.8203 -26.1719 L 65.8203 -47.9004 C 65.8203 -51.1719 64.0137 -53.0762 60.8398 -53.0762 C 57.666 -53.0762 55.8105 -51.1719 55.8105 -47.9004 L 55.8105 -46.0449 L 55.0781 -46.0449 C 53.125 -50.4883 48.7793 -53.0762 43.3594 -53.0762 C 33.6914 -53.0762 27.0508 -44.9707 27.0508 -32.959 C 27.0508 -20.6543 33.8379 -12.2559 43.9941 -12.2559 C 49.6582 -12.2559 53.7109 -15.0391 55.7617 -20.0195 L 56.4941 -20.0195 C 57.666 -15.1855 62.2559 -12.3047 68.457 -12.3047 C 80.2734 -12.3047 87.5488 -22.4121 87.5488 -37.3047 C 87.5488 -59.375 71.2891 -73.9258 48.1934 -73.9258 C 23.7793 -73.9258 6.83594 -57.5195 6.83594 -33.0078 Z M 46.582 -21.2402 C 41.3574 -21.2402 38.2812 -25.5859 38.2812 -32.7148 C 38.2812 -39.8926 41.4062 -44.1895 46.582 -44.1895 C 51.8066 -44.1895 55.127 -39.7949 55.127 -32.7637 C 55.127 -25.6348 51.8066 -21.2402 46.582 -21.2402 Z"/>
  </g>
  <g id="Semibold-S" transform="matrix(1 0 0 1 1996.32 696)">
   <path d="M 6.83594 -33.0566 C 6.83594 -7.86133 24.1211 7.4707 48.3887 7.4707 C 54.541 7.4707 59.7656 6.73828 63.0859 5.61523 C 65.8203 4.63867 66.7969 3.17383 66.7969 1.31836 C 66.7969 -0.585938 65.4297 -2.00195 63.2324 -2.00195 C 62.6465 -2.00195 61.9629 -1.95312 61.1816 -1.80664 C 57.3242 -0.927734 54.248 -0.341797 49.8535 -0.341797 C 29.1992 -0.341797 15.4785 -12.3047 15.4785 -32.8125 C 15.4785 -52.6855 28.3691 -66.3086 47.8027 -66.3086 C 65.0879 -66.3086 78.8574 -55.6641 78.8574 -36.6699 C 78.8574 -26.7578 75.5371 -19.873 70.3125 -19.873 C 66.9434 -19.873 65.0391 -21.9238 65.0391 -25.4395 L 65.0391 -48.6816 C 65.0391 -51.6113 63.4277 -53.3691 60.5957 -53.3691 C 57.7637 -53.3691 56.1035 -51.6113 56.1035 -48.6816 L 56.1035 -46.2402 L 55.5176 -46.2402 C 53.5156 -50.6836 49.0723 -53.3691 43.6523 -53.3691 C 33.8379 -53.3691 27.0508 -45.1172 27.0508 -33.0566 C 27.0508 -20.8008 33.9355 -12.3047 44.0918 -12.3047 C 49.8047 -12.3047 54.0527 -15.2344 56.1523 -20.2637 L 56.7383 -20.2637 C 57.7637 -15.332 62.3047 -12.3047 68.457 -12.3047 C 79.9805 -12.3047 87.0605 -22.6562 87.0605 -37.4512 C 87.0605 -59.6191 70.752 -74.0723 47.8516 -74.0723 C 23.6816 -74.0723 6.83594 -57.7637 6.83594 -33.0566 Z M 46.1914 -20.5566 C 40.5273 -20.5566 37.1094 -25.1953 37.1094 -32.9102 C 37.1094 -40.5762 40.5273 -45.2148 46.1914 -45.2148 C 51.9531 -45.2148 55.6152 -40.4785 55.6152 -33.0078 C 55.6152 -25.3418 51.9531 -20.5566 46.1914 -20.5566 Z"/>
  </g>
  <g id="Medium-S" transform="matrix(1 0 0 1 1699.78 696)">
   <path d="M 6.83594 -33.1055 C 6.83594 -7.8125 24.0723 7.37305 48.0469 7.37305 C 54.1992 7.37305 59.8145 6.54297 63.4277 5.32227 C 66.2598 4.39453 67.2363 2.88086 67.2363 1.12305 C 67.2363 -0.683594 65.918 -2.00195 63.9648 -2.00195 C 63.4766 -2.00195 62.8418 -1.95312 62.0605 -1.80664 C 57.7148 -0.78125 54.2969 -0.0488281 49.5117 -0.0488281 C 28.8574 -0.0488281 14.9902 -12.0117 14.9902 -32.8613 C 14.9902 -52.9785 27.9297 -66.748 47.5586 -66.748 C 64.7949 -66.748 79.0527 -56.2988 79.0527 -36.9629 C 79.0527 -26.5625 75.5859 -19.3359 70.0195 -19.3359 C 66.4551 -19.3359 64.4531 -21.3379 64.4531 -24.9023 L 64.4531 -49.2676 C 64.4531 -51.9531 62.9883 -53.5645 60.4004 -53.5645 C 57.8613 -53.5645 56.2988 -51.9531 56.2988 -49.2676 L 56.2988 -46.3867 L 55.8105 -46.3867 C 53.8574 -50.8301 49.2676 -53.5645 43.8477 -53.5645 C 33.9844 -53.5645 27.0996 -45.2148 27.0996 -33.1543 C 27.0996 -20.8496 34.0332 -12.3047 44.1895 -12.3047 C 49.9023 -12.3047 54.2969 -15.332 56.3965 -20.4102 L 56.9336 -20.4102 C 57.8125 -15.3809 62.3535 -12.3535 68.457 -12.3535 C 79.7363 -12.3535 86.7188 -22.9004 86.7188 -37.5488 C 86.7188 -59.7656 70.3613 -74.1211 47.6562 -74.1211 C 23.584 -74.1211 6.83594 -57.9102 6.83594 -33.1055 Z M 45.8984 -20.0195 C 39.8438 -20.0195 36.1816 -24.9512 36.1816 -33.0566 C 36.1816 -41.1133 39.8926 -45.9961 45.9473 -45.9961 C 52.0996 -45.9961 56.0059 -41.0156 56.0059 -33.1543 C 56.0059 -25.0977 52.0508 -20.0195 45.8984 -20.0195 Z"/>
  </g>
  <g id="Regular-S" transform="matrix(1 0 0 1 1403.29 696)">
   <path d="M 6.83594 -33.2031 C 6.83594 -7.71484 24.0723 7.22656 47.6074 7.22656 C 53.7598 7.22656 59.9121 6.25 63.8184 5.0293 C 66.8457 4.05273 67.8223 2.44141 67.8223 0.830078 C 67.8223 -0.78125 66.5527 -2.00195 64.9414 -2.00195 C 64.5508 -2.00195 63.9648 -1.95312 63.2324 -1.75781 C 58.252 -0.537109 54.3945 0.341797 49.0723 0.341797 C 28.3691 0.341797 14.4043 -11.5723 14.4043 -32.9102 C 14.4043 -53.3203 27.2949 -67.3828 47.2168 -67.3828 C 64.4043 -67.3828 79.3457 -57.0801 79.3457 -37.3535 C 79.3457 -26.3672 75.5859 -18.6523 69.6289 -18.6523 C 65.8203 -18.6523 63.6719 -20.6543 63.6719 -24.1699 L 63.6719 -50.0488 C 63.6719 -52.3926 62.3535 -53.8574 60.1562 -53.8574 C 57.959 -53.8574 56.5918 -52.3926 56.5918 -50.0488 L 56.5918 -46.582 L 56.2012 -46.582 C 54.248 -51.0254 49.5605 -53.8574 44.0918 -53.8574 C 34.1797 -53.8574 27.1484 -45.3613 27.1484 -33.252 C 27.1484 -20.9961 34.1309 -12.3535 44.2383 -12.3535 C 50 -12.3535 54.5898 -15.5273 56.7871 -20.6543 L 57.1777 -20.6543 C 57.8613 -15.5273 62.4512 -12.3535 68.457 -12.3535 C 79.4434 -12.3535 86.2793 -23.1445 86.2793 -37.6953 C 86.2793 -59.9609 69.873 -74.2676 47.3145 -74.2676 C 23.4375 -74.2676 6.83594 -58.1543 6.83594 -33.2031 Z M 45.5078 -19.2871 C 39.0137 -19.2871 35.0098 -24.6094 35.0098 -33.3008 C 35.0098 -41.8457 39.0137 -47.0215 45.5566 -47.0215 C 52.2461 -47.0215 56.4941 -41.6992 56.4941 -33.3496 C 56.4941 -24.8047 52.1973 -19.2871 45.5078 -19.2871 Z"/>
  </g>
  <g id="Light-S" transform="matrix(1 0 0 1 1106.67 696)">
   <path d="M 6.83594 -33.6426 C 6.83594 -8.64258 23.7793 6.93359 47.2168 6.93359 C 53.7109 6.93359 59.668 6.10352 63.2812 4.93164 C 65.5762 4.19922 66.3574 3.02734 66.3574 1.75781 C 66.3574 0.488281 65.3809 -0.488281 64.1113 -0.488281 C 63.623 -0.488281 62.9883 -0.341797 62.2559 -0.195312 C 57.8125 0.878906 53.6621 1.61133 48.2422 1.61133 C 27.0996 1.61133 12.5977 -11.6211 12.5977 -33.4473 C 12.5977 -54.3945 26.5625 -69.1406 47.0703 -69.1406 C 65.6738 -69.1406 80.7129 -57.4707 80.7129 -37.4512 C 80.7129 -25.4395 76.6602 -17.5781 70.0684 -17.5781 C 65.5762 -17.5781 62.9395 -20.3613 62.9395 -25.0977 L 62.9395 -51.0742 C 62.9395 -52.8809 61.9141 -54.0039 60.2539 -54.0039 C 58.5449 -54.0039 57.5195 -52.8809 57.5195 -51.0742 L 57.5195 -45.8984 L 57.1777 -45.8984 C 55.2734 -50.8789 50.3906 -54.0039 44.5312 -54.0039 C 34.6191 -54.0039 27.6855 -45.5566 27.6855 -33.3984 C 27.6855 -21.1914 34.6191 -12.6953 44.6777 -12.6953 C 50.7324 -12.6953 55.3223 -16.0156 57.5684 -21.6797 L 57.8613 -21.6797 C 58.6426 -16.0645 63.1348 -12.6465 69.2383 -12.6465 C 79.6875 -12.6465 86.084 -22.8516 86.084 -37.6953 C 86.084 -59.8145 69.8242 -74.4141 47.168 -74.4141 C 23.4863 -74.4141 6.83594 -58.0566 6.83594 -33.6426 Z M 45.5078 -18.0664 C 38.3789 -18.0664 33.7402 -24.0723 33.7402 -33.4473 C 33.7402 -42.6758 38.4277 -48.7793 45.5566 -48.7793 C 52.832 -48.7793 57.4219 -42.9199 57.4219 -33.6914 C 57.4219 -24.2188 52.7344 -18.0664 45.5078 -18.0664 Z"/>
  </g>
  <g id="Thin-S" transform="matrix(1 0 0 1 810.084 696)">
   <path d="M 6.83594 -34.2773 C 6.83594 -9.81445 23.3887 6.49414 46.7285 6.49414 C 53.6133 6.49414 59.3262 5.85938 62.5977 4.83398 C 63.916 4.39453 64.4043 3.75977 64.4043 2.92969 C 64.4043 2.14844 63.8184 1.5625 62.9883 1.5625 C 62.4512 1.5625 61.7676 1.75781 60.9863 1.95312 C 57.2754 2.73438 52.7344 3.32031 47.1191 3.32031 C 25.3418 3.32031 10.2539 -11.6211 10.2539 -34.1797 C 10.2539 -55.8105 25.5371 -71.4355 46.875 -71.4355 C 67.3828 -71.4355 82.5195 -58.0566 82.5195 -37.5977 C 82.5195 -24.2188 78.0762 -16.1133 70.6055 -16.1133 C 65.2344 -16.1133 62.0117 -19.9219 62.0117 -26.2695 L 62.0117 -52.3926 C 62.0117 -53.5156 61.377 -54.1992 60.3516 -54.1992 C 59.3262 -54.1992 58.6914 -53.5156 58.6914 -52.3926 L 58.6914 -44.9707 L 58.4473 -44.9707 C 56.5918 -50.6348 51.4648 -54.1992 45.166 -54.1992 C 35.2539 -54.1992 28.418 -45.8008 28.418 -33.5938 C 28.418 -21.4844 35.2539 -13.1836 45.2148 -13.1836 C 51.6113 -13.1836 56.2012 -16.6504 58.5938 -23.0957 L 58.8379 -23.0957 C 59.7168 -16.7969 64.1113 -13.0859 70.2637 -13.0859 C 80.0293 -13.0859 85.8398 -22.5098 85.8398 -37.6465 C 85.8398 -59.668 69.7266 -74.6094 46.9238 -74.6094 C 23.584 -74.6094 6.83594 -57.959 6.83594 -34.2773 Z M 45.5566 -16.4062 C 37.5488 -16.4062 32.0312 -23.3887 32.0312 -33.5938 C 32.0312 -43.7988 37.6465 -51.0254 45.5566 -51.0254 C 53.6133 -51.0254 58.6426 -44.5312 58.6426 -34.1309 C 58.6426 -23.3887 53.4668 -16.4062 45.5566 -16.4062 Z"/>
  </g>
  <g id="Ultralight-S" transform="matrix(1 0 0 1 513.446 696)">
   <path d="M 6.83594 -34.6191 C 6.83594 -10.4492 23.1934 6.29883 46.4844 6.29883 C 53.5645 6.29883 59.1797 5.76172 62.2559 4.73633 C 63.0371 4.49219 63.4277 4.15039 63.4277 3.56445 C 63.4277 2.97852 63.0371 2.58789 62.4023 2.58789 C 61.8164 2.58789 61.1328 2.88086 60.3027 3.02734 C 56.9824 3.71094 52.1973 4.19922 46.582 4.19922 C 24.4629 4.19922 9.08203 -11.6699 9.08203 -34.5703 C 9.08203 -56.543 25 -72.6074 46.7773 -72.6074 C 68.2617 -72.6074 83.4961 -58.3496 83.4961 -37.6953 C 83.4961 -23.584 78.8574 -15.3809 70.8984 -15.3809 C 65.0391 -15.3809 61.4746 -19.7266 61.4746 -26.8555 L 61.4746 -53.125 C 61.4746 -53.8086 61.0352 -54.2969 60.4004 -54.2969 C 59.7168 -54.2969 59.2773 -53.8086 59.2773 -53.125 L 59.2773 -44.4824 L 59.082 -44.4824 C 57.3242 -50.5371 52.002 -54.2969 45.5078 -54.2969 C 35.5957 -54.2969 28.8086 -45.9473 28.8086 -33.6914 C 28.8086 -21.6309 35.5469 -13.4277 45.5078 -13.4277 C 52.0996 -13.4277 56.6895 -16.9434 59.1309 -23.8281 L 59.3262 -23.8281 C 60.2539 -17.1875 64.5996 -13.2812 70.8008 -13.2812 C 80.1758 -13.2812 85.6934 -22.3145 85.6934 -37.6465 C 85.6934 -59.5215 69.6777 -74.707 46.8262 -74.707 C 23.6328 -74.707 6.83594 -57.8613 6.83594 -34.6191 Z M 45.5566 -15.5273 C 37.1094 -15.5273 31.1523 -23.0469 31.1523 -33.7402 C 31.1523 -44.3359 37.2559 -52.1973 45.5566 -52.1973 C 54.0039 -52.1973 59.2773 -45.3613 59.2773 -34.375 C 59.2773 -22.998 53.8086 -15.5273 45.5566 -15.5273 Z"/>
  </g>
 </g>
</svg>
