<?xml version="1.0" encoding="UTF-8"?>
<!--Generator: Apple Native CoreSVG 123-->
<!DOCTYPE svg
PUBLIC "-//W3C//DTD SVG 1.1//EN"
       "http://www.w3.org/Graphics/SVG/1.1/DTD/svg11.dtd">
<svg version="1.1" xmlns="http://www.w3.org/2000/svg" xmlns:xlink="http://www.w3.org/1999/xlink" width="3300" height="2200">
 <!--glyph: "uni1002B9.medium", point size: 100.000000, font version: "Version 15.0d7e11", template writer version: "5"-->
 <g id="Notes">
  <rect height="2200" id="artboard" style="fill:white;opacity:1" width="3300" x="0" y="0"/>
  <line id="" style="fill:none;stroke:black;opacity:1;stroke-width:0.5;" x1="263" x2="3036" y1="292" y2="292"/>
  <text style="stroke:none;fill:black;font-family:-apple-system,&quot;SF Pro Display&quot;,&quot;SF Pro Text&quot;,Helvetica,sans-serif;font-weight:bold;" transform="matrix(1 0 0 1 263 322)">Weight/Scale Variations</text>
  <text style="stroke:none;fill:black;font-family:-apple-system,&quot;SF Pro Display&quot;,&quot;SF Pro Text&quot;,Helvetica,sans-serif;text-anchor:middle;" transform="matrix(1 0 0 1 559.711 322)">Ultralight</text>
  <text style="stroke:none;fill:black;font-family:-apple-system,&quot;SF Pro Display&quot;,&quot;SF Pro Text&quot;,Helvetica,sans-serif;text-anchor:middle;" transform="matrix(1 0 0 1 856.422 322)">Thin</text>
  <text style="stroke:none;fill:black;font-family:-apple-system,&quot;SF Pro Display&quot;,&quot;SF Pro Text&quot;,Helvetica,sans-serif;text-anchor:middle;" transform="matrix(1 0 0 1 1153.13 322)">Light</text>
  <text style="stroke:none;fill:black;font-family:-apple-system,&quot;SF Pro Display&quot;,&quot;SF Pro Text&quot;,Helvetica,sans-serif;text-anchor:middle;" transform="matrix(1 0 0 1 1449.84 322)">Regular</text>
  <text style="stroke:none;fill:black;font-family:-apple-system,&quot;SF Pro Display&quot;,&quot;SF Pro Text&quot;,Helvetica,sans-serif;text-anchor:middle;" transform="matrix(1 0 0 1 1746.56 322)">Medium</text>
  <text style="stroke:none;fill:black;font-family:-apple-system,&quot;SF Pro Display&quot;,&quot;SF Pro Text&quot;,Helvetica,sans-serif;text-anchor:middle;" transform="matrix(1 0 0 1 2043.27 322)">Semibold</text>
  <text style="stroke:none;fill:black;font-family:-apple-system,&quot;SF Pro Display&quot;,&quot;SF Pro Text&quot;,Helvetica,sans-serif;text-anchor:middle;" transform="matrix(1 0 0 1 2339.98 322)">Bold</text>
  <text style="stroke:none;fill:black;font-family:-apple-system,&quot;SF Pro Display&quot;,&quot;SF Pro Text&quot;,Helvetica,sans-serif;text-anchor:middle;" transform="matrix(1 0 0 1 2636.69 322)">Heavy</text>
  <text style="stroke:none;fill:black;font-family:-apple-system,&quot;SF Pro Display&quot;,&quot;SF Pro Text&quot;,Helvetica,sans-serif;text-anchor:middle;" transform="matrix(1 0 0 1 2933.4 322)">Black</text>
  <line id="" style="fill:none;stroke:black;opacity:1;stroke-width:0.5;" x1="263" x2="3036" y1="1903" y2="1903"/>
  <g id="" transform="matrix(1 0 0 1 263 1933)">
   <path d="M 9.24805 0.830078 C 13.5547 0.830078 17.1387 -2.74414 17.1387 -7.05078 C 17.1387 -11.3574 13.5449 -14.9316 9.23828 -14.9316 C 4.94141 -14.9316 1.36719 -11.3574 1.36719 -7.05078 C 1.36719 -2.74414 4.95117 0.830078 9.24805 0.830078 Z M 9.24805 -0.654297 C 5.70312 -0.654297 2.87109 -3.49609 2.87109 -7.05078 C 2.87109 -10.6055 5.69336 -13.4473 9.23828 -13.4473 C 12.793 -13.4473 15.6348 -10.6055 15.6445 -7.05078 C 15.6543 -3.49609 12.8027 -0.654297 9.24805 -0.654297 Z M 9.22852 -3.42773 C 9.69727 -3.42773 9.9707 -3.74023 9.9707 -4.25781 L 9.9707 -6.31836 L 12.1973 -6.31836 C 12.6953 -6.31836 13.0371 -6.57227 13.0371 -7.04102 C 13.0371 -7.51953 12.7148 -7.7832 12.1973 -7.7832 L 9.9707 -7.7832 L 9.9707 -10.0098 C 9.9707 -10.5273 9.69727 -10.8496 9.22852 -10.8496 C 8.75977 -10.8496 8.50586 -10.5078 8.50586 -10.0098 L 8.50586 -7.7832 L 6.29883 -7.7832 C 5.78125 -7.7832 5.44922 -7.51953 5.44922 -7.04102 C 5.44922 -6.57227 5.80078 -6.31836 6.29883 -6.31836 L 8.50586 -6.31836 L 8.50586 -4.25781 C 8.50586 -3.75977 8.75977 -3.42773 9.22852 -3.42773 Z"/>
  </g>
  <g id="" transform="matrix(1 0 0 1 281.506 1933)">
   <path d="M 11.709 2.91016 C 17.1582 2.91016 21.6699 -1.60156 21.6699 -7.05078 C 21.6699 -12.4902 17.1484 -17.0117 11.6992 -17.0117 C 6.25977 -17.0117 1.74805 -12.4902 1.74805 -7.05078 C 1.74805 -1.60156 6.26953 2.91016 11.709 2.91016 Z M 11.709 1.25 C 7.09961 1.25 3.41797 -2.44141 3.41797 -7.05078 C 3.41797 -11.6504 7.08984 -15.3516 11.6992 -15.3516 C 16.3086 -15.3516 20 -11.6504 20.0098 -7.05078 C 20.0195 -2.44141 16.3184 1.25 11.709 1.25 Z M 11.6895 -2.41211 C 12.207 -2.41211 12.5195 -2.77344 12.5195 -3.33984 L 12.5195 -6.23047 L 15.5762 -6.23047 C 16.123 -6.23047 16.5039 -6.51367 16.5039 -7.03125 C 16.5039 -7.55859 16.1426 -7.86133 15.5762 -7.86133 L 12.5195 -7.86133 L 12.5195 -10.9277 C 12.5195 -11.5039 12.207 -11.8555 11.6895 -11.8555 C 11.1719 -11.8555 10.8789 -11.4844 10.8789 -10.9277 L 10.8789 -7.86133 L 7.83203 -7.86133 C 7.26562 -7.86133 6.89453 -7.55859 6.89453 -7.03125 C 6.89453 -6.51367 7.28516 -6.23047 7.83203 -6.23047 L 10.8789 -6.23047 L 10.8789 -3.33984 C 10.8789 -2.79297 11.1719 -2.41211 11.6895 -2.41211 Z"/>
  </g>
  <g id="" transform="matrix(1 0 0 1 304.924 1933)">
   <path d="M 14.9707 5.67383 C 21.9336 5.67383 27.6953 -0.078125 27.6953 -7.04102 C 27.6953 -14.0039 21.9238 -19.7559 14.9609 -19.7559 C 8.00781 -19.7559 2.25586 -14.0039 2.25586 -7.04102 C 2.25586 -0.078125 8.01758 5.67383 14.9707 5.67383 Z M 14.9707 3.85742 C 8.93555 3.85742 4.08203 -1.00586 4.08203 -7.04102 C 4.08203 -13.0762 8.92578 -17.9395 14.9609 -17.9395 C 21.0059 -17.9395 25.8594 -13.0762 25.8691 -7.04102 C 25.8789 -1.00586 21.0156 3.85742 14.9707 3.85742 Z M 14.9512 -1.06445 C 15.5176 -1.06445 15.8691 -1.45508 15.8691 -2.06055 L 15.8691 -6.13281 L 20.1074 -6.13281 C 20.6934 -6.13281 21.1133 -6.46484 21.1133 -7.02148 C 21.1133 -7.59766 20.7227 -7.93945 20.1074 -7.93945 L 15.8691 -7.93945 L 15.8691 -12.1875 C 15.8691 -12.8027 15.5176 -13.1934 14.9512 -13.1934 C 14.3848 -13.1934 14.0625 -12.7832 14.0625 -12.1875 L 14.0625 -7.93945 L 9.83398 -7.93945 C 9.21875 -7.93945 8.80859 -7.59766 8.80859 -7.02148 C 8.80859 -6.46484 9.23828 -6.13281 9.83398 -6.13281 L 14.0625 -6.13281 L 14.0625 -2.06055 C 14.0625 -1.47461 14.3848 -1.06445 14.9512 -1.06445 Z"/>
  </g>
  <text style="stroke:none;fill:black;font-family:-apple-system,&quot;SF Pro Display&quot;,&quot;SF Pro Text&quot;,Helvetica,sans-serif;font-weight:bold;" transform="matrix(1 0 0 1 263 1953)">Design Variations</text>
  <text style="stroke:none;fill:black;font-family:-apple-system,&quot;SF Pro Display&quot;,&quot;SF Pro Text&quot;,Helvetica,sans-serif;" transform="matrix(1 0 0 1 263 1971)">Symbols are supported in up to nine weights and three scales.</text>
  <text style="stroke:none;fill:black;font-family:-apple-system,&quot;SF Pro Display&quot;,&quot;SF Pro Text&quot;,Helvetica,sans-serif;" transform="matrix(1 0 0 1 263 1989)">For optimal layout with text and other symbols, vertically align</text>
  <text style="stroke:none;fill:black;font-family:-apple-system,&quot;SF Pro Display&quot;,&quot;SF Pro Text&quot;,Helvetica,sans-serif;" transform="matrix(1 0 0 1 263 2007)">symbols with the adjacent text.</text>
  <rect height="14" id="" style="fill:#00AEEF;stroke:none;opacity:0.4;" width="3" x="776" y="1919"/>
  <g id="" transform="matrix(1 0 0 1 779 1933)">
   <path d="M 10.5273 0 L 12.373 0 L 7.17773 -14.0918 L 5.43945 -14.0918 L 0.244141 0 L 2.08984 0 L 3.50586 -4.0332 L 9.11133 -4.0332 Z M 6.2793 -11.9531 L 6.33789 -11.9531 L 8.59375 -5.52734 L 4.02344 -5.52734 Z"/>
  </g>
  <rect height="14" id="" style="fill:#00AEEF;stroke:none;opacity:0.4;" width="3" x="791.617" y="1919"/>
  <text style="stroke:none;fill:black;font-family:-apple-system,&quot;SF Pro Display&quot;,&quot;SF Pro Text&quot;,Helvetica,sans-serif;font-weight:bold;" transform="matrix(1 0 0 1 776 1953)">Margins</text>
  <text style="stroke:none;fill:black;font-family:-apple-system,&quot;SF Pro Display&quot;,&quot;SF Pro Text&quot;,Helvetica,sans-serif;" transform="matrix(1 0 0 1 776 1971)">Leading and trailing margins on the left and right side of each symbol</text>
  <text style="stroke:none;fill:black;font-family:-apple-system,&quot;SF Pro Display&quot;,&quot;SF Pro Text&quot;,Helvetica,sans-serif;" transform="matrix(1 0 0 1 776 1989)">can be adjusted by modifying the width of the blue rectangles.</text>
  <text style="stroke:none;fill:black;font-family:-apple-system,&quot;SF Pro Display&quot;,&quot;SF Pro Text&quot;,Helvetica,sans-serif;" transform="matrix(1 0 0 1 776 2007)">Modifications are automatically applied proportionally to all</text>
  <text style="stroke:none;fill:black;font-family:-apple-system,&quot;SF Pro Display&quot;,&quot;SF Pro Text&quot;,Helvetica,sans-serif;" transform="matrix(1 0 0 1 776 2025)">scales and weights.</text>
  <g id="" transform="matrix(1 0 0 1 1289 1933)">
   <path d="M 2.83203 3.11523 L 4.375 4.6582 C 5.22461 5.48828 6.19141 5.41992 7.06055 4.46289 L 17.2754 -6.66016 C 17.7051 -6.36719 18.0957 -6.37695 18.5645 -6.47461 L 19.6094 -6.68945 L 20.3027 -5.99609 L 20.2539 -5.47852 C 20.1855 -4.95117 20.3516 -4.53125 20.8496 -4.0332 L 21.6602 -3.22266 C 22.168 -2.71484 22.8223 -2.68555 23.3008 -3.16406 L 26.5527 -6.41602 C 27.0312 -6.89453 27.0117 -7.54883 26.5039 -8.05664 L 25.6836 -8.87695 C 25.1855 -9.375 24.7754 -9.55078 24.2383 -9.47266 L 23.7109 -9.41406 L 23.0566 -10.0781 L 23.3398 -11.2207 C 23.4863 -11.7871 23.3398 -12.2559 22.7148 -12.8613 L 20.3027 -15.2539 C 16.7578 -18.7793 12.2266 -18.6719 9.11133 -15.5371 C 8.69141 -15.1074 8.64258 -14.5215 8.91602 -14.0918 C 9.15039 -13.7207 9.62891 -13.4961 10.2734 -13.6621 C 11.7871 -14.043 13.3008 -13.9258 14.7852 -12.9199 L 14.1602 -11.3379 C 13.9258 -10.752 13.9453 -10.2734 14.1797 -9.83398 L 3.01758 0.439453 C 2.08008 1.30859 1.97266 2.25586 2.83203 3.11523 Z M 10.6738 -15.1465 C 13.3398 -17.1387 16.6504 -16.8262 19.0527 -14.4141 L 21.6797 -11.8066 C 21.9141 -11.5723 21.9434 -11.3867 21.8848 -11.0938 L 21.5039 -9.53125 L 23.0762 -7.95898 L 24.043 -8.04688 C 24.3262 -8.07617 24.4141 -8.05664 24.6387 -7.83203 L 25.2637 -7.20703 L 22.5098 -4.46289 L 21.8848 -5.07812 C 21.6602 -5.30273 21.6406 -5.40039 21.6699 -5.68359 L 21.7578 -6.64062 L 20.1953 -8.20312 L 18.5742 -7.89062 C 18.291 -7.83203 18.1445 -7.83203 17.9102 -8.07617 L 15.7324 -10.2539 C 15.5078 -10.4883 15.4785 -10.625 15.6055 -10.9473 L 16.5527 -13.2227 C 14.9512 -14.7559 12.8418 -15.6055 10.8008 -14.9512 C 10.7129 -14.9219 10.6445 -14.9414 10.6152 -14.9805 C 10.5859 -15.0293 10.5859 -15.0781 10.6738 -15.1465 Z M 4.10156 2.41211 C 3.61328 1.91406 3.78906 1.61133 4.12109 1.30859 L 15.0781 -8.80859 L 16.3086 -7.57812 L 6.15234 3.34961 C 5.84961 3.68164 5.46875 3.7793 5.06836 3.37891 Z"/>
  </g>
  <text style="stroke:none;fill:black;font-family:-apple-system,&quot;SF Pro Display&quot;,&quot;SF Pro Text&quot;,Helvetica,sans-serif;font-weight:bold;" transform="matrix(1 0 0 1 1289 1953)">Exporting</text>
  <text style="stroke:none;fill:black;font-family:-apple-system,&quot;SF Pro Display&quot;,&quot;SF Pro Text&quot;,Helvetica,sans-serif;" transform="matrix(1 0 0 1 1289 1971)">Symbols should be outlined when exporting to ensure the</text>
  <text style="stroke:none;fill:black;font-family:-apple-system,&quot;SF Pro Display&quot;,&quot;SF Pro Text&quot;,Helvetica,sans-serif;" transform="matrix(1 0 0 1 1289 1989)">design is preserved when submitting to Xcode.</text>
  <text id="template-version" style="stroke:none;fill:black;font-family:-apple-system,&quot;SF Pro Display&quot;,&quot;SF Pro Text&quot;,Helvetica,sans-serif;text-anchor:end;" transform="matrix(1 0 0 1 3036 1933)">Template v.1.0</text>
  <text style="stroke:none;fill:black;font-family:-apple-system,&quot;SF Pro Display&quot;,&quot;SF Pro Text&quot;,Helvetica,sans-serif;text-anchor:end;" transform="matrix(1 0 0 1 3036 1951)">Generated from heart.circle.fill</text>
  <text style="stroke:none;fill:black;font-family:-apple-system,&quot;SF Pro Display&quot;,&quot;SF Pro Text&quot;,Helvetica,sans-serif;text-anchor:end;" transform="matrix(1 0 0 1 3036 1969)">Typeset at 100 points</text>
  <text style="stroke:none;fill:black;font-family:-apple-system,&quot;SF Pro Display&quot;,&quot;SF Pro Text&quot;,Helvetica,sans-serif;" transform="matrix(1 0 0 1 263 726)">Small</text>
  <text style="stroke:none;fill:black;font-family:-apple-system,&quot;SF Pro Display&quot;,&quot;SF Pro Text&quot;,Helvetica,sans-serif;" transform="matrix(1 0 0 1 263 1156)">Medium</text>
  <text style="stroke:none;fill:black;font-family:-apple-system,&quot;SF Pro Display&quot;,&quot;SF Pro Text&quot;,Helvetica,sans-serif;" transform="matrix(1 0 0 1 263 1586)">Large</text>
 </g>
 <g id="Guides">
  <g id="H-reference" style="fill:#27AAE1;stroke:none;" transform="matrix(1 0 0 1 339 696)">
   <path d="M 54.9316 0 L 57.666 0 L 30.5664 -70.459 L 28.0762 -70.459 L 0.976562 0 L 3.66211 0 L 12.9395 -24.4629 L 45.7031 -24.4629 Z M 29.1992 -67.0898 L 29.4434 -67.0898 L 44.8242 -26.709 L 13.8184 -26.709 Z"/>
  </g>
  <line id="Baseline-S" style="fill:none;stroke:#27AAE1;opacity:1;stroke-width:0.577;" x1="263" x2="3036" y1="696" y2="696"/>
  <line id="Capline-S" style="fill:none;stroke:#27AAE1;opacity:1;stroke-width:0.577;" x1="263" x2="3036" y1="625.541" y2="625.541"/>
  <g id="H-reference" style="fill:#27AAE1;stroke:none;" transform="matrix(1 0 0 1 339 1126)">
   <path d="M 54.9316 0 L 57.666 0 L 30.5664 -70.459 L 28.0762 -70.459 L 0.976562 0 L 3.66211 0 L 12.9395 -24.4629 L 45.7031 -24.4629 Z M 29.1992 -67.0898 L 29.4434 -67.0898 L 44.8242 -26.709 L 13.8184 -26.709 Z"/>
  </g>
  <line id="Baseline-M" style="fill:none;stroke:#27AAE1;opacity:1;stroke-width:0.577;" x1="263" x2="3036" y1="1126" y2="1126"/>
  <line id="Capline-M" style="fill:none;stroke:#27AAE1;opacity:1;stroke-width:0.577;" x1="263" x2="3036" y1="1055.54" y2="1055.54"/>
  <g id="H-reference" style="fill:#27AAE1;stroke:none;" transform="matrix(1 0 0 1 339 1556)">
   <path d="M 54.9316 0 L 57.666 0 L 30.5664 -70.459 L 28.0762 -70.459 L 0.976562 0 L 3.66211 0 L 12.9395 -24.4629 L 45.7031 -24.4629 Z M 29.1992 -67.0898 L 29.4434 -67.0898 L 44.8242 -26.709 L 13.8184 -26.709 Z"/>
  </g>
  <line id="Baseline-L" style="fill:none;stroke:#27AAE1;opacity:1;stroke-width:0.577;" x1="263" x2="3036" y1="1556" y2="1556"/>
  <line id="Capline-L" style="fill:none;stroke:#27AAE1;opacity:1;stroke-width:0.577;" x1="263" x2="3036" y1="1485.54" y2="1485.54"/>
  <rect height="119.336" id="left-margin" style="fill:#00AEEF;stroke:none;opacity:0.4;" width="8.74023" x="1391.3" y="1030.79"/>
  <rect height="119.336" id="right-margin" style="fill:#00AEEF;stroke:none;opacity:0.4;" width="8.74023" x="1499.65" y="1030.79"/>
 </g>
 <g id="Symbols">
  <g id="Black-L" transform="matrix(1 0 0 1 2854.05 1556)">
   <path d="M 79.3457 32.8613 C 116.748 32.8613 147.412 2.19727 147.412 -35.2051 C 147.412 -72.6074 116.748 -103.271 79.2969 -103.271 C 41.8945 -103.271 11.2793 -72.6074 11.2793 -35.2051 C 11.2793 2.19727 41.9434 32.8613 79.3457 32.8613 Z M 63.5254 -63.8672 C 71.2891 -63.8672 76.5137 -59.375 79.3457 -54.5898 C 82.1289 -59.375 87.4512 -63.8672 95.166 -63.8672 C 105.762 -63.8672 114.355 -55.5664 114.355 -43.0176 C 114.355 -21.4844 89.4043 -6.00586 83.6914 -2.68555 C 82.373 -1.95312 80.7129 -0.976562 79.3945 -0.976562 C 78.0273 -0.976562 76.2695 -1.95312 75 -2.68555 C 69.2871 -6.00586 44.3359 -21.4844 44.3359 -43.0176 C 44.3359 -55.5664 52.9297 -63.8672 63.5254 -63.8672 Z"/>
  </g>
  <g id="Heavy-L" transform="matrix(1 0 0 1 2558.39 1556)">
   <path d="M 78.2715 31.7871 C 115.088 31.7871 145.312 1.61133 145.312 -35.2051 C 145.312 -72.0215 115.039 -102.197 78.2715 -102.197 C 41.4551 -102.197 11.2793 -72.0215 11.2793 -35.2051 C 11.2793 1.61133 41.5039 31.7871 78.2715 31.7871 Z M 62.5 -63.8184 C 70.0684 -63.8184 75.3906 -59.4727 78.2715 -54.4434 C 81.1523 -59.4727 86.5234 -63.8184 94.043 -63.8184 C 104.736 -63.8184 113.184 -55.5176 113.184 -43.3105 C 113.184 -22.7051 89.6484 -7.12891 82.2754 -2.68555 C 81.1035 -1.95312 79.541 -1.02539 78.3203 -1.02539 C 77.1484 -1.02539 75.4883 -1.95312 74.2676 -2.68555 C 66.9434 -7.12891 43.4082 -22.7051 43.4082 -43.3105 C 43.4082 -55.5176 51.8555 -63.8184 62.5 -63.8184 Z"/>
  </g>
  <g id="Bold-L" transform="matrix(1 0 0 1 2262.88 1556)">
   <path d="M 77.0996 30.6152 C 113.232 30.6152 142.92 0.878906 142.92 -35.2051 C 142.92 -71.3379 113.184 -101.025 77.0508 -101.025 C 40.9668 -101.025 11.2793 -71.3379 11.2793 -35.2051 C 11.2793 0.878906 41.0156 30.6152 77.0996 30.6152 Z M 61.377 -63.8184 C 68.75 -63.8184 74.1211 -59.5215 77.0996 -54.248 C 80.0781 -59.5215 85.5469 -63.8184 92.8223 -63.8184 C 103.564 -63.8184 111.865 -55.5176 111.865 -43.6035 C 111.865 -24.0234 89.9414 -8.39844 80.7129 -2.63672 C 79.6387 -2.00195 78.2227 -1.12305 77.1973 -1.12305 C 76.123 -1.12305 74.6094 -2.00195 73.4863 -2.63672 C 64.2578 -8.39844 42.334 -24.0234 42.334 -43.6035 C 42.334 -55.5176 50.6348 -63.8184 61.377 -63.8184 Z"/>
  </g>
  <g id="Semibold-L" transform="matrix(1 0 0 1 1966.97 1556)">
   <path d="M 76.2695 29.7852 C 111.914 29.7852 141.309 0.439453 141.309 -35.2051 C 141.309 -70.8496 111.865 -100.244 76.2695 -100.244 C 40.625 -100.244 11.2793 -70.8496 11.2793 -35.2051 C 11.2793 0.439453 40.6738 29.7852 76.2695 29.7852 Z M 60.5957 -63.7695 C 67.8223 -63.7695 73.2422 -59.5703 76.2695 -54.1504 C 79.3457 -59.5703 84.8145 -63.7695 91.9922 -63.7695 C 102.783 -63.7695 110.938 -55.5176 110.938 -43.7988 C 110.938 -24.9512 90.1367 -9.22852 79.6875 -2.63672 C 78.6133 -2.00195 77.3438 -1.17188 76.3672 -1.17188 C 75.4395 -1.17188 74.0234 -2.00195 72.9004 -2.63672 C 62.4023 -9.22852 41.6504 -24.9512 41.6504 -43.7988 C 41.6504 -55.5176 49.8047 -63.7695 60.5957 -63.7695 Z"/>
  </g>
  <g id="Medium-L" transform="matrix(1 0 0 1 1670.87 1556)">
   <path d="M 75.6836 29.1992 C 110.938 29.1992 140.088 0.0488281 140.088 -35.2051 C 140.088 -70.459 110.889 -99.6094 75.6348 -99.6094 C 40.3809 -99.6094 11.2793 -70.459 11.2793 -35.2051 C 11.2793 0.0488281 40.3809 29.1992 75.6836 29.1992 Z M 60.0098 -63.7695 C 67.0898 -63.7695 72.5586 -59.6191 75.6836 -54.0527 C 78.7598 -59.6191 84.3262 -63.7695 91.3086 -63.7695 C 102.197 -63.7695 110.254 -55.4688 110.254 -43.9453 C 110.254 -25.6836 90.332 -9.91211 78.8574 -2.63672 C 77.8809 -2.00195 76.6113 -1.2207 75.7812 -1.2207 C 74.9023 -1.2207 73.5352 -2.00195 72.5098 -2.63672 C 61.0352 -9.91211 41.1133 -25.6836 41.1133 -43.9453 C 41.1133 -55.4688 49.1699 -63.7695 60.0098 -63.7695 Z"/>
  </g>
  <g id="Regular-L" transform="matrix(1 0 0 1 1374.97 1556)">
   <path d="M 74.8535 28.3691 C 109.668 28.3691 138.477 -0.390625 138.477 -35.2051 C 138.477 -70.0195 109.619 -98.7793 74.8047 -98.7793 C 40.0391 -98.7793 11.2793 -70.0195 11.2793 -35.2051 C 11.2793 -0.390625 40.0879 28.3691 74.8535 28.3691 Z M 59.2773 -63.7695 C 66.2109 -63.7695 71.7285 -59.668 74.8535 -53.9062 C 78.0273 -59.668 83.6426 -63.7695 90.4785 -63.7695 C 101.416 -63.7695 109.375 -55.4688 109.375 -44.1406 C 109.375 -26.5625 90.5273 -10.7422 77.7832 -2.63672 C 76.8555 -2.00195 75.7324 -1.26953 74.9512 -1.26953 C 74.2188 -1.26953 72.9492 -2.00195 71.9238 -2.63672 C 59.2285 -10.7422 40.3809 -26.5625 40.3809 -44.1406 C 40.3809 -55.4688 48.3398 -63.7695 59.2773 -63.7695 Z"/>
  </g>
  <g id="Light-L" transform="matrix(1 0 0 1 1079.18 1556)">
   <path d="M 73.9258 27.4902 C 108.301 27.4902 136.621 -0.830078 136.621 -35.1562 C 136.621 -69.5312 108.252 -97.8516 73.9258 -97.8516 C 39.5508 -97.8516 11.2793 -69.5312 11.2793 -35.1562 C 11.2793 -0.830078 39.5996 27.4902 73.9258 27.4902 Z M 58.0566 -64.3066 C 65.0879 -64.3066 70.8496 -59.9609 73.9258 -54.3457 C 77.0508 -59.9609 82.8613 -64.3066 89.8438 -64.3066 C 100.879 -64.3066 108.936 -55.9082 108.936 -44.5801 C 108.936 -26.123 88.7695 -9.86328 76.5625 -2.05078 C 75.7324 -1.46484 74.707 -0.830078 74.0234 -0.830078 C 73.3398 -0.830078 72.2168 -1.46484 71.3379 -2.05078 C 59.1309 -9.86328 38.9648 -26.123 38.9648 -44.5801 C 38.9648 -55.9082 47.0215 -64.3066 58.0566 -64.3066 Z"/>
  </g>
  <g id="Thin-L" transform="matrix(1 0 0 1 783.693 1556)">
   <path d="M 72.7051 26.3184 C 106.494 26.3184 134.18 -1.36719 134.18 -35.1074 C 134.18 -68.8965 106.494 -96.582 72.7051 -96.582 C 38.9648 -96.582 11.2793 -68.8965 11.2793 -35.1074 C 11.2793 -1.36719 38.9648 26.3184 72.7051 26.3184 Z M 56.3965 -64.9902 C 63.623 -64.9902 69.6777 -60.3516 72.7051 -54.8828 C 75.7812 -60.3516 81.8848 -64.9902 89.0137 -64.9902 C 100.146 -64.9902 108.398 -56.4941 108.398 -45.166 C 108.398 -25.4883 86.4258 -8.64258 74.9023 -1.2207 C 74.1699 -0.732422 73.3398 -0.292969 72.7539 -0.292969 C 72.168 -0.292969 71.2891 -0.732422 70.5078 -1.2207 C 58.9844 -8.64258 37.0605 -25.4883 37.0605 -45.166 C 37.0605 -56.4941 45.2637 -64.9902 56.3965 -64.9902 Z"/>
  </g>
  <g id="Ultralight-L" transform="matrix(1 0 0 1 487.616 1556)">
   <path d="M 72.1191 25.7324 C 105.566 25.7324 132.91 -1.61133 132.91 -35.1074 C 132.91 -68.5547 105.566 -95.8984 72.1191 -95.8984 C 38.623 -95.8984 11.2793 -68.5547 11.2793 -35.1074 C 11.2793 -1.61133 38.623 25.7324 72.1191 25.7324 Z M 55.6152 -65.3809 C 62.8906 -65.3809 69.043 -60.5469 72.1191 -55.1758 C 75.1465 -60.5469 81.3965 -65.3809 88.5742 -65.3809 C 99.8047 -65.3809 108.154 -56.7871 108.154 -45.459 C 108.154 -25.1465 85.2539 -8.05664 74.0723 -0.830078 C 73.3887 -0.341797 72.6074 0 72.0703 0 C 71.5332 0 70.8008 -0.341797 70.1172 -0.830078 C 58.9355 -8.05664 36.084 -25.1465 36.084 -45.459 C 36.084 -56.7871 44.3848 -65.3809 55.6152 -65.3809 Z"/>
  </g>
  <g id="Black-M" transform="matrix(1 0 0 1 2870.97 1126)">
   <path d="M 62.4023 18.457 C 91.9922 18.457 116.113 -5.61523 116.113 -35.2051 C 116.113 -64.7949 91.9922 -88.8672 62.4023 -88.8672 C 32.8125 -88.8672 8.74023 -64.7949 8.74023 -35.2051 C 8.74023 -5.61523 32.8125 18.457 62.4023 18.457 Z M 49.9512 -57.7148 C 56.25 -57.7148 60.3516 -54.0039 62.4023 -50.6836 C 64.4531 -54.0039 68.5547 -57.7148 74.9023 -57.7148 C 83.0566 -57.7148 89.9902 -51.2207 89.9902 -41.1621 C 89.9902 -22.7051 67.9688 -10.5957 66.0645 -9.66797 C 64.9902 -9.13086 63.623 -8.34961 62.4023 -8.34961 C 61.2305 -8.34961 59.7656 -9.13086 58.7891 -9.66797 C 56.8848 -10.5957 34.8145 -22.7051 34.8145 -41.1621 C 34.8145 -51.2207 41.748 -57.7148 49.9512 -57.7148 Z"/>
  </g>
  <g id="Heavy-M" transform="matrix(1 0 0 1 2575.19 1126)">
   <path d="M 61.5234 17.5781 C 90.5273 17.5781 114.258 -6.15234 114.258 -35.2051 C 114.258 -64.2578 90.5273 -87.9883 61.4746 -87.9883 C 32.4707 -87.9883 8.74023 -64.2578 8.74023 -35.2051 C 8.74023 -6.15234 32.4707 17.5781 61.5234 17.5781 Z M 49.1699 -57.5684 C 55.2246 -57.5684 59.375 -54.0039 61.5234 -50.3906 C 63.623 -54.0039 67.7734 -57.5684 73.877 -57.5684 C 82.0801 -57.5684 88.8184 -51.123 88.8184 -41.3574 C 88.8184 -24.1211 68.7012 -12.0605 64.8438 -9.81445 C 63.8672 -9.27734 62.5977 -8.54492 61.5234 -8.54492 C 60.4492 -8.54492 59.1309 -9.27734 58.1543 -9.81445 C 54.2969 -12.0605 34.1797 -24.1211 34.1797 -41.3574 C 34.1797 -51.123 40.918 -57.5684 49.1699 -57.5684 Z"/>
  </g>
  <g id="Bold-M" transform="matrix(1 0 0 1 2279.5 1126)">
   <path d="M 60.498 16.5039 C 88.8672 16.5039 112.207 -6.78711 112.207 -35.2051 C 112.207 -63.623 88.8672 -86.9629 60.4492 -86.9629 C 32.0312 -86.9629 8.74023 -63.623 8.74023 -35.2051 C 8.74023 -6.78711 32.0801 16.5039 60.498 16.5039 Z M 48.291 -57.373 C 54.1016 -57.373 58.2031 -54.0039 60.498 -50.0977 C 62.7441 -54.0039 66.8945 -57.373 72.7051 -57.373 C 80.957 -57.373 87.5 -50.9766 87.5 -41.5039 C 87.5 -25.7324 69.5801 -13.6719 63.5254 -10.0098 C 62.5977 -9.47266 61.4258 -8.74023 60.5469 -8.74023 C 59.6191 -8.74023 58.3496 -9.47266 57.4219 -10.0098 C 51.416 -13.6719 33.4961 -25.7324 33.4961 -41.5039 C 33.4961 -50.9766 39.9902 -57.373 48.291 -57.373 Z"/>
  </g>
  <g id="Semibold-M" transform="matrix(1 0 0 1 1983.5 1126)">
   <path d="M 59.7656 15.8203 C 87.7441 15.8203 110.791 -7.22656 110.791 -35.2051 C 110.791 -63.1836 87.6953 -86.2793 59.7656 -86.2793 C 31.7871 -86.2793 8.74023 -63.1836 8.74023 -35.2051 C 8.74023 -7.22656 31.7871 15.8203 59.7656 15.8203 Z M 47.6562 -57.2266 C 53.3203 -57.2266 57.4219 -54.0039 59.7656 -49.8535 C 62.1094 -54.0039 66.3086 -57.2266 71.875 -57.2266 C 80.2246 -57.2266 86.5723 -50.8301 86.5723 -41.6504 C 86.5723 -26.8555 70.1172 -14.7949 62.5977 -10.1074 C 61.7676 -9.57031 60.6445 -8.88672 59.8633 -8.88672 C 59.0332 -8.88672 57.8613 -9.57031 56.9336 -10.1074 C 49.4141 -14.7949 32.959 -26.8555 32.959 -41.6504 C 32.959 -50.8301 39.3555 -57.2266 47.6562 -57.2266 Z"/>
  </g>
  <g id="Medium-M" transform="matrix(1 0 0 1 1687.3 1126)">
   <path d="M 59.2285 15.2832 C 86.9141 15.2832 109.766 -7.56836 109.766 -35.2051 C 109.766 -62.8906 86.8652 -85.7422 59.1797 -85.7422 C 31.543 -85.7422 8.74023 -62.8906 8.74023 -35.2051 C 8.74023 -7.56836 31.5918 15.2832 59.2285 15.2832 Z M 47.2168 -57.1777 C 52.6855 -57.1777 56.8359 -54.0039 59.2285 -49.707 C 61.6211 -54.0039 65.8203 -57.1777 71.2891 -57.1777 C 79.6387 -57.1777 85.8887 -50.7812 85.8887 -41.748 C 85.8887 -27.6855 70.5566 -15.6738 61.9141 -10.2051 C 61.084 -9.66797 60.0586 -8.98438 59.3262 -8.98438 C 58.5938 -8.98438 57.4707 -9.66797 56.5918 -10.2051 C 47.9004 -15.6738 32.6172 -27.6855 32.6172 -41.748 C 32.6172 -50.7812 38.8184 -57.1777 47.2168 -57.1777 Z"/>
  </g>
  <g id="Regular-M" transform="matrix(1 0 0 1 1391.3 1126)">
   <path d="M 58.5449 14.5508 C 85.791 14.5508 108.35 -8.00781 108.35 -35.2539 C 108.35 -62.4512 85.7422 -85.0586 58.4961 -85.0586 C 31.2988 -85.0586 8.74023 -62.4512 8.74023 -35.2539 C 8.74023 -8.00781 31.3477 14.5508 58.5449 14.5508 Z M 46.6309 -57.0312 C 51.9531 -57.0312 56.1035 -54.0039 58.5449 -49.4629 C 61.0352 -54.0039 65.2344 -57.0312 70.459 -57.0312 C 78.9062 -57.0312 84.9609 -50.6836 84.9609 -41.8945 C 84.9609 -28.8086 71.1426 -16.7969 60.9863 -10.3027 C 60.2539 -9.81445 59.2773 -9.13086 58.6426 -9.13086 C 58.0078 -9.13086 56.9336 -9.81445 56.1035 -10.3027 C 45.9473 -16.7969 32.1289 -28.8086 32.1289 -41.8945 C 32.1289 -50.6836 38.1836 -57.0312 46.6309 -57.0312 Z"/>
  </g>
  <g id="Light-M" transform="matrix(1 0 0 1 1095.42 1126)">
   <path d="M 57.7148 13.7695 C 84.5215 13.7695 106.689 -8.39844 106.689 -35.2051 C 106.689 -62.0117 84.5215 -84.1797 57.666 -84.1797 C 30.8594 -84.1797 8.74023 -62.0117 8.74023 -35.2051 C 8.74023 -8.39844 30.9082 13.7695 57.7148 13.7695 Z M 45.5078 -57.5195 C 50.9277 -57.5195 55.2734 -54.248 57.7148 -49.8535 C 60.1562 -54.248 64.5508 -57.5195 69.9219 -57.5195 C 78.418 -57.5195 84.6191 -51.0742 84.6191 -42.2852 C 84.6191 -28.3691 69.5801 -15.9668 59.8633 -9.76562 C 59.1797 -9.32617 58.3496 -8.78906 57.7637 -8.78906 C 57.2266 -8.78906 56.2988 -9.32617 55.5664 -9.76562 C 45.8496 -15.9668 30.8105 -28.3691 30.8105 -42.2852 C 30.8105 -51.0742 37.0117 -57.5195 45.5078 -57.5195 Z"/>
  </g>
  <g id="Thin-M" transform="matrix(1 0 0 1 799.806 1126)">
   <path d="M 56.6406 12.7441 C 82.9102 12.7441 104.492 -8.83789 104.492 -35.1562 C 104.492 -61.4746 82.9102 -83.0566 56.5918 -83.0566 C 30.3223 -83.0566 8.74023 -61.4746 8.74023 -35.1562 C 8.74023 -8.83789 30.3223 12.7441 56.6406 12.7441 Z M 44.0918 -58.1543 C 49.6094 -58.1543 54.248 -54.5898 56.6406 -50.3418 C 59.0332 -54.5898 63.6719 -58.1543 69.1895 -58.1543 C 77.7832 -58.1543 84.1309 -51.6113 84.1309 -42.8223 C 84.1309 -27.7832 67.4805 -14.8926 58.3984 -9.0332 C 57.8125 -8.64258 57.1289 -8.25195 56.6406 -8.25195 C 56.1523 -8.25195 55.4688 -8.64258 54.834 -9.0332 C 45.752 -14.8926 29.1016 -27.7832 29.1016 -42.8223 C 29.1016 -51.6113 35.4492 -58.1543 44.0918 -58.1543 Z"/>
  </g>
  <g id="Ultralight-M" transform="matrix(1 0 0 1 503.656 1126)">
   <path d="M 56.0547 12.207 C 82.0801 12.207 103.369 -9.08203 103.369 -35.1562 C 103.369 -61.1816 82.0801 -82.4707 56.0547 -82.4707 C 30.0293 -82.4707 8.74023 -61.1816 8.74023 -35.1562 C 8.74023 -9.08203 30.0293 12.207 56.0547 12.207 Z M 43.3105 -58.4961 C 48.9258 -58.4961 53.7109 -54.7852 56.0547 -50.6348 C 58.4473 -54.7852 63.2324 -58.4961 68.7988 -58.4961 C 77.4414 -58.4961 83.8867 -51.8555 83.8867 -43.0664 C 83.8867 -27.4902 66.4062 -14.3555 57.666 -8.69141 C 57.1289 -8.30078 56.4941 -8.00781 56.0547 -8.00781 C 55.6152 -8.00781 55.0293 -8.30078 54.4434 -8.69141 C 45.7031 -14.3555 28.2227 -27.4902 28.2227 -43.0664 C 28.2227 -51.8555 34.668 -58.4961 43.3105 -58.4961 Z"/>
  </g>
  <g id="Black-S" transform="matrix(1 0 0 1 2884.57 696)">
   <path d="M 48.8281 6.78711 C 71.9727 6.78711 90.8203 -12.0605 90.8203 -35.2051 C 90.8203 -58.3496 71.9727 -77.1973 48.8281 -77.1973 C 25.6836 -77.1973 6.83594 -58.3496 6.83594 -35.2051 C 6.83594 -12.0605 25.6836 6.78711 48.8281 6.78711 Z M 39.0625 -52.832 C 43.9941 -52.832 47.2168 -49.9512 48.8281 -47.3145 C 50.4395 -49.9512 53.6621 -52.832 58.5938 -52.832 C 64.9902 -52.832 70.4102 -47.7539 70.4102 -39.8926 C 70.4102 -25.5371 53.3203 -16.0645 51.6602 -15.2344 C 50.8301 -14.7949 49.7559 -14.209 48.8281 -14.209 C 47.9004 -14.209 46.7773 -14.7949 45.9961 -15.2344 C 44.3359 -16.0645 27.2461 -25.5371 27.2461 -39.8926 C 27.2461 -47.7539 32.666 -52.832 39.0625 -52.832 Z"/>
  </g>
  <g id="Heavy-S" transform="matrix(1 0 0 1 2588.47 696)">
   <path d="M 48.2422 6.15234 C 70.9961 6.15234 89.5996 -12.4512 89.5996 -35.2051 C 89.5996 -57.959 70.9961 -76.6113 48.1934 -76.6113 C 25.4395 -76.6113 6.83594 -57.959 6.83594 -35.2051 C 6.83594 -12.4512 25.4395 6.15234 48.2422 6.15234 Z M 38.5742 -52.6367 C 43.3105 -52.6367 46.5332 -49.9023 48.2422 -47.0703 C 49.9023 -49.9023 53.125 -52.6367 57.8613 -52.6367 C 64.3066 -52.6367 69.5312 -47.6074 69.5312 -39.9902 C 69.5312 -26.709 54.0527 -17.2852 50.8789 -15.4297 C 50.0977 -14.9902 49.0723 -14.4043 48.2422 -14.4043 C 47.4121 -14.4043 46.3379 -14.9902 45.5566 -15.4297 C 42.3828 -17.2852 26.9043 -26.709 26.9043 -39.9902 C 26.9043 -47.6074 32.1289 -52.6367 38.5742 -52.6367 Z"/>
  </g>
  <g id="Bold-S" transform="matrix(1 0 0 1 2292.44 696)">
   <path d="M 47.5586 5.46875 C 69.873 5.46875 88.2324 -12.8906 88.2324 -35.2051 C 88.2324 -57.5684 69.873 -75.9277 47.5098 -75.9277 C 25.1953 -75.9277 6.83594 -57.5684 6.83594 -35.2051 C 6.83594 -12.8906 25.1953 5.46875 47.5586 5.46875 Z M 38.0371 -52.4414 C 42.5781 -52.4414 45.752 -49.8535 47.5586 -46.7773 C 49.3164 -49.8535 52.5391 -52.4414 57.0312 -52.4414 C 63.5254 -52.4414 68.5547 -47.4609 68.5547 -40.0879 C 68.5547 -27.9785 54.9316 -18.6035 50 -15.625 C 49.2676 -15.1855 48.3398 -14.5996 47.6074 -14.5996 C 46.875 -14.5996 45.8496 -15.1855 45.1172 -15.625 C 40.1855 -18.6035 26.5137 -27.9785 26.5137 -40.0879 C 26.5137 -47.4609 31.5918 -52.4414 38.0371 -52.4414 Z"/>
  </g>
  <g id="Semibold-S" transform="matrix(1 0 0 1 1996.2 696)">
   <path d="M 47.0703 4.98047 C 69.0918 4.98047 87.3047 -13.1836 87.3047 -35.2539 C 87.3047 -57.2754 69.0918 -75.4883 47.0215 -75.4883 C 25 -75.4883 6.83594 -57.2754 6.83594 -35.2539 C 6.83594 -13.1836 25.0488 4.98047 47.0703 4.98047 Z M 37.6953 -52.2949 C 42.041 -52.2949 45.2148 -49.8535 47.0703 -46.5332 C 48.9258 -49.8535 52.1484 -52.2949 56.4453 -52.2949 C 62.9883 -52.2949 67.9199 -47.3145 67.9199 -40.1367 C 67.9199 -28.8574 55.4688 -19.5312 49.3652 -15.7227 C 48.6816 -15.332 47.8027 -14.7461 47.1191 -14.7461 C 46.4844 -14.7461 45.5078 -15.332 44.7754 -15.7227 C 38.6719 -19.5312 26.2207 -28.8574 26.2207 -40.1367 C 26.2207 -47.3145 31.1523 -52.2949 37.6953 -52.2949 Z"/>
  </g>
  <g id="Medium-S" transform="matrix(1 0 0 1 1699.83 696)">
   <path d="M 46.7285 4.63867 C 68.5547 4.63867 86.6211 -13.4277 86.6211 -35.2539 C 86.6211 -57.0312 68.5059 -75.1465 46.6797 -75.1465 C 24.8535 -75.1465 6.83594 -57.0312 6.83594 -35.2539 C 6.83594 -13.4277 24.9023 4.63867 46.7285 4.63867 Z M 37.4023 -52.1973 C 41.6504 -52.1973 44.8242 -49.8047 46.7285 -46.3867 C 48.584 -49.8047 51.8066 -52.1973 56.0547 -52.1973 C 62.5488 -52.1973 67.3828 -47.2656 67.3828 -40.1855 C 67.3828 -29.541 55.9082 -20.2637 48.9258 -15.8691 C 48.2422 -15.4297 47.4121 -14.8438 46.7773 -14.8438 C 46.1914 -14.8438 45.2637 -15.4297 44.5312 -15.8691 C 37.5 -20.2637 26.0254 -29.541 26.0254 -40.1855 C 26.0254 -47.2656 30.8594 -52.1973 37.4023 -52.1973 Z"/>
  </g>
  <g id="Regular-S" transform="matrix(1 0 0 1 1403.58 696)">
   <path d="M 46.2402 4.15039 C 67.7734 4.15039 85.6934 -13.7207 85.6934 -35.2539 C 85.6934 -56.7871 67.7246 -74.6582 46.1914 -74.6582 C 24.707 -74.6582 6.83594 -56.7871 6.83594 -35.2539 C 6.83594 -13.7207 24.7559 4.15039 46.2402 4.15039 Z M 37.0605 -52.0996 C 41.1621 -52.0996 44.2871 -49.8047 46.2402 -46.1914 C 48.1934 -49.8047 51.416 -52.0996 55.4688 -52.0996 C 62.0117 -52.0996 66.748 -47.1191 66.748 -40.2344 C 66.748 -30.4199 56.4941 -21.1426 48.291 -15.9668 C 47.7051 -15.5273 46.875 -14.9902 46.3379 -14.9902 C 45.8008 -14.9902 44.9219 -15.5273 44.1895 -15.9668 C 36.0352 -21.1426 25.7812 -30.4199 25.7812 -40.2344 C 25.7812 -47.1191 30.4688 -52.0996 37.0605 -52.0996 Z"/>
  </g>
  <g id="Light-S" transform="matrix(1 0 0 1 1107.6 696)">
   <path d="M 45.5078 3.4668 C 66.6992 3.4668 84.2285 -14.0625 84.2285 -35.2051 C 84.2285 -56.3965 66.6504 -73.9258 45.5078 -73.9258 C 24.3164 -73.9258 6.83594 -56.3965 6.83594 -35.2051 C 6.83594 -14.0625 24.3652 3.4668 45.5078 3.4668 Z M 36.084 -52.4902 C 40.2832 -52.4902 43.6035 -50.0488 45.5078 -46.5332 C 47.4609 -50.0488 50.8301 -52.4902 54.9805 -52.4902 C 61.6211 -52.4902 66.4062 -47.4609 66.4062 -40.5762 C 66.4062 -30.0293 55.0781 -20.459 47.3145 -15.4785 C 46.7773 -15.0879 46.0449 -14.6484 45.6055 -14.6484 C 45.1172 -14.6484 44.3359 -15.0879 43.7012 -15.4785 C 35.9375 -20.459 24.6094 -30.0293 24.6094 -40.5762 C 24.6094 -47.4609 29.4434 -52.4902 36.084 -52.4902 Z"/>
  </g>
  <g id="Thin-S" transform="matrix(1 0 0 1 811.867 696)">
   <path d="M 44.5801 2.53906 C 65.2832 2.53906 82.2754 -14.4531 82.2754 -35.2051 C 82.2754 -55.9082 65.2344 -72.9004 44.5312 -72.9004 C 23.8281 -72.9004 6.83594 -55.9082 6.83594 -35.2051 C 6.83594 -14.4531 23.877 2.53906 44.5801 2.53906 Z M 34.8145 -53.0762 C 39.1113 -53.0762 42.6758 -50.3418 44.5801 -46.9727 C 46.4355 -50.3418 50.0488 -53.0762 54.3457 -53.0762 C 61.0352 -53.0762 66.0156 -47.9492 66.0156 -41.0645 C 66.0156 -29.541 53.2715 -19.4824 46.0449 -14.8438 C 45.5566 -14.5508 44.9707 -14.209 44.5801 -14.209 C 44.1895 -14.209 43.6035 -14.5508 43.0664 -14.8438 C 35.8398 -19.4824 23.1445 -29.541 23.1445 -41.0645 C 23.1445 -47.9492 28.0762 -53.0762 34.8145 -53.0762 Z"/>
  </g>
  <g id="Ultralight-S" transform="matrix(1 0 0 1 515.644 696)">
   <path d="M 44.043 2.05078 C 64.502 2.05078 81.2988 -14.6973 81.2988 -35.1562 C 81.2988 -55.6152 64.502 -72.3633 44.043 -72.3633 C 23.584 -72.3633 6.83594 -55.6152 6.83594 -35.1562 C 6.83594 -14.6973 23.584 2.05078 44.043 2.05078 Z M 34.1309 -53.3691 C 38.5254 -53.3691 42.1875 -50.4883 44.043 -47.2168 C 45.8984 -50.4883 49.6582 -53.3691 54.0039 -53.3691 C 60.7422 -53.3691 65.7715 -48.1934 65.7715 -41.3086 C 65.7715 -29.248 52.2949 -18.9941 45.3613 -14.5508 C 44.9219 -14.209 44.4336 -13.9648 44.043 -13.9648 C 43.7012 -13.9648 43.2129 -14.209 42.7734 -14.5508 C 35.791 -18.9941 22.3633 -29.248 22.3633 -41.3086 C 22.3633 -48.1934 27.3438 -53.3691 34.1309 -53.3691 Z"/>
  </g>
 </g>
</svg>
