<?xml version="1.0" encoding="UTF-8"?>
<!--Generator: Apple Native CoreSVG 123-->
<!DOCTYPE svg
PUBLIC "-//W3C//DTD SVG 1.1//EN"
       "http://www.w3.org/Graphics/SVG/1.1/DTD/svg11.dtd">
<svg version="1.1" xmlns="http://www.w3.org/2000/svg" xmlns:xlink="http://www.w3.org/1999/xlink" width="3300" height="2200">
 <!--glyph: "uni1002DB.medium", point size: 100.000000, font version: "Version 15.0d7e11", template writer version: "5"-->
 <g id="Notes">
  <rect height="2200" id="artboard" style="fill:white;opacity:1" width="3300" x="0" y="0"/>
  <line id="" style="fill:none;stroke:black;opacity:1;stroke-width:0.5;" x1="263" x2="3036" y1="292" y2="292"/>
  <text style="stroke:none;fill:black;font-family:-apple-system,&quot;SF Pro Display&quot;,&quot;SF Pro Text&quot;,Helvetica,sans-serif;font-weight:bold;" transform="matrix(1 0 0 1 263 322)">Weight/Scale Variations</text>
  <text style="stroke:none;fill:black;font-family:-apple-system,&quot;SF Pro Display&quot;,&quot;SF Pro Text&quot;,Helvetica,sans-serif;text-anchor:middle;" transform="matrix(1 0 0 1 559.711 322)">Ultralight</text>
  <text style="stroke:none;fill:black;font-family:-apple-system,&quot;SF Pro Display&quot;,&quot;SF Pro Text&quot;,Helvetica,sans-serif;text-anchor:middle;" transform="matrix(1 0 0 1 856.422 322)">Thin</text>
  <text style="stroke:none;fill:black;font-family:-apple-system,&quot;SF Pro Display&quot;,&quot;SF Pro Text&quot;,Helvetica,sans-serif;text-anchor:middle;" transform="matrix(1 0 0 1 1153.13 322)">Light</text>
  <text style="stroke:none;fill:black;font-family:-apple-system,&quot;SF Pro Display&quot;,&quot;SF Pro Text&quot;,Helvetica,sans-serif;text-anchor:middle;" transform="matrix(1 0 0 1 1449.84 322)">Regular</text>
  <text style="stroke:none;fill:black;font-family:-apple-system,&quot;SF Pro Display&quot;,&quot;SF Pro Text&quot;,Helvetica,sans-serif;text-anchor:middle;" transform="matrix(1 0 0 1 1746.56 322)">Medium</text>
  <text style="stroke:none;fill:black;font-family:-apple-system,&quot;SF Pro Display&quot;,&quot;SF Pro Text&quot;,Helvetica,sans-serif;text-anchor:middle;" transform="matrix(1 0 0 1 2043.27 322)">Semibold</text>
  <text style="stroke:none;fill:black;font-family:-apple-system,&quot;SF Pro Display&quot;,&quot;SF Pro Text&quot;,Helvetica,sans-serif;text-anchor:middle;" transform="matrix(1 0 0 1 2339.98 322)">Bold</text>
  <text style="stroke:none;fill:black;font-family:-apple-system,&quot;SF Pro Display&quot;,&quot;SF Pro Text&quot;,Helvetica,sans-serif;text-anchor:middle;" transform="matrix(1 0 0 1 2636.69 322)">Heavy</text>
  <text style="stroke:none;fill:black;font-family:-apple-system,&quot;SF Pro Display&quot;,&quot;SF Pro Text&quot;,Helvetica,sans-serif;text-anchor:middle;" transform="matrix(1 0 0 1 2933.4 322)">Black</text>
  <line id="" style="fill:none;stroke:black;opacity:1;stroke-width:0.5;" x1="263" x2="3036" y1="1903" y2="1903"/>
  <g id="" transform="matrix(1 0 0 1 263 1933)">
   <path d="M 9.24805 0.830078 C 13.5547 0.830078 17.1387 -2.74414 17.1387 -7.05078 C 17.1387 -11.3574 13.5449 -14.9316 9.23828 -14.9316 C 4.94141 -14.9316 1.36719 -11.3574 1.36719 -7.05078 C 1.36719 -2.74414 4.95117 0.830078 9.24805 0.830078 Z M 9.24805 -0.654297 C 5.70312 -0.654297 2.87109 -3.49609 2.87109 -7.05078 C 2.87109 -10.6055 5.69336 -13.4473 9.23828 -13.4473 C 12.793 -13.4473 15.6348 -10.6055 15.6445 -7.05078 C 15.6543 -3.49609 12.8027 -0.654297 9.24805 -0.654297 Z M 9.22852 -3.42773 C 9.69727 -3.42773 9.9707 -3.74023 9.9707 -4.25781 L 9.9707 -6.31836 L 12.1973 -6.31836 C 12.6953 -6.31836 13.0371 -6.57227 13.0371 -7.04102 C 13.0371 -7.51953 12.7148 -7.7832 12.1973 -7.7832 L 9.9707 -7.7832 L 9.9707 -10.0098 C 9.9707 -10.5273 9.69727 -10.8496 9.22852 -10.8496 C 8.75977 -10.8496 8.50586 -10.5078 8.50586 -10.0098 L 8.50586 -7.7832 L 6.29883 -7.7832 C 5.78125 -7.7832 5.44922 -7.51953 5.44922 -7.04102 C 5.44922 -6.57227 5.80078 -6.31836 6.29883 -6.31836 L 8.50586 -6.31836 L 8.50586 -4.25781 C 8.50586 -3.75977 8.75977 -3.42773 9.22852 -3.42773 Z"/>
  </g>
  <g id="" transform="matrix(1 0 0 1 281.506 1933)">
   <path d="M 11.709 2.91016 C 17.1582 2.91016 21.6699 -1.60156 21.6699 -7.05078 C 21.6699 -12.4902 17.1484 -17.0117 11.6992 -17.0117 C 6.25977 -17.0117 1.74805 -12.4902 1.74805 -7.05078 C 1.74805 -1.60156 6.26953 2.91016 11.709 2.91016 Z M 11.709 1.25 C 7.09961 1.25 3.41797 -2.44141 3.41797 -7.05078 C 3.41797 -11.6504 7.08984 -15.3516 11.6992 -15.3516 C 16.3086 -15.3516 20 -11.6504 20.0098 -7.05078 C 20.0195 -2.44141 16.3184 1.25 11.709 1.25 Z M 11.6895 -2.41211 C 12.207 -2.41211 12.5195 -2.77344 12.5195 -3.33984 L 12.5195 -6.23047 L 15.5762 -6.23047 C 16.123 -6.23047 16.5039 -6.51367 16.5039 -7.03125 C 16.5039 -7.55859 16.1426 -7.86133 15.5762 -7.86133 L 12.5195 -7.86133 L 12.5195 -10.9277 C 12.5195 -11.5039 12.207 -11.8555 11.6895 -11.8555 C 11.1719 -11.8555 10.8789 -11.4844 10.8789 -10.9277 L 10.8789 -7.86133 L 7.83203 -7.86133 C 7.26562 -7.86133 6.89453 -7.55859 6.89453 -7.03125 C 6.89453 -6.51367 7.28516 -6.23047 7.83203 -6.23047 L 10.8789 -6.23047 L 10.8789 -3.33984 C 10.8789 -2.79297 11.1719 -2.41211 11.6895 -2.41211 Z"/>
  </g>
  <g id="" transform="matrix(1 0 0 1 304.924 1933)">
   <path d="M 14.9707 5.67383 C 21.9336 5.67383 27.6953 -0.078125 27.6953 -7.04102 C 27.6953 -14.0039 21.9238 -19.7559 14.9609 -19.7559 C 8.00781 -19.7559 2.25586 -14.0039 2.25586 -7.04102 C 2.25586 -0.078125 8.01758 5.67383 14.9707 5.67383 Z M 14.9707 3.85742 C 8.93555 3.85742 4.08203 -1.00586 4.08203 -7.04102 C 4.08203 -13.0762 8.92578 -17.9395 14.9609 -17.9395 C 21.0059 -17.9395 25.8594 -13.0762 25.8691 -7.04102 C 25.8789 -1.00586 21.0156 3.85742 14.9707 3.85742 Z M 14.9512 -1.06445 C 15.5176 -1.06445 15.8691 -1.45508 15.8691 -2.06055 L 15.8691 -6.13281 L 20.1074 -6.13281 C 20.6934 -6.13281 21.1133 -6.46484 21.1133 -7.02148 C 21.1133 -7.59766 20.7227 -7.93945 20.1074 -7.93945 L 15.8691 -7.93945 L 15.8691 -12.1875 C 15.8691 -12.8027 15.5176 -13.1934 14.9512 -13.1934 C 14.3848 -13.1934 14.0625 -12.7832 14.0625 -12.1875 L 14.0625 -7.93945 L 9.83398 -7.93945 C 9.21875 -7.93945 8.80859 -7.59766 8.80859 -7.02148 C 8.80859 -6.46484 9.23828 -6.13281 9.83398 -6.13281 L 14.0625 -6.13281 L 14.0625 -2.06055 C 14.0625 -1.47461 14.3848 -1.06445 14.9512 -1.06445 Z"/>
  </g>
  <text style="stroke:none;fill:black;font-family:-apple-system,&quot;SF Pro Display&quot;,&quot;SF Pro Text&quot;,Helvetica,sans-serif;font-weight:bold;" transform="matrix(1 0 0 1 263 1953)">Design Variations</text>
  <text style="stroke:none;fill:black;font-family:-apple-system,&quot;SF Pro Display&quot;,&quot;SF Pro Text&quot;,Helvetica,sans-serif;" transform="matrix(1 0 0 1 263 1971)">Symbols are supported in up to nine weights and three scales.</text>
  <text style="stroke:none;fill:black;font-family:-apple-system,&quot;SF Pro Display&quot;,&quot;SF Pro Text&quot;,Helvetica,sans-serif;" transform="matrix(1 0 0 1 263 1989)">For optimal layout with text and other symbols, vertically align</text>
  <text style="stroke:none;fill:black;font-family:-apple-system,&quot;SF Pro Display&quot;,&quot;SF Pro Text&quot;,Helvetica,sans-serif;" transform="matrix(1 0 0 1 263 2007)">symbols with the adjacent text.</text>
  <rect height="14" id="" style="fill:#00AEEF;stroke:none;opacity:0.4;" width="3" x="776" y="1919"/>
  <g id="" transform="matrix(1 0 0 1 779 1933)">
   <path d="M 10.5273 0 L 12.373 0 L 7.17773 -14.0918 L 5.43945 -14.0918 L 0.244141 0 L 2.08984 0 L 3.50586 -4.0332 L 9.11133 -4.0332 Z M 6.2793 -11.9531 L 6.33789 -11.9531 L 8.59375 -5.52734 L 4.02344 -5.52734 Z"/>
  </g>
  <rect height="14" id="" style="fill:#00AEEF;stroke:none;opacity:0.4;" width="3" x="791.617" y="1919"/>
  <text style="stroke:none;fill:black;font-family:-apple-system,&quot;SF Pro Display&quot;,&quot;SF Pro Text&quot;,Helvetica,sans-serif;font-weight:bold;" transform="matrix(1 0 0 1 776 1953)">Margins</text>
  <text style="stroke:none;fill:black;font-family:-apple-system,&quot;SF Pro Display&quot;,&quot;SF Pro Text&quot;,Helvetica,sans-serif;" transform="matrix(1 0 0 1 776 1971)">Leading and trailing margins on the left and right side of each symbol</text>
  <text style="stroke:none;fill:black;font-family:-apple-system,&quot;SF Pro Display&quot;,&quot;SF Pro Text&quot;,Helvetica,sans-serif;" transform="matrix(1 0 0 1 776 1989)">can be adjusted by modifying the width of the blue rectangles.</text>
  <text style="stroke:none;fill:black;font-family:-apple-system,&quot;SF Pro Display&quot;,&quot;SF Pro Text&quot;,Helvetica,sans-serif;" transform="matrix(1 0 0 1 776 2007)">Modifications are automatically applied proportionally to all</text>
  <text style="stroke:none;fill:black;font-family:-apple-system,&quot;SF Pro Display&quot;,&quot;SF Pro Text&quot;,Helvetica,sans-serif;" transform="matrix(1 0 0 1 776 2025)">scales and weights.</text>
  <g id="" transform="matrix(1 0 0 1 1289 1933)">
   <path d="M 2.83203 3.11523 L 4.375 4.6582 C 5.22461 5.48828 6.19141 5.41992 7.06055 4.46289 L 17.2754 -6.66016 C 17.7051 -6.36719 18.0957 -6.37695 18.5645 -6.47461 L 19.6094 -6.68945 L 20.3027 -5.99609 L 20.2539 -5.47852 C 20.1855 -4.95117 20.3516 -4.53125 20.8496 -4.0332 L 21.6602 -3.22266 C 22.168 -2.71484 22.8223 -2.68555 23.3008 -3.16406 L 26.5527 -6.41602 C 27.0312 -6.89453 27.0117 -7.54883 26.5039 -8.05664 L 25.6836 -8.87695 C 25.1855 -9.375 24.7754 -9.55078 24.2383 -9.47266 L 23.7109 -9.41406 L 23.0566 -10.0781 L 23.3398 -11.2207 C 23.4863 -11.7871 23.3398 -12.2559 22.7148 -12.8613 L 20.3027 -15.2539 C 16.7578 -18.7793 12.2266 -18.6719 9.11133 -15.5371 C 8.69141 -15.1074 8.64258 -14.5215 8.91602 -14.0918 C 9.15039 -13.7207 9.62891 -13.4961 10.2734 -13.6621 C 11.7871 -14.043 13.3008 -13.9258 14.7852 -12.9199 L 14.1602 -11.3379 C 13.9258 -10.752 13.9453 -10.2734 14.1797 -9.83398 L 3.01758 0.439453 C 2.08008 1.30859 1.97266 2.25586 2.83203 3.11523 Z M 10.6738 -15.1465 C 13.3398 -17.1387 16.6504 -16.8262 19.0527 -14.4141 L 21.6797 -11.8066 C 21.9141 -11.5723 21.9434 -11.3867 21.8848 -11.0938 L 21.5039 -9.53125 L 23.0762 -7.95898 L 24.043 -8.04688 C 24.3262 -8.07617 24.4141 -8.05664 24.6387 -7.83203 L 25.2637 -7.20703 L 22.5098 -4.46289 L 21.8848 -5.07812 C 21.6602 -5.30273 21.6406 -5.40039 21.6699 -5.68359 L 21.7578 -6.64062 L 20.1953 -8.20312 L 18.5742 -7.89062 C 18.291 -7.83203 18.1445 -7.83203 17.9102 -8.07617 L 15.7324 -10.2539 C 15.5078 -10.4883 15.4785 -10.625 15.6055 -10.9473 L 16.5527 -13.2227 C 14.9512 -14.7559 12.8418 -15.6055 10.8008 -14.9512 C 10.7129 -14.9219 10.6445 -14.9414 10.6152 -14.9805 C 10.5859 -15.0293 10.5859 -15.0781 10.6738 -15.1465 Z M 4.10156 2.41211 C 3.61328 1.91406 3.78906 1.61133 4.12109 1.30859 L 15.0781 -8.80859 L 16.3086 -7.57812 L 6.15234 3.34961 C 5.84961 3.68164 5.46875 3.7793 5.06836 3.37891 Z"/>
  </g>
  <text style="stroke:none;fill:black;font-family:-apple-system,&quot;SF Pro Display&quot;,&quot;SF Pro Text&quot;,Helvetica,sans-serif;font-weight:bold;" transform="matrix(1 0 0 1 1289 1953)">Exporting</text>
  <text style="stroke:none;fill:black;font-family:-apple-system,&quot;SF Pro Display&quot;,&quot;SF Pro Text&quot;,Helvetica,sans-serif;" transform="matrix(1 0 0 1 1289 1971)">Symbols should be outlined when exporting to ensure the</text>
  <text style="stroke:none;fill:black;font-family:-apple-system,&quot;SF Pro Display&quot;,&quot;SF Pro Text&quot;,Helvetica,sans-serif;" transform="matrix(1 0 0 1 1289 1989)">design is preserved when submitting to Xcode.</text>
  <text id="template-version" style="stroke:none;fill:black;font-family:-apple-system,&quot;SF Pro Display&quot;,&quot;SF Pro Text&quot;,Helvetica,sans-serif;text-anchor:end;" transform="matrix(1 0 0 1 3036 1933)">Template v.1.0</text>
  <text style="stroke:none;fill:black;font-family:-apple-system,&quot;SF Pro Display&quot;,&quot;SF Pro Text&quot;,Helvetica,sans-serif;text-anchor:end;" transform="matrix(1 0 0 1 3036 1951)">Generated from bell.circle</text>
  <text style="stroke:none;fill:black;font-family:-apple-system,&quot;SF Pro Display&quot;,&quot;SF Pro Text&quot;,Helvetica,sans-serif;text-anchor:end;" transform="matrix(1 0 0 1 3036 1969)">Typeset at 100 points</text>
  <text style="stroke:none;fill:black;font-family:-apple-system,&quot;SF Pro Display&quot;,&quot;SF Pro Text&quot;,Helvetica,sans-serif;" transform="matrix(1 0 0 1 263 726)">Small</text>
  <text style="stroke:none;fill:black;font-family:-apple-system,&quot;SF Pro Display&quot;,&quot;SF Pro Text&quot;,Helvetica,sans-serif;" transform="matrix(1 0 0 1 263 1156)">Medium</text>
  <text style="stroke:none;fill:black;font-family:-apple-system,&quot;SF Pro Display&quot;,&quot;SF Pro Text&quot;,Helvetica,sans-serif;" transform="matrix(1 0 0 1 263 1586)">Large</text>
 </g>
 <g id="Guides">
  <g id="H-reference" style="fill:#27AAE1;stroke:none;" transform="matrix(1 0 0 1 339 696)">
   <path d="M 54.9316 0 L 57.666 0 L 30.5664 -70.459 L 28.0762 -70.459 L 0.976562 0 L 3.66211 0 L 12.9395 -24.4629 L 45.7031 -24.4629 Z M 29.1992 -67.0898 L 29.4434 -67.0898 L 44.8242 -26.709 L 13.8184 -26.709 Z"/>
  </g>
  <line id="Baseline-S" style="fill:none;stroke:#27AAE1;opacity:1;stroke-width:0.577;" x1="263" x2="3036" y1="696" y2="696"/>
  <line id="Capline-S" style="fill:none;stroke:#27AAE1;opacity:1;stroke-width:0.577;" x1="263" x2="3036" y1="625.541" y2="625.541"/>
  <g id="H-reference" style="fill:#27AAE1;stroke:none;" transform="matrix(1 0 0 1 339 1126)">
   <path d="M 54.9316 0 L 57.666 0 L 30.5664 -70.459 L 28.0762 -70.459 L 0.976562 0 L 3.66211 0 L 12.9395 -24.4629 L 45.7031 -24.4629 Z M 29.1992 -67.0898 L 29.4434 -67.0898 L 44.8242 -26.709 L 13.8184 -26.709 Z"/>
  </g>
  <line id="Baseline-M" style="fill:none;stroke:#27AAE1;opacity:1;stroke-width:0.577;" x1="263" x2="3036" y1="1126" y2="1126"/>
  <line id="Capline-M" style="fill:none;stroke:#27AAE1;opacity:1;stroke-width:0.577;" x1="263" x2="3036" y1="1055.54" y2="1055.54"/>
  <g id="H-reference" style="fill:#27AAE1;stroke:none;" transform="matrix(1 0 0 1 339 1556)">
   <path d="M 54.9316 0 L 57.666 0 L 30.5664 -70.459 L 28.0762 -70.459 L 0.976562 0 L 3.66211 0 L 12.9395 -24.4629 L 45.7031 -24.4629 Z M 29.1992 -67.0898 L 29.4434 -67.0898 L 44.8242 -26.709 L 13.8184 -26.709 Z"/>
  </g>
  <line id="Baseline-L" style="fill:none;stroke:#27AAE1;opacity:1;stroke-width:0.577;" x1="263" x2="3036" y1="1556" y2="1556"/>
  <line id="Capline-L" style="fill:none;stroke:#27AAE1;opacity:1;stroke-width:0.577;" x1="263" x2="3036" y1="1485.54" y2="1485.54"/>
  <rect height="119.336" id="left-margin" style="fill:#00AEEF;stroke:none;opacity:0.4;" width="8.74023" x="1391.3" y="1030.79"/>
  <rect height="119.336" id="right-margin" style="fill:#00AEEF;stroke:none;opacity:0.4;" width="8.74023" x="1499.65" y="1030.79"/>
 </g>
 <g id="Symbols">
  <g id="Black-L" transform="matrix(1 0 0 1 2854.05 1556)">
   <path d="M 79.3457 32.8613 C 116.748 32.8613 147.412 2.19727 147.412 -35.2051 C 147.412 -72.6074 116.748 -103.271 79.2969 -103.271 C 41.8945 -103.271 11.2793 -72.6074 11.2793 -35.2051 C 11.2793 2.19727 41.9434 32.8613 79.3457 32.8613 Z M 79.3457 12.4023 C 52.9785 12.4023 31.7383 -8.83789 31.7383 -35.2051 C 31.7383 -61.5723 52.9297 -82.8125 79.2969 -82.8125 C 105.664 -82.8125 126.953 -61.5723 126.953 -35.2051 C 127.002 -8.83789 105.713 12.4023 79.3457 12.4023 Z M 54.0527 -15.625 L 104.59 -15.625 C 108.74 -15.625 111.426 -18.1641 111.426 -21.875 C 111.426 -25.7324 108.838 -28.6621 105.713 -31.1523 C 103.223 -33.0566 102.783 -37.4512 101.953 -42.8711 C 100.83 -53.1738 96.9238 -60.9375 89.3555 -63.7207 C 87.6953 -67.9688 84.082 -70.8008 79.3457 -70.8008 C 74.6094 -70.8008 70.9961 -67.9688 69.2871 -63.7207 C 61.7676 -60.9375 57.7148 -53.1738 56.7383 -42.8711 C 55.957 -37.4512 55.4688 -33.0566 52.9785 -31.1523 C 49.8535 -28.6133 47.2656 -25.7324 47.2656 -21.875 C 47.2656 -18.1641 49.9023 -15.625 54.0527 -15.625 Z M 79.3457 -0.537109 C 85.6445 -0.537109 90.2832 -4.83398 90.5762 -9.96094 L 68.0664 -9.96094 C 68.4082 -4.83398 73.0469 -0.537109 79.3457 -0.537109 Z"/>
  </g>
  <g id="Heavy-L" transform="matrix(1 0 0 1 2558.39 1556)">
   <path d="M 78.2715 31.7871 C 115.088 31.7871 145.312 1.61133 145.312 -35.2051 C 145.312 -72.0215 115.039 -102.197 78.2715 -102.197 C 41.4551 -102.197 11.2793 -72.0215 11.2793 -35.2051 C 11.2793 1.61133 41.5039 31.7871 78.2715 31.7871 Z M 78.2715 14.0137 C 51.0254 14.0137 29.0527 -7.95898 29.0527 -35.2051 C 29.0527 -62.5 50.9766 -84.4727 78.2715 -84.4727 C 105.518 -84.4727 127.49 -62.5 127.539 -35.2051 C 127.539 -7.95898 105.566 14.0137 78.2715 14.0137 Z M 52.0508 -14.9414 L 104.492 -14.9414 C 108.301 -14.9414 110.742 -17.2363 110.742 -20.6055 C 110.742 -24.4141 107.959 -27.3926 104.834 -30.0293 C 102.246 -32.2266 101.855 -37.0117 101.123 -42.4316 C 100.146 -53.2227 96.2891 -61.2793 88.3301 -64.1602 C 86.7188 -68.5059 83.1055 -71.5332 78.2715 -71.5332 C 73.4863 -71.5332 69.8242 -68.5059 68.2617 -64.1602 C 60.3027 -61.2793 56.3477 -53.2227 55.4688 -42.4316 C 54.7852 -37.0117 54.2969 -32.2266 51.7578 -30.0293 C 48.6328 -27.3438 45.8008 -24.4141 45.8008 -20.6055 C 45.8008 -17.2363 48.2422 -14.9414 52.0508 -14.9414 Z M 78.2715 -0.0976562 C 84.4727 -0.0976562 89.0137 -4.3457 89.4043 -9.52148 L 67.1875 -9.52148 C 67.5293 -4.3457 72.0703 -0.0976562 78.2715 -0.0976562 Z"/>
  </g>
  <g id="Bold-L" transform="matrix(1 0 0 1 2262.88 1556)">
   <path d="M 77.0996 30.6152 C 113.232 30.6152 142.92 0.878906 142.92 -35.2051 C 142.92 -71.3379 113.184 -101.025 77.0508 -101.025 C 40.9668 -101.025 11.2793 -71.3379 11.2793 -35.2051 C 11.2793 0.878906 41.0156 30.6152 77.0996 30.6152 Z M 77.0996 15.8691 C 48.8281 15.8691 26.0742 -6.93359 26.0742 -35.2051 C 26.0742 -63.4766 48.7793 -86.2793 77.0508 -86.2793 C 105.371 -86.2793 128.125 -63.4766 128.174 -35.2051 C 128.174 -6.93359 105.371 15.8691 77.0996 15.8691 Z M 49.8535 -14.1602 L 104.346 -14.1602 C 107.812 -14.1602 110.01 -16.2109 110.01 -19.1895 C 110.01 -22.9004 106.982 -25.9277 103.857 -28.8086 C 101.172 -31.2988 100.83 -36.5723 100.146 -41.8945 C 99.3652 -53.3203 95.5566 -61.6699 87.1094 -64.6484 C 85.6445 -69.1406 81.9824 -72.3633 77.0996 -72.3633 C 72.2168 -72.3633 68.5547 -69.1406 67.0898 -64.6484 C 58.6914 -61.6699 54.834 -53.3203 54.0527 -41.8945 C 53.418 -36.5723 53.0273 -31.2988 50.3906 -28.8086 C 47.3145 -25.9277 44.2383 -22.9004 44.2383 -19.1895 C 44.2383 -16.2109 46.3867 -14.1602 49.8535 -14.1602 Z M 77.0996 0.390625 C 83.2031 0.390625 87.6465 -3.75977 88.0859 -8.98438 L 66.1621 -8.98438 C 66.5527 -3.75977 70.9961 0.390625 77.0996 0.390625 Z"/>
  </g>
  <g id="Semibold-L" transform="matrix(1 0 0 1 1966.97 1556)">
   <path d="M 76.2695 29.7852 C 111.914 29.7852 141.309 0.439453 141.309 -35.2051 C 141.309 -70.8496 111.865 -100.244 76.2695 -100.244 C 40.625 -100.244 11.2793 -70.8496 11.2793 -35.2051 C 11.2793 0.439453 40.6738 29.7852 76.2695 29.7852 Z M 76.2695 17.0898 C 47.3145 17.0898 24.0234 -6.25 24.0234 -35.2051 C 24.0234 -64.209 47.2656 -87.5 76.2695 -87.5 C 105.225 -87.5 128.564 -64.209 128.613 -35.2051 C 128.662 -6.25 105.273 17.0898 76.2695 17.0898 Z M 48.291 -13.6719 L 104.297 -13.6719 C 107.471 -13.6719 109.473 -15.4785 109.473 -18.1641 C 109.473 -21.875 106.25 -24.9512 103.174 -27.9297 C 100.391 -30.6152 100.098 -36.2305 99.5117 -41.5039 C 98.7793 -53.3691 95.0195 -61.9141 86.2793 -64.9902 C 84.9121 -69.5801 81.25 -72.9492 76.2695 -72.9492 C 71.3379 -72.9492 67.6758 -69.5801 66.2598 -64.9902 C 57.5684 -61.9141 53.7598 -53.3691 53.0762 -41.5039 C 52.4902 -36.2305 52.0996 -30.6641 49.4141 -27.9297 C 46.3867 -24.9023 43.1152 -21.875 43.1152 -18.1641 C 43.1152 -15.4785 45.0684 -13.6719 48.291 -13.6719 Z M 76.2695 0.732422 C 82.3242 0.732422 86.7188 -3.41797 87.1582 -8.64258 L 65.4297 -8.64258 C 65.8691 -3.41797 70.2637 0.732422 76.2695 0.732422 Z"/>
  </g>
  <g id="Medium-L" transform="matrix(1 0 0 1 1670.87 1556)">
   <path d="M 75.6836 29.1992 C 110.938 29.1992 140.088 0.0488281 140.088 -35.2051 C 140.088 -70.459 110.889 -99.6094 75.6348 -99.6094 C 40.3809 -99.6094 11.2793 -70.459 11.2793 -35.2051 C 11.2793 0.0488281 40.3809 29.1992 75.6836 29.1992 Z M 75.6836 18.0664 C 46.1426 18.0664 22.4609 -5.71289 22.4609 -35.2051 C 22.4609 -64.6973 46.1426 -88.4766 75.6348 -88.4766 C 105.127 -88.4766 128.906 -64.6973 128.906 -35.2051 C 128.955 -5.71289 105.176 18.0664 75.6836 18.0664 Z M 47.1191 -13.2324 L 104.199 -13.2324 C 107.227 -13.2324 109.082 -14.9414 109.082 -17.4316 C 109.082 -21.0938 105.762 -24.2188 102.637 -27.2949 C 99.8535 -30.127 99.5605 -35.9375 98.9746 -41.2598 C 98.3887 -53.418 94.6289 -62.1582 85.6934 -65.2344 C 84.375 -69.9219 80.6641 -73.3398 75.6836 -73.3398 C 70.6543 -73.3398 66.9922 -69.9219 65.6738 -65.2344 C 56.6895 -62.1582 52.9785 -53.418 52.3438 -41.2598 C 51.8066 -35.9375 51.416 -30.127 48.7305 -27.2949 C 45.6543 -24.1699 42.2852 -21.0938 42.2852 -17.4316 C 42.2852 -14.9414 44.0918 -13.2324 47.1191 -13.2324 Z M 75.6836 1.02539 C 81.6406 1.02539 85.9863 -3.125 86.4746 -8.39844 L 64.8926 -8.39844 C 65.3809 -3.125 69.6777 1.02539 75.6836 1.02539 Z"/>
  </g>
  <g id="Regular-L" transform="matrix(1 0 0 1 1374.97 1556)">
   <path d="M 74.8535 28.3691 C 109.668 28.3691 138.477 -0.390625 138.477 -35.2051 C 138.477 -70.0195 109.619 -98.7793 74.8047 -98.7793 C 40.0391 -98.7793 11.2793 -70.0195 11.2793 -35.2051 C 11.2793 -0.390625 40.0879 28.3691 74.8535 28.3691 Z M 74.8535 19.2871 C 44.6777 19.2871 20.4102 -5.0293 20.4102 -35.2051 C 20.4102 -65.3809 44.6289 -89.6973 74.8047 -89.6973 C 105.029 -89.6973 129.297 -65.3809 129.346 -35.2051 C 129.395 -5.0293 105.078 19.2871 74.8535 19.2871 Z M 45.6055 -12.7441 L 104.102 -12.7441 C 106.885 -12.7441 108.545 -14.2578 108.545 -16.4551 C 108.545 -20.1172 105.078 -23.2422 101.953 -26.4648 C 99.1211 -29.4922 98.8281 -35.6445 98.3398 -40.8691 C 97.8516 -53.4668 94.1406 -62.4023 84.8633 -65.5762 C 83.6426 -70.3125 79.9316 -73.9258 74.8535 -73.9258 C 69.8242 -73.9258 66.1133 -70.3125 64.8926 -65.5762 C 55.6152 -62.4023 51.9043 -53.4668 51.416 -40.8691 C 50.8789 -35.6445 50.5371 -29.4922 47.7539 -26.4648 C 44.7754 -23.1934 41.1621 -20.1172 41.1621 -16.4551 C 41.1621 -14.2578 42.8223 -12.7441 45.6055 -12.7441 Z M 74.8535 1.36719 C 80.8105 1.36719 85.0586 -2.73438 85.5469 -8.05664 L 64.209 -8.05664 C 64.6973 -2.73438 68.9453 1.36719 74.8535 1.36719 Z"/>
  </g>
  <g id="Light-L" transform="matrix(1 0 0 1 1079.18 1556)">
   <path d="M 73.9258 27.4902 C 108.301 27.4902 136.621 -0.830078 136.621 -35.1562 C 136.621 -69.5312 108.252 -97.8516 73.9258 -97.8516 C 39.5508 -97.8516 11.2793 -69.5312 11.2793 -35.1562 C 11.2793 -0.830078 39.5996 27.4902 73.9258 27.4902 Z M 73.9258 20.6055 C 43.1152 20.6055 18.2129 -4.3457 18.2129 -35.1562 C 18.2129 -66.0156 43.0664 -90.918 73.9258 -90.918 C 104.736 -90.918 129.688 -66.0156 129.736 -35.1562 C 129.736 -4.3457 104.785 20.6055 73.9258 20.6055 Z M 43.3594 -11.8652 L 104.541 -11.8652 C 106.641 -11.8652 107.959 -13.0859 107.959 -14.8926 C 107.959 -18.6523 104.541 -21.8262 101.465 -25.0977 C 98.0469 -28.7598 98.0469 -36.2793 97.2656 -43.0176 C 96.4844 -54.3945 92.7246 -62.7441 83.5938 -65.5273 C 82.5684 -70.5078 78.8574 -74.0723 73.9258 -74.0723 C 69.043 -74.0723 65.332 -70.5078 64.3066 -65.5273 C 55.1758 -62.7441 51.4648 -54.3945 50.6348 -43.0176 C 49.7559 -36.2793 49.7559 -28.8086 46.4355 -25.0977 C 43.4082 -21.7773 39.9414 -18.6523 39.9414 -14.8926 C 39.9414 -13.0859 41.2109 -11.8652 43.3594 -11.8652 Z M 73.9258 1.61133 C 79.7363 1.61133 83.7891 -2.24609 84.4238 -7.71484 L 63.4766 -7.71484 C 64.1113 -2.24609 68.1152 1.61133 73.9258 1.61133 Z"/>
  </g>
  <g id="Thin-L" transform="matrix(1 0 0 1 783.693 1556)">
   <path d="M 72.7051 26.3184 C 106.494 26.3184 134.18 -1.36719 134.18 -35.1074 C 134.18 -68.8965 106.494 -96.582 72.7051 -96.582 C 38.9648 -96.582 11.2793 -68.8965 11.2793 -35.1074 C 11.2793 -1.36719 38.9648 26.3184 72.7051 26.3184 Z M 72.7051 22.3145 C 41.0156 22.3145 15.2832 -3.41797 15.2832 -35.1074 C 15.2832 -66.8457 41.0156 -92.5781 72.7051 -92.5781 C 104.395 -92.5781 130.176 -66.8457 130.176 -35.1074 C 130.176 -3.41797 104.443 22.3145 72.7051 22.3145 Z M 40.3809 -10.7422 L 105.078 -10.7422 C 106.348 -10.7422 107.178 -11.6211 107.178 -12.8906 C 107.178 -16.7969 103.857 -19.9219 100.781 -23.291 C 96.6309 -27.7832 97.0215 -37.1582 95.8496 -45.8496 C 94.6777 -55.5664 90.8203 -63.2324 81.8359 -65.5273 C 81.1523 -70.752 77.4414 -74.2188 72.7051 -74.2188 C 68.0176 -74.2188 64.3066 -70.752 63.5742 -65.5273 C 54.5898 -63.2324 50.8301 -55.5664 49.6094 -45.8496 C 48.3398 -37.1582 48.7305 -27.8809 44.6289 -23.291 C 41.6504 -19.9219 38.2812 -16.7969 38.2812 -12.8906 C 38.2812 -11.6211 39.1113 -10.7422 40.3809 -10.7422 Z M 72.7051 1.95312 C 78.3691 1.95312 82.1777 -1.61133 82.9102 -7.32422 L 62.5 -7.32422 C 63.2812 -1.61133 67.041 1.95312 72.7051 1.95312 Z"/>
  </g>
  <g id="Ultralight-L" transform="matrix(1 0 0 1 487.616 1556)">
   <path d="M 72.1191 25.7324 C 105.566 25.7324 132.91 -1.61133 132.91 -35.1074 C 132.91 -68.5547 105.566 -95.8984 72.1191 -95.8984 C 38.623 -95.8984 11.2793 -68.5547 11.2793 -35.1074 C 11.2793 -1.61133 38.623 25.7324 72.1191 25.7324 Z M 72.1191 23.2422 C 39.9414 23.2422 13.7695 -2.97852 13.7695 -35.1074 C 13.7695 -67.2363 39.9414 -93.4082 72.1191 -93.4082 C 104.248 -93.4082 130.42 -67.2363 130.42 -35.1074 C 130.42 -2.97852 104.248 23.2422 72.1191 23.2422 Z M 38.8672 -10.1562 L 105.322 -10.1562 C 106.152 -10.1562 106.787 -10.8398 106.787 -11.8652 C 106.787 -15.8203 103.516 -18.9453 100.439 -22.3633 C 95.9473 -27.2949 96.5332 -37.5488 95.1172 -47.3145 C 93.75 -56.1523 89.8438 -63.4277 81.0059 -65.4785 C 80.4199 -70.8984 76.709 -74.3164 72.1191 -74.3164 C 67.4805 -74.3164 63.7695 -70.8984 63.2324 -65.4785 C 54.3457 -63.4277 50.5371 -56.1523 49.0723 -47.3145 C 47.6074 -37.5488 48.1934 -27.3926 43.75 -22.3633 C 40.7715 -18.9453 37.4023 -15.8203 37.4023 -11.8652 C 37.4023 -10.8398 38.0371 -10.1562 38.8672 -10.1562 Z M 72.1191 2.14844 C 77.6855 2.14844 81.2988 -1.26953 82.1777 -7.08008 L 62.0117 -7.08008 C 62.8906 -1.26953 66.5039 2.14844 72.1191 2.14844 Z"/>
  </g>
  <g id="Black-M" transform="matrix(1 0 0 1 2870.97 1126)">
   <path d="M 62.4023 18.457 C 91.9922 18.457 116.113 -5.61523 116.113 -35.2051 C 116.113 -64.7949 91.9922 -88.8672 62.4023 -88.8672 C 32.8125 -88.8672 8.74023 -64.7949 8.74023 -35.2051 C 8.74023 -5.61523 32.8125 18.457 62.4023 18.457 Z M 62.4023 0.195312 C 42.8711 0.195312 27.002 -15.625 27.002 -35.2051 C 27.002 -54.7363 42.8711 -70.6055 62.4023 -70.6055 C 81.9824 -70.6055 97.8027 -54.7363 97.8027 -35.2051 C 97.8027 -15.625 81.9824 0.195312 62.4023 0.195312 Z M 43.4082 -20.459 L 81.4453 -20.459 C 84.7656 -20.459 86.9629 -22.6562 86.9629 -25.7812 C 86.9629 -28.9062 85.3027 -31.1035 82.8613 -32.8125 C 80.7129 -34.3262 80.4688 -37.8906 79.5898 -42.9688 C 78.3691 -49.5117 75.2441 -54.8828 70.0195 -56.6895 C 68.7012 -59.9609 65.8691 -61.8652 62.4023 -61.8652 C 58.9355 -61.8652 56.1523 -59.9609 54.834 -56.6895 C 49.5605 -54.8828 46.3379 -49.5117 45.2637 -42.9688 C 44.4336 -37.8906 44.0918 -34.3262 41.9922 -32.8125 C 39.5508 -31.1035 37.8906 -28.9062 37.8906 -25.7812 C 37.8906 -22.6562 40.0879 -20.459 43.4082 -20.459 Z M 62.4023 -8.78906 C 67.334 -8.78906 70.9473 -12.0605 71.1914 -16.1133 L 53.6133 -16.1133 C 53.8574 -12.0605 57.4707 -8.78906 62.4023 -8.78906 Z"/>
  </g>
  <g id="Heavy-M" transform="matrix(1 0 0 1 2575.19 1126)">
   <path d="M 61.5234 17.5781 C 90.5273 17.5781 114.258 -6.15234 114.258 -35.2051 C 114.258 -64.2578 90.5273 -87.9883 61.4746 -87.9883 C 32.4707 -87.9883 8.74023 -64.2578 8.74023 -35.2051 C 8.74023 -6.15234 32.4707 17.5781 61.5234 17.5781 Z M 61.5234 1.66016 C 41.1133 1.66016 24.6582 -14.8438 24.6582 -35.2051 C 24.6582 -55.5664 41.1133 -72.0703 61.4746 -72.0703 C 81.8848 -72.0703 98.3398 -55.5664 98.3398 -35.2051 C 98.3398 -14.8438 81.8848 1.66016 61.5234 1.66016 Z M 41.7969 -19.9707 L 81.2012 -19.9707 C 84.3262 -19.9707 86.377 -21.9238 86.377 -24.8047 C 86.377 -27.832 84.4238 -30.0781 82.0312 -31.9824 C 79.9316 -33.5938 79.6875 -37.2559 78.9551 -41.8945 C 77.9785 -49.3652 74.9023 -55.1758 69.1895 -57.1777 C 67.9199 -60.498 65.0879 -62.6465 61.5234 -62.6465 C 57.9102 -62.6465 55.0781 -60.498 53.8086 -57.1777 C 48.0957 -55.1758 44.9707 -49.3652 44.0918 -41.8945 C 43.3594 -37.2559 43.0664 -33.5938 40.9668 -31.9824 C 38.5742 -30.0781 36.6211 -27.832 36.6211 -24.8047 C 36.6211 -21.9238 38.6719 -19.9707 41.7969 -19.9707 Z M 61.5234 -8.39844 C 66.3574 -8.39844 69.9219 -11.6211 70.2148 -15.6738 L 52.7832 -15.6738 C 53.0762 -11.6211 56.6406 -8.39844 61.5234 -8.39844 Z"/>
  </g>
  <g id="Bold-M" transform="matrix(1 0 0 1 2279.5 1126)">
   <path d="M 60.498 16.5039 C 88.8672 16.5039 112.207 -6.78711 112.207 -35.2051 C 112.207 -63.623 88.8672 -86.9629 60.4492 -86.9629 C 32.0312 -86.9629 8.74023 -63.623 8.74023 -35.2051 C 8.74023 -6.78711 32.0801 16.5039 60.498 16.5039 Z M 60.498 3.22266 C 39.1602 3.22266 22.0703 -13.916 22.0703 -35.2051 C 22.0703 -56.4941 39.1602 -73.6816 60.4492 -73.6816 C 81.7383 -73.6816 98.9258 -56.4941 98.9258 -35.2051 C 98.9746 -13.916 81.7871 3.22266 60.498 3.22266 Z M 39.9902 -19.3848 L 80.957 -19.3848 C 83.8867 -19.3848 85.6934 -21.1426 85.6934 -23.6816 C 85.6934 -26.6113 83.4961 -28.9062 81.0547 -31.0059 C 79.0527 -32.7637 78.7598 -36.5234 78.2227 -40.6738 C 77.4902 -49.1699 74.5117 -55.4688 68.2617 -57.7148 C 67.041 -61.1328 64.209 -63.5254 60.498 -63.5254 C 56.7383 -63.5254 53.9062 -61.1328 52.6855 -57.7148 C 46.4355 -55.4688 43.4082 -49.1699 42.7734 -40.6738 C 42.2363 -36.5234 41.8945 -32.7637 39.8926 -31.0059 C 37.5 -28.9062 35.2539 -26.6113 35.2539 -23.6816 C 35.2539 -21.1426 37.1094 -19.3848 39.9902 -19.3848 Z M 60.498 -7.91016 C 65.2832 -7.91016 68.7988 -11.1816 69.0918 -15.2344 L 51.9043 -15.2344 C 52.1973 -11.1816 55.7129 -7.91016 60.498 -7.91016 Z"/>
  </g>
  <g id="Semibold-M" transform="matrix(1 0 0 1 1983.5 1126)">
   <path d="M 59.7656 15.8203 C 87.7441 15.8203 110.791 -7.22656 110.791 -35.2051 C 110.791 -63.1836 87.6953 -86.2793 59.7656 -86.2793 C 31.7871 -86.2793 8.74023 -63.1836 8.74023 -35.2051 C 8.74023 -7.22656 31.7871 15.8203 59.7656 15.8203 Z M 59.7656 4.3457 C 37.8418 4.3457 20.2637 -13.2812 20.2637 -35.2051 C 20.2637 -57.1289 37.793 -74.8047 59.7656 -74.8047 C 81.6895 -74.8047 99.3164 -57.1289 99.3652 -35.2051 C 99.3652 -13.2812 81.6895 4.3457 59.7656 4.3457 Z M 38.7695 -18.9941 L 80.7617 -18.9941 C 83.5449 -18.9941 85.2539 -20.5566 85.2539 -22.9004 C 85.2539 -25.7812 82.8613 -28.125 80.4199 -30.3711 C 78.4668 -32.1777 78.125 -36.0352 77.6855 -39.8438 C 77.1484 -49.0723 74.2188 -55.7129 67.627 -58.1055 C 66.4551 -61.5723 63.623 -64.1113 59.7656 -64.1113 C 55.957 -64.1113 53.0762 -61.5723 51.9531 -58.1055 C 45.3125 -55.7129 42.334 -49.0723 41.8457 -39.8438 C 41.4062 -36.0352 41.0645 -32.1777 39.1113 -30.3711 C 36.7188 -28.0762 34.2773 -25.7812 34.2773 -22.9004 C 34.2773 -20.5566 35.9863 -18.9941 38.7695 -18.9941 Z M 59.7656 -7.61719 C 64.502 -7.61719 67.9688 -10.8887 68.3105 -14.8926 L 51.2695 -14.8926 C 51.5625 -10.8887 55.0293 -7.61719 59.7656 -7.61719 Z"/>
  </g>
  <g id="Medium-M" transform="matrix(1 0 0 1 1687.3 1126)">
   <path d="M 59.2285 15.2832 C 86.9141 15.2832 109.766 -7.56836 109.766 -35.2051 C 109.766 -62.8906 86.8652 -85.7422 59.1797 -85.7422 C 31.543 -85.7422 8.74023 -62.8906 8.74023 -35.2051 C 8.74023 -7.56836 31.5918 15.2832 59.2285 15.2832 Z M 59.2285 5.17578 C 36.8164 5.17578 18.8965 -12.8418 18.8965 -35.2051 C 18.8965 -57.6172 36.8164 -75.6348 59.1797 -75.6348 C 81.5918 -75.6348 99.6094 -57.6172 99.6582 -35.2051 C 99.707 -12.8418 81.6406 5.17578 59.2285 5.17578 Z M 37.8418 -18.7012 L 80.6152 -18.7012 C 83.3008 -18.7012 84.9121 -20.166 84.9121 -22.3145 C 84.9121 -25.1465 82.373 -27.5391 79.9316 -29.8828 C 77.9785 -31.7383 77.6367 -35.6445 77.3438 -39.209 C 76.9043 -48.9746 74.0234 -55.8594 67.1387 -58.3984 C 66.0156 -61.9141 63.1348 -64.5508 59.2285 -64.5508 C 55.3223 -64.5508 52.4902 -61.9141 51.3672 -58.3984 C 44.4336 -55.8594 41.5527 -48.9746 41.1621 -39.209 C 40.8203 -35.6445 40.4297 -31.7383 38.5254 -29.8828 C 36.1816 -27.4902 33.5938 -25.1465 33.5938 -22.3145 C 33.5938 -20.166 35.2051 -18.7012 37.8418 -18.7012 Z M 59.2285 -7.32422 C 63.9648 -7.32422 67.3828 -10.6445 67.7246 -14.6484 L 50.7812 -14.6484 C 51.0742 -10.6445 54.541 -7.32422 59.2285 -7.32422 Z"/>
  </g>
  <g id="Regular-M" transform="matrix(1 0 0 1 1391.3 1126)">
   <path d="M 58.5449 14.5508 C 85.791 14.5508 108.35 -8.00781 108.35 -35.2539 C 108.35 -62.4512 85.7422 -85.0586 58.4961 -85.0586 C 31.2988 -85.0586 8.74023 -62.4512 8.74023 -35.2539 C 8.74023 -8.00781 31.3477 14.5508 58.5449 14.5508 Z M 58.5449 6.25 C 35.498 6.25 17.0898 -12.207 17.0898 -35.2539 C 17.0898 -58.252 35.4492 -76.7578 58.4961 -76.7578 C 81.543 -76.7578 100 -58.252 100.049 -35.2539 C 100.098 -12.207 81.5918 6.25 58.5449 6.25 Z M 36.6211 -18.3105 L 80.4688 -18.3105 C 82.959 -18.3105 84.4727 -19.5801 84.4727 -21.5332 C 84.4727 -24.3164 81.7383 -26.7578 79.2969 -29.1992 C 77.3926 -31.2012 77.0508 -35.1562 76.8066 -38.3789 C 76.6113 -48.877 73.7793 -56.1035 66.5039 -58.7402 C 65.4297 -62.3047 62.5488 -65.1367 58.5449 -65.1367 C 54.541 -65.1367 51.6602 -62.3047 50.5859 -58.7402 C 43.3105 -56.1035 40.4785 -48.877 40.2832 -38.3789 C 40.0391 -35.1562 39.6484 -31.2012 37.793 -29.1992 C 35.4492 -26.709 32.6172 -24.3164 32.6172 -21.5332 C 32.6172 -19.5801 34.1309 -18.3105 36.6211 -18.3105 Z M 58.5449 -7.03125 C 63.1836 -7.03125 66.6016 -10.3516 66.9434 -14.3555 L 50.1465 -14.3555 C 50.4883 -10.3516 53.9062 -7.03125 58.5449 -7.03125 Z"/>
  </g>
  <g id="Light-M" transform="matrix(1 0 0 1 1095.42 1126)">
   <path d="M 57.7148 13.7695 C 84.5215 13.7695 106.689 -8.39844 106.689 -35.2051 C 106.689 -62.0117 84.5215 -84.1797 57.666 -84.1797 C 30.8594 -84.1797 8.74023 -62.0117 8.74023 -35.2051 C 8.74023 -8.39844 30.9082 13.7695 57.7148 13.7695 Z M 57.7148 7.4707 C 34.082 7.4707 15.0879 -11.5723 15.0879 -35.2051 C 15.0879 -58.8379 34.082 -77.832 57.666 -77.832 C 81.2988 -77.832 100.342 -58.8379 100.391 -35.2051 C 100.391 -11.5723 81.3477 7.4707 57.7148 7.4707 Z M 34.6191 -17.5293 L 80.8105 -17.5293 C 82.7637 -17.5293 83.9355 -18.6035 83.9355 -20.166 C 83.9355 -23.0469 81.25 -25.4883 78.8574 -27.9785 C 76.4648 -30.5176 76.3672 -35.7422 75.8789 -40.332 C 75.3906 -49.6582 72.5098 -56.3965 65.332 -58.7402 C 64.4531 -62.5 61.5723 -65.2832 57.7148 -65.2832 C 53.8574 -65.2832 50.9766 -62.5 50.0977 -58.7402 C 42.9688 -56.3965 40.0879 -49.6582 39.5508 -40.332 C 39.0625 -35.7422 38.916 -30.5664 36.5723 -27.9785 C 34.2285 -25.4395 31.4941 -23.0469 31.4941 -20.166 C 31.4941 -18.6035 32.666 -17.5293 34.6191 -17.5293 Z M 57.7148 -6.78711 C 62.2559 -6.78711 65.4785 -9.91211 65.918 -14.0625 L 49.5117 -14.0625 C 49.9512 -9.91211 53.1738 -6.78711 57.7148 -6.78711 Z"/>
  </g>
  <g id="Thin-M" transform="matrix(1 0 0 1 799.806 1126)">
   <path d="M 56.6406 12.7441 C 82.9102 12.7441 104.492 -8.83789 104.492 -35.1562 C 104.492 -61.4746 82.9102 -83.0566 56.5918 -83.0566 C 30.3223 -83.0566 8.74023 -61.4746 8.74023 -35.1562 C 8.74023 -8.83789 30.3223 12.7441 56.6406 12.7441 Z M 56.6406 8.98438 C 32.2266 8.98438 12.4512 -10.791 12.4512 -35.1562 C 12.4512 -59.5215 32.2266 -79.2969 56.5918 -79.2969 C 81.0059 -79.2969 100.781 -59.5215 100.781 -35.1562 C 100.781 -10.791 81.0059 8.98438 56.6406 8.98438 Z M 31.9336 -16.5039 L 81.2988 -16.5039 C 82.4707 -16.5039 83.252 -17.2363 83.252 -18.3594 C 83.252 -21.3379 80.6152 -23.7793 78.2715 -26.3672 C 75.1953 -29.6875 75.4395 -36.5234 74.6094 -42.8711 C 73.7793 -50.7324 70.8008 -56.8359 63.8184 -58.6914 C 63.1836 -62.6953 60.3027 -65.4297 56.6406 -65.4297 C 52.9297 -65.4297 50.0488 -62.6953 49.4141 -58.6914 C 42.4316 -56.8359 39.5508 -50.7324 38.6719 -42.8711 C 37.7441 -36.5234 37.9883 -29.7363 34.9609 -26.3672 C 32.666 -23.7793 30.0293 -21.3379 30.0293 -18.3594 C 30.0293 -17.2363 30.7617 -16.5039 31.9336 -16.5039 Z M 56.6406 -6.49414 C 61.0352 -6.49414 64.0137 -9.27734 64.5996 -13.6719 L 48.6328 -13.6719 C 49.2188 -9.27734 52.1973 -6.49414 56.6406 -6.49414 Z"/>
  </g>
  <g id="Ultralight-M" transform="matrix(1 0 0 1 503.656 1126)">
   <path d="M 56.0547 12.207 C 82.0801 12.207 103.369 -9.08203 103.369 -35.1562 C 103.369 -61.1816 82.0801 -82.4707 56.0547 -82.4707 C 30.0293 -82.4707 8.74023 -61.1816 8.74023 -35.1562 C 8.74023 -9.08203 30.0293 12.207 56.0547 12.207 Z M 56.0547 9.81445 C 31.2988 9.81445 11.1328 -10.3516 11.1328 -35.1562 C 11.1328 -59.9121 31.2988 -80.0781 56.0547 -80.0781 C 80.8594 -80.0781 100.977 -59.9121 100.977 -35.1562 C 100.977 -10.3516 80.8594 9.81445 56.0547 9.81445 Z M 30.5664 -15.9668 L 81.543 -15.9668 C 82.3242 -15.9668 82.8613 -16.5527 82.8613 -17.4316 C 82.8613 -20.459 80.3223 -22.9004 77.9785 -25.5371 C 74.5605 -29.248 74.9512 -36.9141 73.9258 -44.1406 C 72.9492 -51.2695 69.9219 -57.0312 63.0371 -58.6914 C 62.5488 -62.793 59.668 -65.4785 56.0547 -65.4785 C 52.4414 -65.4785 49.6094 -62.793 49.1211 -58.6914 C 42.1875 -57.0312 39.2578 -51.2695 38.1836 -44.1406 C 37.1094 -36.9141 37.5 -29.2969 34.1797 -25.5371 C 31.8359 -22.9004 29.248 -20.459 29.248 -17.4316 C 29.248 -16.5527 29.7852 -15.9668 30.5664 -15.9668 Z M 56.0547 -6.34766 C 60.4004 -6.34766 63.2812 -8.98438 63.916 -13.4766 L 48.2422 -13.4766 C 48.8281 -8.98438 51.709 -6.34766 56.0547 -6.34766 Z"/>
  </g>
  <g id="Black-S" transform="matrix(1 0 0 1 2884.57 696)">
   <path d="M 48.8281 6.78711 C 71.9727 6.78711 90.8203 -12.0605 90.8203 -35.2051 C 90.8203 -58.3496 71.9727 -77.1973 48.8281 -77.1973 C 25.6836 -77.1973 6.83594 -58.3496 6.83594 -35.2051 C 6.83594 -12.0605 25.6836 6.78711 48.8281 6.78711 Z M 48.8281 -7.37305 C 33.4473 -7.37305 20.9961 -19.8242 20.9961 -35.2051 C 20.9961 -50.5859 33.4473 -63.0371 48.8281 -63.0371 C 64.209 -63.0371 76.6602 -50.5859 76.6602 -35.2051 C 76.6602 -19.8242 64.209 -7.37305 48.8281 -7.37305 Z M 33.8867 -23.6328 L 63.7695 -23.6328 C 66.3574 -23.6328 68.0664 -25.3418 68.0664 -27.7832 C 68.0664 -30.2246 66.748 -31.9336 64.8438 -33.3008 C 63.1836 -34.4727 62.9883 -37.2559 62.3047 -41.1621 C 61.377 -46.3867 58.9355 -50.6348 54.7852 -52.0996 C 53.7598 -54.6387 51.5625 -56.1523 48.8281 -56.1523 C 46.0938 -56.1523 43.8965 -54.6387 42.8711 -52.0996 C 38.7207 -50.6348 36.1816 -46.3867 35.3516 -41.1621 C 34.7168 -37.2559 34.4727 -34.4727 32.8125 -33.3008 C 30.9082 -31.9336 29.5898 -30.2246 29.5898 -27.7832 C 29.5898 -25.3418 31.2988 -23.6328 33.8867 -23.6328 Z M 48.8281 -14.502 C 52.6855 -14.502 55.5176 -17.041 55.7129 -20.2148 L 41.9434 -20.2148 C 42.1387 -17.041 44.9707 -14.502 48.8281 -14.502 Z"/>
  </g>
  <g id="Heavy-S" transform="matrix(1 0 0 1 2588.47 696)">
   <path d="M 48.2422 6.15234 C 70.9961 6.15234 89.5996 -12.4512 89.5996 -35.2051 C 89.5996 -57.959 70.9961 -76.6113 48.1934 -76.6113 C 25.4395 -76.6113 6.83594 -57.959 6.83594 -35.2051 C 6.83594 -12.4512 25.4395 6.15234 48.2422 6.15234 Z M 48.2422 -6.39648 C 32.2754 -6.39648 19.4336 -19.2871 19.4336 -35.2051 C 19.4336 -51.1719 32.2754 -64.0137 48.1934 -64.0137 C 64.1602 -64.0137 77.002 -51.1719 77.0508 -35.2051 C 77.0508 -19.2871 64.1602 -6.39648 48.2422 -6.39648 Z M 32.9102 -23.3398 L 63.5742 -23.3398 C 66.0645 -23.3398 67.6758 -24.9023 67.6758 -27.1484 C 67.6758 -29.541 66.1621 -31.2988 64.2578 -32.7637 C 62.6953 -33.9844 62.4512 -36.7188 61.9141 -40.1367 C 61.1816 -46.1914 58.7891 -50.8301 54.2969 -52.4902 C 53.2715 -55.0293 51.0742 -56.7383 48.2422 -56.7383 C 45.3613 -56.7383 43.1641 -55.0293 42.1387 -52.4902 C 37.6465 -50.8301 35.1562 -46.1914 34.5215 -40.1367 C 34.0332 -36.7188 33.7402 -33.9844 32.1777 -32.7637 C 30.3223 -31.2988 28.7598 -29.541 28.7598 -27.1484 C 28.7598 -24.9023 30.3711 -23.3398 32.9102 -23.3398 Z M 48.2422 -14.209 C 52.0508 -14.209 54.834 -16.7969 55.0293 -19.9219 L 41.4062 -19.9219 C 41.6016 -16.7969 44.3848 -14.209 48.2422 -14.209 Z"/>
  </g>
  <g id="Bold-S" transform="matrix(1 0 0 1 2292.44 696)">
   <path d="M 47.5586 5.46875 C 69.873 5.46875 88.2324 -12.8906 88.2324 -35.2051 C 88.2324 -57.5684 69.873 -75.9277 47.5098 -75.9277 C 25.1953 -75.9277 6.83594 -57.5684 6.83594 -35.2051 C 6.83594 -12.8906 25.1953 5.46875 47.5586 5.46875 Z M 47.5586 -5.32227 C 30.957 -5.32227 17.6758 -18.6523 17.6758 -35.2051 C 17.6758 -51.8066 30.957 -65.1367 47.5098 -65.1367 C 64.1113 -65.1367 77.4414 -51.8066 77.4414 -35.2051 C 77.4414 -18.6523 64.1113 -5.32227 47.5586 -5.32227 Z M 31.7871 -22.998 L 63.3301 -22.998 C 65.7227 -22.998 67.2363 -24.4141 67.2363 -26.4648 C 67.2363 -28.7598 65.4785 -30.5664 63.5742 -32.2266 C 62.1582 -33.3984 61.8164 -36.084 61.4746 -38.9648 C 60.9863 -45.9473 58.6426 -51.0254 53.7109 -52.8809 C 52.7344 -55.5176 50.4883 -57.373 47.5586 -57.373 C 44.5801 -57.373 42.334 -55.5176 41.3574 -52.8809 C 36.4258 -51.0254 34.0332 -45.9473 33.5938 -38.9648 C 33.252 -36.084 32.9102 -33.4473 31.4941 -32.2266 C 29.6387 -30.5664 27.832 -28.7598 27.832 -26.4648 C 27.832 -24.4141 29.3457 -22.998 31.7871 -22.998 Z M 47.5586 -13.8672 C 51.3184 -13.8672 54.1016 -16.5039 54.2969 -19.6289 L 40.7715 -19.6289 C 40.9668 -16.5039 43.75 -13.8672 47.5586 -13.8672 Z"/>
  </g>
  <g id="Semibold-S" transform="matrix(1 0 0 1 1996.2 696)">
   <path d="M 47.0703 4.98047 C 69.0918 4.98047 87.3047 -13.1836 87.3047 -35.2539 C 87.3047 -57.2754 69.0918 -75.4883 47.0215 -75.4883 C 25 -75.4883 6.83594 -57.2754 6.83594 -35.2539 C 6.83594 -13.1836 25.0488 4.98047 47.0703 4.98047 Z M 47.0703 -4.58984 C 30.0781 -4.58984 16.4551 -18.2129 16.4551 -35.2539 C 16.4551 -52.2461 30.0293 -65.8691 47.0215 -65.8691 C 64.0625 -65.8691 77.6855 -52.2461 77.7344 -35.2539 C 77.7344 -18.2129 64.0625 -4.58984 47.0703 -4.58984 Z M 31.0059 -22.7539 L 63.1348 -22.7539 C 65.4785 -22.7539 66.9434 -24.0723 66.9434 -26.0254 C 66.9434 -28.2227 65.0391 -30.0781 63.1348 -31.7871 C 61.7676 -33.0566 61.4258 -35.6445 61.1816 -38.1836 C 60.8398 -45.8008 58.5449 -51.1719 53.3203 -53.1738 C 52.3438 -55.8105 50.1465 -57.8125 47.0703 -57.8125 C 44.043 -57.8125 41.7969 -55.8105 40.8203 -53.1738 C 35.5957 -51.1719 33.252 -45.8008 32.959 -38.1836 C 32.7637 -35.6445 32.373 -33.0566 31.0059 -31.7871 C 29.1504 -30.0293 27.1973 -28.2227 27.1973 -26.0254 C 27.1973 -24.0723 28.6621 -22.7539 31.0059 -22.7539 Z M 47.0703 -13.623 C 50.8301 -13.623 53.6133 -16.3086 53.8086 -19.3848 L 40.332 -19.3848 C 40.5273 -16.3086 43.3105 -13.623 47.0703 -13.623 Z"/>
  </g>
  <g id="Medium-S" transform="matrix(1 0 0 1 1699.83 696)">
   <path d="M 46.7285 4.63867 C 68.5547 4.63867 86.6211 -13.4277 86.6211 -35.2539 C 86.6211 -57.0312 68.5059 -75.1465 46.6797 -75.1465 C 24.8535 -75.1465 6.83594 -57.0312 6.83594 -35.2539 C 6.83594 -13.4277 24.9023 4.63867 46.7285 4.63867 Z M 46.7285 -4.00391 C 29.3945 -4.00391 15.5273 -17.9199 15.5273 -35.2539 C 15.5273 -52.5879 29.3457 -66.4551 46.6797 -66.4551 C 64.0137 -66.4551 77.8809 -52.5879 77.9297 -35.2539 C 77.9785 -17.9199 64.0625 -4.00391 46.7285 -4.00391 Z M 30.4199 -22.5586 L 63.0371 -22.5586 C 65.332 -22.5586 66.6992 -23.8281 66.6992 -25.6348 C 66.6992 -27.832 64.6973 -29.6875 62.793 -31.4941 C 61.4746 -32.7637 61.084 -35.3516 60.9375 -37.5488 C 60.7422 -45.7031 58.4961 -51.2695 53.0273 -53.3691 C 52.0996 -56.0547 49.8535 -58.1543 46.7285 -58.1543 C 43.6035 -58.1543 41.3574 -56.0547 40.4297 -53.3691 C 34.9609 -51.2695 32.666 -45.7031 32.5195 -37.5488 C 32.373 -35.3516 31.9336 -32.7637 30.6641 -31.4941 C 28.8086 -29.6387 26.709 -27.832 26.709 -25.6348 C 26.709 -23.8281 28.125 -22.5586 30.4199 -22.5586 Z M 46.7285 -13.4766 C 50.4395 -13.4766 53.2227 -16.1621 53.418 -19.2383 L 40.0391 -19.2383 C 40.2344 -16.1621 43.0176 -13.4766 46.7285 -13.4766 Z"/>
  </g>
  <g id="Regular-S" transform="matrix(1 0 0 1 1403.58 696)">
   <path d="M 46.2402 4.15039 C 67.7734 4.15039 85.6934 -13.7207 85.6934 -35.2539 C 85.6934 -56.7871 67.7246 -74.6582 46.1914 -74.6582 C 24.707 -74.6582 6.83594 -56.7871 6.83594 -35.2539 C 6.83594 -13.7207 24.7559 4.15039 46.2402 4.15039 Z M 46.2402 -3.27148 C 28.5156 -3.27148 14.3555 -17.4805 14.3555 -35.2539 C 14.3555 -53.0273 28.4668 -67.2363 46.1914 -67.2363 C 63.9648 -67.2363 78.1738 -53.0273 78.2227 -35.2539 C 78.2715 -17.4805 64.0137 -3.27148 46.2402 -3.27148 Z M 29.6875 -22.3633 L 62.8418 -22.3633 C 65.0879 -22.3633 66.4062 -23.4863 66.4062 -25.1953 C 66.4062 -27.2949 64.2578 -29.1992 62.3535 -31.1035 C 61.084 -32.373 60.6934 -34.9121 60.6445 -36.7676 C 60.5957 -45.5566 58.3984 -51.416 52.6367 -53.6621 C 51.709 -56.3965 49.4629 -58.5938 46.2402 -58.5938 C 43.0664 -58.5938 40.8203 -56.3965 39.8438 -53.6621 C 34.1309 -51.416 31.9336 -45.5566 31.8848 -36.7676 C 31.8359 -34.9121 31.3965 -32.373 30.1758 -31.1035 C 28.3203 -29.1504 26.0742 -27.2949 26.0742 -25.1953 C 26.0742 -23.4863 27.3926 -22.3633 29.6875 -22.3633 Z M 46.2402 -13.2324 C 49.9512 -13.2324 52.6855 -15.9668 52.9297 -18.9941 L 39.5996 -18.9941 C 39.7949 -15.9668 42.5781 -13.2324 46.2402 -13.2324 Z"/>
  </g>
  <g id="Light-S" transform="matrix(1 0 0 1 1107.6 696)">
   <path d="M 45.5078 3.4668 C 66.6992 3.4668 84.2285 -14.0625 84.2285 -35.2051 C 84.2285 -56.3965 66.6504 -73.9258 45.5078 -73.9258 C 24.3164 -73.9258 6.83594 -56.3965 6.83594 -35.2051 C 6.83594 -14.0625 24.3652 3.4668 45.5078 3.4668 Z M 45.5078 -2.24609 C 27.2461 -2.24609 12.5977 -16.9434 12.5977 -35.2051 C 12.5977 -53.5156 27.1973 -68.2129 45.5078 -68.2129 C 63.7695 -68.2129 78.4668 -53.5156 78.5156 -35.2051 C 78.5156 -16.9434 63.8184 -2.24609 45.5078 -2.24609 Z M 27.8809 -21.6309 L 63.1836 -21.6309 C 64.8926 -21.6309 65.9668 -22.5586 65.9668 -23.9746 C 65.9668 -26.1719 63.8184 -28.0762 61.9141 -30.0293 C 60.2539 -31.7871 60.0586 -35.4004 59.8145 -38.4766 C 59.5215 -46.2402 57.2754 -51.709 51.6113 -53.6621 C 50.8789 -56.543 48.6328 -58.6914 45.5078 -58.6914 C 42.4316 -58.6914 40.1855 -56.543 39.4043 -53.6621 C 33.7891 -51.709 31.543 -46.2402 31.25 -38.4766 C 30.957 -35.4004 30.7617 -31.8359 29.1016 -30.0293 C 27.2949 -28.0273 25.0977 -26.1719 25.0977 -23.9746 C 25.0977 -22.5586 26.123 -21.6309 27.8809 -21.6309 Z M 45.5078 -13.0371 C 49.1211 -13.0371 51.709 -15.5273 52.002 -18.75 L 39.0137 -18.75 C 39.3066 -15.5273 41.8945 -13.0371 45.5078 -13.0371 Z"/>
  </g>
  <g id="Thin-S" transform="matrix(1 0 0 1 811.867 696)">
   <path d="M 44.5801 2.53906 C 65.2832 2.53906 82.2754 -14.4531 82.2754 -35.2051 C 82.2754 -55.9082 65.2344 -72.9004 44.5312 -72.9004 C 23.8281 -72.9004 6.83594 -55.9082 6.83594 -35.2051 C 6.83594 -14.4531 23.877 2.53906 44.5801 2.53906 Z M 44.5801 -0.878906 C 25.5859 -0.878906 10.2539 -16.2109 10.2539 -35.2051 C 10.2539 -54.1504 25.5859 -69.4824 44.5312 -69.4824 C 63.5254 -69.4824 78.8574 -54.1504 78.8574 -35.2051 C 78.8574 -16.2109 63.5254 -0.878906 44.5801 -0.878906 Z M 25.5371 -20.752 L 63.5742 -20.752 C 64.6484 -20.752 65.332 -21.3867 65.332 -22.3633 C 65.332 -24.6582 63.2812 -26.5625 61.4258 -28.6133 C 59.1309 -31.0547 59.2773 -36.084 58.6914 -40.7227 C 58.1055 -47.168 55.7617 -52.0508 50.293 -53.6133 C 49.7559 -56.6895 47.5098 -58.8379 44.5801 -58.8379 C 41.6504 -58.8379 39.4043 -56.6895 38.8672 -53.6133 C 33.3496 -52.0508 31.0547 -47.168 30.4688 -40.7227 C 29.834 -36.084 29.9316 -31.1035 27.6855 -28.6133 C 25.8789 -26.5625 23.7793 -24.6582 23.7793 -22.3633 C 23.7793 -21.3867 24.4629 -20.752 25.5371 -20.752 Z M 44.5801 -12.793 C 48.0469 -12.793 50.4395 -15.0391 50.8301 -18.4082 L 38.2812 -18.4082 C 38.6719 -15.0391 41.0645 -12.793 44.5801 -12.793 Z"/>
  </g>
  <g id="Ultralight-S" transform="matrix(1 0 0 1 515.644 696)">
   <path d="M 44.043 2.05078 C 64.502 2.05078 81.2988 -14.6973 81.2988 -35.1562 C 81.2988 -55.6152 64.502 -72.3633 44.043 -72.3633 C 23.584 -72.3633 6.83594 -55.6152 6.83594 -35.1562 C 6.83594 -14.6973 23.584 2.05078 44.043 2.05078 Z M 44.043 -0.146484 C 24.7559 -0.146484 9.08203 -15.8691 9.08203 -35.1562 C 9.08203 -54.4434 24.7559 -70.166 44.043 -70.166 C 63.3789 -70.166 79.0527 -54.4434 79.0527 -35.1562 C 79.0527 -15.8691 63.3789 -0.146484 44.043 -0.146484 Z M 24.3164 -20.2637 L 63.8184 -20.2637 C 64.5508 -20.2637 64.9902 -20.8008 64.9902 -21.5332 C 64.9902 -23.9258 62.9883 -25.8301 61.1328 -27.832 C 58.5938 -30.6641 58.8379 -36.4258 58.1055 -41.8945 C 57.3242 -47.6562 55.0293 -52.2461 49.5605 -53.6133 C 49.1699 -56.8359 46.9238 -58.9355 44.043 -58.9355 C 41.2109 -58.9355 38.9648 -56.8359 38.5254 -53.6133 C 33.1055 -52.2461 30.8105 -47.6562 30.0293 -41.8945 C 29.248 -36.4258 29.4922 -30.7129 26.9531 -27.832 C 25.1465 -25.8301 23.0957 -23.9258 23.0957 -21.5332 C 23.0957 -20.8008 23.584 -20.2637 24.3164 -20.2637 Z M 44.043 -12.6465 C 47.5098 -12.6465 49.7559 -14.7461 50.2441 -18.2617 L 37.8906 -18.2617 C 38.3789 -14.7461 40.625 -12.6465 44.043 -12.6465 Z"/>
  </g>
 </g>
</svg>
