<?xml version="1.0" encoding="UTF-8"?>
<!--Generator: Apple Native CoreSVG 123-->
<!DOCTYPE svg
PUBLIC "-//W3C//DTD SVG 1.1//EN"
       "http://www.w3.org/Graphics/SVG/1.1/DTD/svg11.dtd">
<svg version="1.1" xmlns="http://www.w3.org/2000/svg" xmlns:xlink="http://www.w3.org/1999/xlink" width="3300" height="2200">
 <!--glyph: "uni1002E3.medium", point size: 100.000000, font version: "Version 15.0d7e11", template writer version: "5"-->
 <g id="Notes">
  <rect height="2200" id="artboard" style="fill:white;opacity:1" width="3300" x="0" y="0"/>
  <line id="" style="fill:none;stroke:black;opacity:1;stroke-width:0.5;" x1="263" x2="3036" y1="292" y2="292"/>
  <text style="stroke:none;fill:black;font-family:-apple-system,&quot;SF Pro Display&quot;,&quot;SF Pro Text&quot;,Helvetica,sans-serif;font-weight:bold;" transform="matrix(1 0 0 1 263 322)">Weight/Scale Variations</text>
  <text style="stroke:none;fill:black;font-family:-apple-system,&quot;SF Pro Display&quot;,&quot;SF Pro Text&quot;,Helvetica,sans-serif;text-anchor:middle;" transform="matrix(1 0 0 1 559.711 322)">Ultralight</text>
  <text style="stroke:none;fill:black;font-family:-apple-system,&quot;SF Pro Display&quot;,&quot;SF Pro Text&quot;,Helvetica,sans-serif;text-anchor:middle;" transform="matrix(1 0 0 1 856.422 322)">Thin</text>
  <text style="stroke:none;fill:black;font-family:-apple-system,&quot;SF Pro Display&quot;,&quot;SF Pro Text&quot;,Helvetica,sans-serif;text-anchor:middle;" transform="matrix(1 0 0 1 1153.13 322)">Light</text>
  <text style="stroke:none;fill:black;font-family:-apple-system,&quot;SF Pro Display&quot;,&quot;SF Pro Text&quot;,Helvetica,sans-serif;text-anchor:middle;" transform="matrix(1 0 0 1 1449.84 322)">Regular</text>
  <text style="stroke:none;fill:black;font-family:-apple-system,&quot;SF Pro Display&quot;,&quot;SF Pro Text&quot;,Helvetica,sans-serif;text-anchor:middle;" transform="matrix(1 0 0 1 1746.56 322)">Medium</text>
  <text style="stroke:none;fill:black;font-family:-apple-system,&quot;SF Pro Display&quot;,&quot;SF Pro Text&quot;,Helvetica,sans-serif;text-anchor:middle;" transform="matrix(1 0 0 1 2043.27 322)">Semibold</text>
  <text style="stroke:none;fill:black;font-family:-apple-system,&quot;SF Pro Display&quot;,&quot;SF Pro Text&quot;,Helvetica,sans-serif;text-anchor:middle;" transform="matrix(1 0 0 1 2339.98 322)">Bold</text>
  <text style="stroke:none;fill:black;font-family:-apple-system,&quot;SF Pro Display&quot;,&quot;SF Pro Text&quot;,Helvetica,sans-serif;text-anchor:middle;" transform="matrix(1 0 0 1 2636.69 322)">Heavy</text>
  <text style="stroke:none;fill:black;font-family:-apple-system,&quot;SF Pro Display&quot;,&quot;SF Pro Text&quot;,Helvetica,sans-serif;text-anchor:middle;" transform="matrix(1 0 0 1 2933.4 322)">Black</text>
  <line id="" style="fill:none;stroke:black;opacity:1;stroke-width:0.5;" x1="263" x2="3036" y1="1903" y2="1903"/>
  <g id="" transform="matrix(1 0 0 1 263 1933)">
   <path d="M 9.24805 0.830078 C 13.5547 0.830078 17.1387 -2.74414 17.1387 -7.05078 C 17.1387 -11.3574 13.5449 -14.9316 9.23828 -14.9316 C 4.94141 -14.9316 1.36719 -11.3574 1.36719 -7.05078 C 1.36719 -2.74414 4.95117 0.830078 9.24805 0.830078 Z M 9.24805 -0.654297 C 5.70312 -0.654297 2.87109 -3.49609 2.87109 -7.05078 C 2.87109 -10.6055 5.69336 -13.4473 9.23828 -13.4473 C 12.793 -13.4473 15.6348 -10.6055 15.6445 -7.05078 C 15.6543 -3.49609 12.8027 -0.654297 9.24805 -0.654297 Z M 9.22852 -3.42773 C 9.69727 -3.42773 9.9707 -3.74023 9.9707 -4.25781 L 9.9707 -6.31836 L 12.1973 -6.31836 C 12.6953 -6.31836 13.0371 -6.57227 13.0371 -7.04102 C 13.0371 -7.51953 12.7148 -7.7832 12.1973 -7.7832 L 9.9707 -7.7832 L 9.9707 -10.0098 C 9.9707 -10.5273 9.69727 -10.8496 9.22852 -10.8496 C 8.75977 -10.8496 8.50586 -10.5078 8.50586 -10.0098 L 8.50586 -7.7832 L 6.29883 -7.7832 C 5.78125 -7.7832 5.44922 -7.51953 5.44922 -7.04102 C 5.44922 -6.57227 5.80078 -6.31836 6.29883 -6.31836 L 8.50586 -6.31836 L 8.50586 -4.25781 C 8.50586 -3.75977 8.75977 -3.42773 9.22852 -3.42773 Z"/>
  </g>
  <g id="" transform="matrix(1 0 0 1 281.506 1933)">
   <path d="M 11.709 2.91016 C 17.1582 2.91016 21.6699 -1.60156 21.6699 -7.05078 C 21.6699 -12.4902 17.1484 -17.0117 11.6992 -17.0117 C 6.25977 -17.0117 1.74805 -12.4902 1.74805 -7.05078 C 1.74805 -1.60156 6.26953 2.91016 11.709 2.91016 Z M 11.709 1.25 C 7.09961 1.25 3.41797 -2.44141 3.41797 -7.05078 C 3.41797 -11.6504 7.08984 -15.3516 11.6992 -15.3516 C 16.3086 -15.3516 20 -11.6504 20.0098 -7.05078 C 20.0195 -2.44141 16.3184 1.25 11.709 1.25 Z M 11.6895 -2.41211 C 12.207 -2.41211 12.5195 -2.77344 12.5195 -3.33984 L 12.5195 -6.23047 L 15.5762 -6.23047 C 16.123 -6.23047 16.5039 -6.51367 16.5039 -7.03125 C 16.5039 -7.55859 16.1426 -7.86133 15.5762 -7.86133 L 12.5195 -7.86133 L 12.5195 -10.9277 C 12.5195 -11.5039 12.207 -11.8555 11.6895 -11.8555 C 11.1719 -11.8555 10.8789 -11.4844 10.8789 -10.9277 L 10.8789 -7.86133 L 7.83203 -7.86133 C 7.26562 -7.86133 6.89453 -7.55859 6.89453 -7.03125 C 6.89453 -6.51367 7.28516 -6.23047 7.83203 -6.23047 L 10.8789 -6.23047 L 10.8789 -3.33984 C 10.8789 -2.79297 11.1719 -2.41211 11.6895 -2.41211 Z"/>
  </g>
  <g id="" transform="matrix(1 0 0 1 304.924 1933)">
   <path d="M 14.9707 5.67383 C 21.9336 5.67383 27.6953 -0.078125 27.6953 -7.04102 C 27.6953 -14.0039 21.9238 -19.7559 14.9609 -19.7559 C 8.00781 -19.7559 2.25586 -14.0039 2.25586 -7.04102 C 2.25586 -0.078125 8.01758 5.67383 14.9707 5.67383 Z M 14.9707 3.85742 C 8.93555 3.85742 4.08203 -1.00586 4.08203 -7.04102 C 4.08203 -13.0762 8.92578 -17.9395 14.9609 -17.9395 C 21.0059 -17.9395 25.8594 -13.0762 25.8691 -7.04102 C 25.8789 -1.00586 21.0156 3.85742 14.9707 3.85742 Z M 14.9512 -1.06445 C 15.5176 -1.06445 15.8691 -1.45508 15.8691 -2.06055 L 15.8691 -6.13281 L 20.1074 -6.13281 C 20.6934 -6.13281 21.1133 -6.46484 21.1133 -7.02148 C 21.1133 -7.59766 20.7227 -7.93945 20.1074 -7.93945 L 15.8691 -7.93945 L 15.8691 -12.1875 C 15.8691 -12.8027 15.5176 -13.1934 14.9512 -13.1934 C 14.3848 -13.1934 14.0625 -12.7832 14.0625 -12.1875 L 14.0625 -7.93945 L 9.83398 -7.93945 C 9.21875 -7.93945 8.80859 -7.59766 8.80859 -7.02148 C 8.80859 -6.46484 9.23828 -6.13281 9.83398 -6.13281 L 14.0625 -6.13281 L 14.0625 -2.06055 C 14.0625 -1.47461 14.3848 -1.06445 14.9512 -1.06445 Z"/>
  </g>
  <text style="stroke:none;fill:black;font-family:-apple-system,&quot;SF Pro Display&quot;,&quot;SF Pro Text&quot;,Helvetica,sans-serif;font-weight:bold;" transform="matrix(1 0 0 1 263 1953)">Design Variations</text>
  <text style="stroke:none;fill:black;font-family:-apple-system,&quot;SF Pro Display&quot;,&quot;SF Pro Text&quot;,Helvetica,sans-serif;" transform="matrix(1 0 0 1 263 1971)">Symbols are supported in up to nine weights and three scales.</text>
  <text style="stroke:none;fill:black;font-family:-apple-system,&quot;SF Pro Display&quot;,&quot;SF Pro Text&quot;,Helvetica,sans-serif;" transform="matrix(1 0 0 1 263 1989)">For optimal layout with text and other symbols, vertically align</text>
  <text style="stroke:none;fill:black;font-family:-apple-system,&quot;SF Pro Display&quot;,&quot;SF Pro Text&quot;,Helvetica,sans-serif;" transform="matrix(1 0 0 1 263 2007)">symbols with the adjacent text.</text>
  <rect height="14" id="" style="fill:#00AEEF;stroke:none;opacity:0.4;" width="3" x="776" y="1919"/>
  <g id="" transform="matrix(1 0 0 1 779 1933)">
   <path d="M 10.5273 0 L 12.373 0 L 7.17773 -14.0918 L 5.43945 -14.0918 L 0.244141 0 L 2.08984 0 L 3.50586 -4.0332 L 9.11133 -4.0332 Z M 6.2793 -11.9531 L 6.33789 -11.9531 L 8.59375 -5.52734 L 4.02344 -5.52734 Z"/>
  </g>
  <rect height="14" id="" style="fill:#00AEEF;stroke:none;opacity:0.4;" width="3" x="791.617" y="1919"/>
  <text style="stroke:none;fill:black;font-family:-apple-system,&quot;SF Pro Display&quot;,&quot;SF Pro Text&quot;,Helvetica,sans-serif;font-weight:bold;" transform="matrix(1 0 0 1 776 1953)">Margins</text>
  <text style="stroke:none;fill:black;font-family:-apple-system,&quot;SF Pro Display&quot;,&quot;SF Pro Text&quot;,Helvetica,sans-serif;" transform="matrix(1 0 0 1 776 1971)">Leading and trailing margins on the left and right side of each symbol</text>
  <text style="stroke:none;fill:black;font-family:-apple-system,&quot;SF Pro Display&quot;,&quot;SF Pro Text&quot;,Helvetica,sans-serif;" transform="matrix(1 0 0 1 776 1989)">can be adjusted by modifying the width of the blue rectangles.</text>
  <text style="stroke:none;fill:black;font-family:-apple-system,&quot;SF Pro Display&quot;,&quot;SF Pro Text&quot;,Helvetica,sans-serif;" transform="matrix(1 0 0 1 776 2007)">Modifications are automatically applied proportionally to all</text>
  <text style="stroke:none;fill:black;font-family:-apple-system,&quot;SF Pro Display&quot;,&quot;SF Pro Text&quot;,Helvetica,sans-serif;" transform="matrix(1 0 0 1 776 2025)">scales and weights.</text>
  <g id="" transform="matrix(1 0 0 1 1289 1933)">
   <path d="M 2.83203 3.11523 L 4.375 4.6582 C 5.22461 5.48828 6.19141 5.41992 7.06055 4.46289 L 17.2754 -6.66016 C 17.7051 -6.36719 18.0957 -6.37695 18.5645 -6.47461 L 19.6094 -6.68945 L 20.3027 -5.99609 L 20.2539 -5.47852 C 20.1855 -4.95117 20.3516 -4.53125 20.8496 -4.0332 L 21.6602 -3.22266 C 22.168 -2.71484 22.8223 -2.68555 23.3008 -3.16406 L 26.5527 -6.41602 C 27.0312 -6.89453 27.0117 -7.54883 26.5039 -8.05664 L 25.6836 -8.87695 C 25.1855 -9.375 24.7754 -9.55078 24.2383 -9.47266 L 23.7109 -9.41406 L 23.0566 -10.0781 L 23.3398 -11.2207 C 23.4863 -11.7871 23.3398 -12.2559 22.7148 -12.8613 L 20.3027 -15.2539 C 16.7578 -18.7793 12.2266 -18.6719 9.11133 -15.5371 C 8.69141 -15.1074 8.64258 -14.5215 8.91602 -14.0918 C 9.15039 -13.7207 9.62891 -13.4961 10.2734 -13.6621 C 11.7871 -14.043 13.3008 -13.9258 14.7852 -12.9199 L 14.1602 -11.3379 C 13.9258 -10.752 13.9453 -10.2734 14.1797 -9.83398 L 3.01758 0.439453 C 2.08008 1.30859 1.97266 2.25586 2.83203 3.11523 Z M 10.6738 -15.1465 C 13.3398 -17.1387 16.6504 -16.8262 19.0527 -14.4141 L 21.6797 -11.8066 C 21.9141 -11.5723 21.9434 -11.3867 21.8848 -11.0938 L 21.5039 -9.53125 L 23.0762 -7.95898 L 24.043 -8.04688 C 24.3262 -8.07617 24.4141 -8.05664 24.6387 -7.83203 L 25.2637 -7.20703 L 22.5098 -4.46289 L 21.8848 -5.07812 C 21.6602 -5.30273 21.6406 -5.40039 21.6699 -5.68359 L 21.7578 -6.64062 L 20.1953 -8.20312 L 18.5742 -7.89062 C 18.291 -7.83203 18.1445 -7.83203 17.9102 -8.07617 L 15.7324 -10.2539 C 15.5078 -10.4883 15.4785 -10.625 15.6055 -10.9473 L 16.5527 -13.2227 C 14.9512 -14.7559 12.8418 -15.6055 10.8008 -14.9512 C 10.7129 -14.9219 10.6445 -14.9414 10.6152 -14.9805 C 10.5859 -15.0293 10.5859 -15.0781 10.6738 -15.1465 Z M 4.10156 2.41211 C 3.61328 1.91406 3.78906 1.61133 4.12109 1.30859 L 15.0781 -8.80859 L 16.3086 -7.57812 L 6.15234 3.34961 C 5.84961 3.68164 5.46875 3.7793 5.06836 3.37891 Z"/>
  </g>
  <text style="stroke:none;fill:black;font-family:-apple-system,&quot;SF Pro Display&quot;,&quot;SF Pro Text&quot;,Helvetica,sans-serif;font-weight:bold;" transform="matrix(1 0 0 1 1289 1953)">Exporting</text>
  <text style="stroke:none;fill:black;font-family:-apple-system,&quot;SF Pro Display&quot;,&quot;SF Pro Text&quot;,Helvetica,sans-serif;" transform="matrix(1 0 0 1 1289 1971)">Symbols should be outlined when exporting to ensure the</text>
  <text style="stroke:none;fill:black;font-family:-apple-system,&quot;SF Pro Display&quot;,&quot;SF Pro Text&quot;,Helvetica,sans-serif;" transform="matrix(1 0 0 1 1289 1989)">design is preserved when submitting to Xcode.</text>
  <text id="template-version" style="stroke:none;fill:black;font-family:-apple-system,&quot;SF Pro Display&quot;,&quot;SF Pro Text&quot;,Helvetica,sans-serif;text-anchor:end;" transform="matrix(1 0 0 1 3036 1933)">Template v.1.0</text>
  <text style="stroke:none;fill:black;font-family:-apple-system,&quot;SF Pro Display&quot;,&quot;SF Pro Text&quot;,Helvetica,sans-serif;text-anchor:end;" transform="matrix(1 0 0 1 3036 1951)">Generated from tag.circle</text>
  <text style="stroke:none;fill:black;font-family:-apple-system,&quot;SF Pro Display&quot;,&quot;SF Pro Text&quot;,Helvetica,sans-serif;text-anchor:end;" transform="matrix(1 0 0 1 3036 1969)">Typeset at 100 points</text>
  <text style="stroke:none;fill:black;font-family:-apple-system,&quot;SF Pro Display&quot;,&quot;SF Pro Text&quot;,Helvetica,sans-serif;" transform="matrix(1 0 0 1 263 726)">Small</text>
  <text style="stroke:none;fill:black;font-family:-apple-system,&quot;SF Pro Display&quot;,&quot;SF Pro Text&quot;,Helvetica,sans-serif;" transform="matrix(1 0 0 1 263 1156)">Medium</text>
  <text style="stroke:none;fill:black;font-family:-apple-system,&quot;SF Pro Display&quot;,&quot;SF Pro Text&quot;,Helvetica,sans-serif;" transform="matrix(1 0 0 1 263 1586)">Large</text>
 </g>
 <g id="Guides">
  <g id="H-reference" style="fill:#27AAE1;stroke:none;" transform="matrix(1 0 0 1 339 696)">
   <path d="M 54.9316 0 L 57.666 0 L 30.5664 -70.459 L 28.0762 -70.459 L 0.976562 0 L 3.66211 0 L 12.9395 -24.4629 L 45.7031 -24.4629 Z M 29.1992 -67.0898 L 29.4434 -67.0898 L 44.8242 -26.709 L 13.8184 -26.709 Z"/>
  </g>
  <line id="Baseline-S" style="fill:none;stroke:#27AAE1;opacity:1;stroke-width:0.577;" x1="263" x2="3036" y1="696" y2="696"/>
  <line id="Capline-S" style="fill:none;stroke:#27AAE1;opacity:1;stroke-width:0.577;" x1="263" x2="3036" y1="625.541" y2="625.541"/>
  <g id="H-reference" style="fill:#27AAE1;stroke:none;" transform="matrix(1 0 0 1 339 1126)">
   <path d="M 54.9316 0 L 57.666 0 L 30.5664 -70.459 L 28.0762 -70.459 L 0.976562 0 L 3.66211 0 L 12.9395 -24.4629 L 45.7031 -24.4629 Z M 29.1992 -67.0898 L 29.4434 -67.0898 L 44.8242 -26.709 L 13.8184 -26.709 Z"/>
  </g>
  <line id="Baseline-M" style="fill:none;stroke:#27AAE1;opacity:1;stroke-width:0.577;" x1="263" x2="3036" y1="1126" y2="1126"/>
  <line id="Capline-M" style="fill:none;stroke:#27AAE1;opacity:1;stroke-width:0.577;" x1="263" x2="3036" y1="1055.54" y2="1055.54"/>
  <g id="H-reference" style="fill:#27AAE1;stroke:none;" transform="matrix(1 0 0 1 339 1556)">
   <path d="M 54.9316 0 L 57.666 0 L 30.5664 -70.459 L 28.0762 -70.459 L 0.976562 0 L 3.66211 0 L 12.9395 -24.4629 L 45.7031 -24.4629 Z M 29.1992 -67.0898 L 29.4434 -67.0898 L 44.8242 -26.709 L 13.8184 -26.709 Z"/>
  </g>
  <line id="Baseline-L" style="fill:none;stroke:#27AAE1;opacity:1;stroke-width:0.577;" x1="263" x2="3036" y1="1556" y2="1556"/>
  <line id="Capline-L" style="fill:none;stroke:#27AAE1;opacity:1;stroke-width:0.577;" x1="263" x2="3036" y1="1485.54" y2="1485.54"/>
  <rect height="119.336" id="left-margin" style="fill:#00AEEF;stroke:none;opacity:0.4;" width="8.74023" x="1391.3" y="1030.79"/>
  <rect height="119.336" id="right-margin" style="fill:#00AEEF;stroke:none;opacity:0.4;" width="8.74023" x="1499.65" y="1030.79"/>
 </g>
 <g id="Symbols">
  <g id="Black-L" transform="matrix(1 0 0 1 2854.05 1556)">
   <path d="M 79.3457 32.8613 C 116.748 32.8613 147.412 2.19727 147.412 -35.2051 C 147.412 -72.6074 116.748 -103.271 79.2969 -103.271 C 41.8945 -103.271 11.2793 -72.6074 11.2793 -35.2051 C 11.2793 2.19727 41.9434 32.8613 79.3457 32.8613 Z M 79.3457 12.4023 C 52.9785 12.4023 31.7383 -8.83789 31.7383 -35.2051 C 31.7383 -61.5723 52.9297 -82.8125 79.2969 -82.8125 C 105.664 -82.8125 126.953 -61.5723 126.953 -35.2051 C 127.002 -8.83789 105.713 12.4023 79.3457 12.4023 Z M 45.9961 -50.7324 L 45.9961 -39.6484 C 45.9961 -36.084 47.168 -34.5703 49.4141 -32.373 L 78.2715 -3.41797 C 83.0566 1.36719 88.4277 0.341797 93.0664 -4.24805 L 108.545 -19.7754 C 113.184 -24.3652 114.16 -29.834 109.424 -34.5215 L 80.4199 -63.3789 C 78.2227 -65.5762 76.6602 -66.7969 73.1934 -66.7969 L 61.9141 -66.7969 C 58.7891 -66.7969 56.9824 -66.0156 54.8828 -63.8672 L 48.8281 -57.8125 C 46.6309 -55.6152 45.9961 -53.9062 45.9961 -50.7324 Z M 70.7031 -42.1387 C 68.5059 -39.9414 64.9414 -39.9414 62.6465 -42.1875 C 60.4004 -44.3848 60.498 -48.0469 62.6465 -50.1953 C 64.8438 -52.3926 68.4082 -52.3926 70.6543 -50.1953 C 72.9004 -47.998 72.8516 -44.2871 70.7031 -42.1387 Z"/>
  </g>
  <g id="Heavy-L" transform="matrix(1 0 0 1 2558.39 1556)">
   <path d="M 78.2715 31.7871 C 115.088 31.7871 145.312 1.61133 145.312 -35.2051 C 145.312 -72.0215 115.039 -102.197 78.2715 -102.197 C 41.4551 -102.197 11.2793 -72.0215 11.2793 -35.2051 C 11.2793 1.61133 41.5039 31.7871 78.2715 31.7871 Z M 78.2715 14.0137 C 51.0254 14.0137 29.0527 -7.95898 29.0527 -35.2051 C 29.0527 -62.5 50.9766 -84.4727 78.2715 -84.4727 C 105.518 -84.4727 127.49 -62.5 127.539 -35.2051 C 127.539 -7.95898 105.566 14.0137 78.2715 14.0137 Z M 44.6777 -51.3672 L 44.6777 -39.9414 C 44.6777 -36.3281 45.9961 -34.8145 48.2422 -32.5684 L 77.8809 -2.92969 C 82.373 1.5625 87.3047 0.78125 91.6504 -3.56445 L 108.301 -20.2148 C 112.646 -24.5605 113.428 -29.541 108.936 -33.9844 L 79.2969 -63.5742 C 77.0996 -65.8203 75.4883 -67.1387 71.9238 -67.1387 L 60.3516 -67.1387 C 57.2754 -67.1387 55.5176 -66.3086 53.4668 -64.209 L 47.4609 -58.252 C 45.3125 -56.1035 44.6777 -54.4434 44.6777 -51.3672 Z M 68.8965 -42.9688 C 66.8457 -40.918 63.4766 -40.918 61.3281 -43.0176 C 59.2285 -45.1172 59.2773 -48.5352 61.3281 -50.5859 C 63.3789 -52.6367 66.748 -52.6367 68.8477 -50.5859 C 70.9961 -48.4863 70.9473 -45.0195 68.8965 -42.9688 Z"/>
  </g>
  <g id="Bold-L" transform="matrix(1 0 0 1 2262.88 1556)">
   <path d="M 77.0996 30.6152 C 113.232 30.6152 142.92 0.878906 142.92 -35.2051 C 142.92 -71.3379 113.184 -101.025 77.0508 -101.025 C 40.9668 -101.025 11.2793 -71.3379 11.2793 -35.2051 C 11.2793 0.878906 41.0156 30.6152 77.0996 30.6152 Z M 77.0996 15.8691 C 48.8281 15.8691 26.0742 -6.93359 26.0742 -35.2051 C 26.0742 -63.4766 48.7793 -86.2793 77.0508 -86.2793 C 105.371 -86.2793 128.125 -63.4766 128.174 -35.2051 C 128.174 -6.93359 105.371 15.8691 77.0996 15.8691 Z M 43.2129 -52.0508 L 43.2129 -40.2832 C 43.2129 -36.6211 44.6289 -35.0586 46.9238 -32.8125 L 77.3926 -2.39258 C 81.5918 1.80664 86.084 1.26953 90.1367 -2.7832 L 108.008 -20.7031 C 112.061 -24.7559 112.598 -29.248 108.398 -33.3984 L 78.0273 -63.8184 C 75.7812 -66.1133 74.1211 -67.5781 70.5566 -67.5781 L 58.5449 -67.5781 C 55.5664 -67.5781 53.9062 -66.6016 51.8555 -64.5996 L 45.9473 -58.7402 C 43.8965 -56.6895 43.2129 -55.0293 43.2129 -52.0508 Z M 66.8945 -43.9453 C 64.9902 -41.9922 61.8164 -41.9922 59.8633 -43.9453 C 57.9102 -45.8984 57.959 -49.1211 59.8145 -51.0254 C 61.7676 -52.9297 64.8926 -52.9297 66.8945 -51.0254 C 68.8477 -49.0723 68.7988 -45.8496 66.8945 -43.9453 Z"/>
  </g>
  <g id="Semibold-L" transform="matrix(1 0 0 1 1966.97 1556)">
   <path d="M 76.2695 29.7852 C 111.914 29.7852 141.309 0.439453 141.309 -35.2051 C 141.309 -70.8496 111.865 -100.244 76.2695 -100.244 C 40.625 -100.244 11.2793 -70.8496 11.2793 -35.2051 C 11.2793 0.439453 40.6738 29.7852 76.2695 29.7852 Z M 76.2695 17.0898 C 47.3145 17.0898 24.0234 -6.25 24.0234 -35.2051 C 24.0234 -64.209 47.2656 -87.5 76.2695 -87.5 C 105.225 -87.5 128.564 -64.209 128.613 -35.2051 C 128.662 -6.25 105.273 17.0898 76.2695 17.0898 Z M 42.1875 -52.5391 L 42.1875 -40.5273 C 42.1875 -36.8652 43.7012 -35.2051 46.0449 -32.959 L 77.0996 -2.05078 C 81.0547 1.95312 85.2051 1.61133 89.0625 -2.24609 L 107.812 -21.0938 C 111.67 -24.9023 112.012 -29.0039 108.057 -32.959 L 77.1484 -64.0137 C 74.8535 -66.3086 73.1934 -67.8223 69.5801 -67.8223 L 57.3242 -67.8223 C 54.3945 -67.8223 52.7344 -66.8457 50.7812 -64.8926 L 44.873 -59.082 C 42.8711 -57.0801 42.1875 -55.4199 42.1875 -52.5391 Z M 65.5273 -44.5801 C 63.6719 -42.7246 60.6934 -42.7246 58.8379 -44.6289 C 56.9824 -46.4844 56.9824 -49.4629 58.8379 -51.3184 C 60.6445 -53.125 63.623 -53.125 65.4785 -51.3184 C 67.3828 -49.4629 67.334 -46.3867 65.5273 -44.5801 Z"/>
  </g>
  <g id="Medium-L" transform="matrix(1 0 0 1 1670.87 1556)">
   <path d="M 75.6836 29.1992 C 110.938 29.1992 140.088 0.0488281 140.088 -35.2051 C 140.088 -70.459 110.889 -99.6094 75.6348 -99.6094 C 40.3809 -99.6094 11.2793 -70.459 11.2793 -35.2051 C 11.2793 0.0488281 40.3809 29.1992 75.6836 29.1992 Z M 75.6836 18.0664 C 46.1426 18.0664 22.4609 -5.71289 22.4609 -35.2051 C 22.4609 -64.6973 46.1426 -88.4766 75.6348 -88.4766 C 105.127 -88.4766 128.906 -64.6973 128.906 -35.2051 C 128.955 -5.71289 105.176 18.0664 75.6836 18.0664 Z M 41.4062 -52.8809 L 41.4062 -40.7227 C 41.4062 -37.0117 43.0176 -35.3516 45.3613 -33.0566 L 76.8555 -1.75781 C 80.6641 2.05078 84.5215 1.85547 88.2324 -1.85547 L 107.666 -21.3379 C 111.377 -25.0488 111.572 -28.8574 107.764 -32.666 L 76.5137 -64.1113 C 74.1699 -66.4551 72.5098 -68.0664 68.8477 -68.0664 L 56.3965 -68.0664 C 53.5156 -68.0664 51.9043 -66.9922 49.9512 -65.0879 L 44.0918 -59.3262 C 42.1387 -57.373 41.4062 -55.7617 41.4062 -52.8809 Z M 64.4531 -45.0684 C 62.6953 -43.3105 59.8633 -43.3105 58.0566 -45.1172 C 56.2988 -46.875 56.2988 -49.7559 58.0566 -51.5137 C 59.8145 -53.2715 62.6953 -53.2715 64.4531 -51.5137 C 66.2598 -49.7559 66.2109 -46.8262 64.4531 -45.0684 Z"/>
  </g>
  <g id="Regular-L" transform="matrix(1 0 0 1 1374.97 1556)">
   <path d="M 74.8535 28.3691 C 109.668 28.3691 138.477 -0.390625 138.477 -35.2051 C 138.477 -70.0195 109.619 -98.7793 74.8047 -98.7793 C 40.0391 -98.7793 11.2793 -70.0195 11.2793 -35.2051 C 11.2793 -0.390625 40.0879 28.3691 74.8535 28.3691 Z M 74.8535 19.2871 C 44.6777 19.2871 20.4102 -5.0293 20.4102 -35.2051 C 20.4102 -65.3809 44.6289 -89.6973 74.8047 -89.6973 C 105.029 -89.6973 129.297 -65.3809 129.346 -35.2051 C 129.395 -5.0293 105.078 19.2871 74.8535 19.2871 Z M 40.4297 -53.3203 L 40.4297 -40.9668 C 40.4297 -37.207 42.0898 -35.498 44.4824 -33.2031 L 76.5137 -1.41602 C 80.127 2.24609 83.6914 2.14844 87.1582 -1.31836 L 107.471 -21.6797 C 110.986 -25.1465 110.986 -28.6133 107.422 -32.2266 L 75.6348 -64.3066 C 73.291 -66.6504 71.582 -68.3594 67.9199 -68.3594 L 55.1758 -68.3594 C 52.3438 -68.3594 50.7812 -67.2363 48.8281 -65.332 L 43.0664 -59.668 C 41.1621 -57.7637 40.4297 -56.1523 40.4297 -53.3203 Z M 63.0859 -45.7031 C 61.4258 -44.043 58.7402 -44.043 57.0801 -45.752 C 55.4199 -47.4609 55.3711 -50.1465 57.0312 -51.8066 C 58.6914 -53.4668 61.4258 -53.4668 63.0859 -51.8066 C 64.7949 -50.1465 64.7461 -47.3633 63.0859 -45.7031 Z"/>
  </g>
  <g id="Light-L" transform="matrix(1 0 0 1 1079.18 1556)">
   <path d="M 73.9258 27.4902 C 108.301 27.4902 136.621 -0.830078 136.621 -35.1562 C 136.621 -69.5312 108.252 -97.8516 73.9258 -97.8516 C 39.5508 -97.8516 11.2793 -69.5312 11.2793 -35.1562 C 11.2793 -0.830078 39.5996 27.4902 73.9258 27.4902 Z M 73.9258 20.6055 C 43.1152 20.6055 18.2129 -4.3457 18.2129 -35.1562 C 18.2129 -66.0156 43.0664 -90.918 73.9258 -90.918 C 104.736 -90.918 129.688 -66.0156 129.736 -35.1562 C 129.736 -4.3457 104.785 20.6055 73.9258 20.6055 Z M 39.7949 -54.0527 L 39.7949 -41.1621 C 39.7949 -37.6465 41.2598 -35.9863 43.5547 -33.7891 L 76.9531 -0.634766 C 80.1758 2.58789 83.3008 2.49023 86.3281 -0.537109 L 108.154 -22.4121 C 111.182 -25.4395 111.23 -28.4668 108.105 -31.6895 L 74.9512 -65.0391 C 72.7051 -67.334 71.0449 -68.7988 67.5781 -68.7988 L 54.4922 -68.7988 C 51.7578 -68.7988 50.293 -67.8223 48.4375 -66.0156 L 42.3828 -60.1074 C 40.5273 -58.3008 39.7949 -56.7871 39.7949 -54.0527 Z M 62.5 -46.2402 C 60.9375 -44.6777 58.3984 -44.6777 56.8359 -46.2402 C 55.2734 -47.8516 55.2246 -50.3906 56.7871 -51.9531 C 58.3496 -53.5156 60.9375 -53.4668 62.5 -51.9531 C 64.0625 -50.3906 64.0137 -47.7539 62.5 -46.2402 Z"/>
  </g>
  <g id="Thin-L" transform="matrix(1 0 0 1 783.693 1556)">
   <path d="M 72.7051 26.3184 C 106.494 26.3184 134.18 -1.36719 134.18 -35.1074 C 134.18 -68.8965 106.494 -96.582 72.7051 -96.582 C 38.9648 -96.582 11.2793 -68.8965 11.2793 -35.1074 C 11.2793 -1.36719 38.9648 26.3184 72.7051 26.3184 Z M 72.7051 22.3145 C 41.0156 22.3145 15.2832 -3.41797 15.2832 -35.1074 C 15.2832 -66.8457 41.0156 -92.5781 72.7051 -92.5781 C 104.395 -92.5781 130.176 -66.8457 130.176 -35.1074 C 130.176 -3.41797 104.443 22.3145 72.7051 22.3145 Z M 39.0137 -54.9805 L 39.0137 -41.4551 C 39.0137 -38.2324 40.1855 -36.6211 42.334 -34.5703 L 77.5391 0.390625 C 80.1758 3.02734 82.8125 2.88086 85.2539 0.488281 L 109.082 -23.3398 C 111.475 -25.7812 111.572 -28.3203 108.984 -30.957 L 74.0234 -66.0645 C 71.875 -68.1641 70.3125 -69.3848 67.1387 -69.3848 L 53.5645 -69.3848 C 50.9766 -69.3848 49.6582 -68.6035 47.8516 -66.8945 L 41.4551 -60.6934 C 39.6484 -58.9844 39.0137 -57.5684 39.0137 -54.9805 Z M 61.6699 -46.9238 C 60.2539 -45.5078 57.9102 -45.5078 56.543 -46.9238 C 55.127 -48.3887 55.0781 -50.6836 56.4941 -52.0996 C 57.8613 -53.5156 60.2539 -53.4668 61.6699 -52.0996 C 63.1348 -50.6836 63.0859 -48.3398 61.6699 -46.9238 Z"/>
  </g>
  <g id="Ultralight-L" transform="matrix(1 0 0 1 487.616 1556)">
   <path d="M 72.1191 25.7324 C 105.566 25.7324 132.91 -1.61133 132.91 -35.1074 C 132.91 -68.5547 105.566 -95.8984 72.1191 -95.8984 C 38.623 -95.8984 11.2793 -68.5547 11.2793 -35.1074 C 11.2793 -1.61133 38.623 25.7324 72.1191 25.7324 Z M 72.1191 23.2422 C 39.9414 23.2422 13.7695 -2.97852 13.7695 -35.1074 C 13.7695 -67.2363 39.9414 -93.4082 72.1191 -93.4082 C 104.248 -93.4082 130.42 -67.2363 130.42 -35.1074 C 130.42 -2.97852 104.248 23.2422 72.1191 23.2422 Z M 38.5742 -55.4199 L 38.5742 -41.6016 C 38.5742 -38.5742 39.6484 -36.9629 41.6992 -34.9609 L 77.832 0.927734 C 80.2246 3.27148 82.5684 3.125 84.668 1.02539 L 109.521 -23.8281 C 111.621 -25.9277 111.719 -28.2227 109.473 -30.5664 L 73.5352 -66.5527 C 71.4844 -68.6035 69.9707 -69.6777 66.8945 -69.6777 L 53.125 -69.6777 C 50.5859 -69.6777 49.3164 -68.9941 47.5586 -67.334 L 40.9668 -60.9863 C 39.209 -59.3262 38.5742 -58.0078 38.5742 -55.4199 Z M 61.2793 -47.2656 C 59.9121 -45.9473 57.6172 -45.9473 56.3965 -47.2656 C 55.0781 -48.6816 54.9805 -50.8789 56.2988 -52.1973 C 57.666 -53.5156 59.9121 -53.4668 61.2793 -52.1973 C 62.6953 -50.8789 62.5977 -48.584 61.2793 -47.2656 Z"/>
  </g>
  <g id="Black-M" transform="matrix(1 0 0 1 2870.97 1126)">
   <path d="M 62.4023 18.457 C 91.9922 18.457 116.113 -5.61523 116.113 -35.2051 C 116.113 -64.7949 91.9922 -88.8672 62.4023 -88.8672 C 32.8125 -88.8672 8.74023 -64.7949 8.74023 -35.2051 C 8.74023 -5.61523 32.8125 18.457 62.4023 18.457 Z M 62.4023 0.195312 C 42.8711 0.195312 27.002 -15.625 27.002 -35.2051 C 27.002 -54.7363 42.8711 -70.6055 62.4023 -70.6055 C 81.9824 -70.6055 97.8027 -54.7363 97.8027 -35.2051 C 97.8027 -15.625 81.9824 0.195312 62.4023 0.195312 Z M 37.1094 -46.8262 L 37.1094 -38.3301 C 37.1094 -35.7422 37.7441 -34.7168 39.3555 -33.1055 L 61.4746 -10.791 C 65.2832 -6.98242 69.873 -8.05664 73.5352 -11.7676 L 84.8145 -23.0469 C 88.5254 -26.709 89.5996 -31.3477 85.791 -35.1074 L 63.4766 -57.1289 C 61.8652 -58.7402 60.7422 -59.4238 58.2031 -59.4238 L 49.7559 -59.4238 C 47.2656 -59.4238 45.8984 -58.9844 44.2383 -57.3242 L 39.2578 -52.3926 C 37.5 -50.6348 37.1094 -49.3164 37.1094 -46.8262 Z M 56.8848 -39.7461 C 55.0781 -37.9395 52.0996 -37.9395 50.1953 -39.7461 C 48.3398 -41.5527 48.4375 -44.6289 50.1953 -46.3867 C 52.002 -48.1934 54.9805 -48.1934 56.8359 -46.3867 C 58.7402 -44.5801 58.6426 -41.5039 56.8848 -39.7461 Z"/>
  </g>
  <g id="Heavy-M" transform="matrix(1 0 0 1 2575.19 1126)">
   <path d="M 61.5234 17.5781 C 90.5273 17.5781 114.258 -6.15234 114.258 -35.2051 C 114.258 -64.2578 90.5273 -87.9883 61.4746 -87.9883 C 32.4707 -87.9883 8.74023 -64.2578 8.74023 -35.2051 C 8.74023 -6.15234 32.4707 17.5781 61.5234 17.5781 Z M 61.5234 1.66016 C 41.1133 1.66016 24.6582 -14.8438 24.6582 -35.2051 C 24.6582 -55.5664 41.1133 -72.0703 61.4746 -72.0703 C 81.8848 -72.0703 98.3398 -55.5664 98.3398 -35.2051 C 98.3398 -14.8438 81.8848 1.66016 61.5234 1.66016 Z M 35.791 -47.3145 L 35.791 -38.623 C 35.791 -35.9375 36.6699 -34.8145 38.3301 -33.1543 L 60.8887 -10.4492 C 64.5508 -6.83594 68.75 -7.66602 72.2656 -11.1816 L 84.375 -23.3398 C 87.8906 -26.8555 88.7207 -31.1035 85.1074 -34.668 L 62.4512 -57.1777 C 60.7422 -58.8867 59.5703 -59.7168 56.9336 -59.7168 L 48.1934 -59.7168 C 45.752 -59.7168 44.4336 -59.1797 42.7734 -57.5195 L 37.9883 -52.7344 C 36.2793 -51.0254 35.791 -49.7559 35.791 -47.3145 Z M 55.0781 -40.5273 C 53.3691 -38.8184 50.5859 -38.8184 48.8281 -40.5273 C 47.0703 -42.2363 47.168 -45.1172 48.8281 -46.7773 C 50.5371 -48.4863 53.2715 -48.4863 55.0293 -46.7773 C 56.7871 -45.0684 56.7383 -42.1875 55.0781 -40.5273 Z"/>
  </g>
  <g id="Bold-M" transform="matrix(1 0 0 1 2279.5 1126)">
   <path d="M 60.498 16.5039 C 88.8672 16.5039 112.207 -6.78711 112.207 -35.2051 C 112.207 -63.623 88.8672 -86.9629 60.4492 -86.9629 C 32.0312 -86.9629 8.74023 -63.623 8.74023 -35.2051 C 8.74023 -6.78711 32.0801 16.5039 60.498 16.5039 Z M 60.498 3.22266 C 39.1602 3.22266 22.0703 -13.916 22.0703 -35.2051 C 22.0703 -56.4941 39.1602 -73.6816 60.4492 -73.6816 C 81.7383 -73.6816 98.9258 -56.4941 98.9258 -35.2051 C 98.9746 -13.916 81.7871 3.22266 60.498 3.22266 Z M 34.375 -47.8516 L 34.375 -38.9648 C 34.375 -36.1328 35.4004 -34.9121 37.1582 -33.2031 L 60.2539 -10.1074 C 63.6719 -6.68945 67.4805 -7.22656 70.8008 -10.5469 L 83.8867 -23.6816 C 87.207 -27.002 87.7441 -30.7617 84.3262 -34.1797 L 61.2793 -57.2266 C 59.5215 -58.9844 58.252 -60.0098 55.5176 -60.0098 L 46.4355 -60.0098 C 44.0918 -60.0098 42.7734 -59.3262 41.1621 -57.7637 L 36.5234 -53.125 C 34.9121 -51.5137 34.375 -50.1953 34.375 -47.8516 Z M 53.0762 -41.4062 C 51.4648 -39.7949 48.9258 -39.7949 47.2656 -41.4062 C 45.6543 -43.0176 45.7031 -45.6543 47.2656 -47.2168 C 48.8281 -48.7793 51.416 -48.7793 53.0273 -47.2168 C 54.6387 -45.6055 54.6387 -42.9688 53.0762 -41.4062 Z"/>
  </g>
  <g id="Semibold-M" transform="matrix(1 0 0 1 1983.5 1126)">
   <path d="M 59.7656 15.8203 C 87.7441 15.8203 110.791 -7.22656 110.791 -35.2051 C 110.791 -63.1836 87.6953 -86.2793 59.7656 -86.2793 C 31.7871 -86.2793 8.74023 -63.1836 8.74023 -35.2051 C 8.74023 -7.22656 31.7871 15.8203 59.7656 15.8203 Z M 59.7656 4.3457 C 37.8418 4.3457 20.2637 -13.2812 20.2637 -35.2051 C 20.2637 -57.1289 37.793 -74.8047 59.7656 -74.8047 C 81.6895 -74.8047 99.3164 -57.1289 99.3652 -35.2051 C 99.3652 -13.2812 81.6895 4.3457 59.7656 4.3457 Z M 33.3984 -48.1934 L 33.3984 -39.1602 C 33.3984 -36.2793 34.5703 -35.0098 36.377 -33.252 L 59.8145 -9.86328 C 63.1348 -6.5918 66.6016 -6.93359 69.7754 -10.1562 L 83.4961 -23.9258 C 86.7188 -27.0996 87.0605 -30.5664 83.7891 -33.8379 L 60.4492 -57.2754 C 58.6426 -59.082 57.373 -60.2539 54.541 -60.2539 L 45.2637 -60.2539 C 42.9199 -60.2539 41.6016 -59.4727 40.0391 -57.9102 L 35.5469 -53.418 C 33.9355 -51.8555 33.3984 -50.5371 33.3984 -48.1934 Z M 51.6602 -41.9922 C 50.1953 -40.4785 47.7539 -40.4785 46.1914 -42.041 C 44.6777 -43.5547 44.7266 -45.9961 46.1914 -47.5098 C 47.7051 -48.9746 50.1465 -48.9746 51.6602 -47.5098 C 53.1738 -45.9961 53.1738 -43.457 51.6602 -41.9922 Z"/>
  </g>
  <g id="Medium-M" transform="matrix(1 0 0 1 1687.3 1126)">
   <path d="M 59.2285 15.2832 C 86.9141 15.2832 109.766 -7.56836 109.766 -35.2051 C 109.766 -62.8906 86.8652 -85.7422 59.1797 -85.7422 C 31.543 -85.7422 8.74023 -62.8906 8.74023 -35.2051 C 8.74023 -7.56836 31.5918 15.2832 59.2285 15.2832 Z M 59.2285 5.17578 C 36.8164 5.17578 18.8965 -12.8418 18.8965 -35.2051 C 18.8965 -57.6172 36.8164 -75.6348 59.1797 -75.6348 C 81.5918 -75.6348 99.6094 -57.6172 99.6582 -35.2051 C 99.707 -12.8418 81.6406 5.17578 59.2285 5.17578 Z M 32.666 -48.4863 L 32.666 -39.3066 C 32.666 -36.377 33.9355 -35.1074 35.791 -33.3008 L 59.4727 -9.66797 C 62.6953 -6.49414 65.918 -6.73828 69.043 -9.81445 L 83.252 -24.0723 C 86.3281 -27.1973 86.5723 -30.3711 83.3984 -33.5938 L 59.8145 -57.2754 C 58.0078 -59.1309 56.6895 -60.4004 53.7598 -60.4004 L 44.3359 -60.4004 C 42.041 -60.4004 40.7227 -59.5703 39.209 -58.0078 L 34.7656 -53.6133 C 33.2031 -52.0996 32.666 -50.7812 32.666 -48.4863 Z M 50.6348 -42.4805 C 49.1699 -41.0156 46.875 -41.0156 45.4102 -42.4805 C 43.9453 -43.9453 43.9453 -46.2891 45.4102 -47.7051 C 46.8262 -49.1699 49.1699 -49.1211 50.5859 -47.7051 C 52.0508 -46.2891 52.0508 -43.8965 50.6348 -42.4805 Z"/>
  </g>
  <g id="Regular-M" transform="matrix(1 0 0 1 1391.3 1126)">
   <path d="M 58.5449 14.5508 C 85.791 14.5508 108.35 -8.00781 108.35 -35.2539 C 108.35 -62.4512 85.7422 -85.0586 58.4961 -85.0586 C 31.2988 -85.0586 8.74023 -62.4512 8.74023 -35.2539 C 8.74023 -8.00781 31.3477 14.5508 58.5449 14.5508 Z M 58.5449 6.25 C 35.498 6.25 17.0898 -12.207 17.0898 -35.2539 C 17.0898 -58.252 35.4492 -76.7578 58.4961 -76.7578 C 81.543 -76.7578 100 -58.252 100.049 -35.2539 C 100.098 -12.207 81.5918 6.25 58.5449 6.25 Z M 31.6895 -48.877 L 31.6895 -39.5508 C 31.6895 -36.5234 33.0566 -35.1562 35.0098 -33.3008 L 59.0332 -9.47266 C 62.1094 -6.39648 65.0391 -6.44531 68.0176 -9.375 L 82.9102 -24.3164 C 85.8887 -27.2949 85.8887 -30.1758 82.8613 -33.252 L 59.0332 -57.3242 C 57.1777 -59.2285 55.7617 -60.6445 52.832 -60.6445 L 43.1641 -60.6445 C 40.918 -60.6445 39.5996 -59.668 38.0859 -58.2031 L 33.7891 -53.9062 C 32.2754 -52.3926 31.6895 -51.123 31.6895 -48.877 Z M 49.2188 -43.0664 C 47.9004 -41.6992 45.752 -41.6992 44.3359 -43.1152 C 43.0176 -44.4824 42.9688 -46.6309 44.3359 -47.998 C 45.7031 -49.3652 47.9004 -49.3652 49.2188 -47.998 C 50.5859 -46.6309 50.5859 -44.3848 49.2188 -43.0664 Z"/>
  </g>
  <g id="Light-M" transform="matrix(1 0 0 1 1095.42 1126)">
   <path d="M 57.7148 13.7695 C 84.5215 13.7695 106.689 -8.39844 106.689 -35.2051 C 106.689 -62.0117 84.5215 -84.1797 57.666 -84.1797 C 30.8594 -84.1797 8.74023 -62.0117 8.74023 -35.2051 C 8.74023 -8.39844 30.9082 13.7695 57.7148 13.7695 Z M 57.7148 7.4707 C 34.082 7.4707 15.0879 -11.5723 15.0879 -35.2051 C 15.0879 -58.8379 34.082 -77.832 57.666 -77.832 C 81.2988 -77.832 100.342 -58.8379 100.391 -35.2051 C 100.391 -11.5723 81.3477 7.4707 57.7148 7.4707 Z M 31.1035 -49.5117 L 31.1035 -39.7461 C 31.1035 -36.9141 32.3242 -35.5957 34.1797 -33.8379 L 59.4238 -8.74023 C 62.1094 -6.10352 64.7461 -6.15234 67.2852 -8.69141 L 83.5449 -24.9512 C 86.084 -27.5391 86.084 -30.0781 83.4473 -32.7148 L 58.3984 -58.0078 C 56.5918 -59.8145 55.2734 -61.0352 52.4902 -61.0352 L 42.5293 -61.0352 C 40.3809 -61.0352 39.1602 -60.2051 37.6953 -58.7891 L 33.1543 -54.2969 C 31.6895 -52.8809 31.1035 -51.6602 31.1035 -49.5117 Z M 48.6816 -43.5059 C 47.4609 -42.2852 45.4102 -42.2852 44.1406 -43.5547 C 42.9199 -44.8242 42.8711 -46.875 44.1406 -48.1445 C 45.3613 -49.3652 47.4609 -49.3652 48.6816 -48.1445 C 50 -46.875 49.9512 -44.7754 48.6816 -43.5059 Z"/>
  </g>
  <g id="Thin-M" transform="matrix(1 0 0 1 799.806 1126)">
   <path d="M 56.6406 12.7441 C 82.9102 12.7441 104.492 -8.83789 104.492 -35.1562 C 104.492 -61.4746 82.9102 -83.0566 56.5918 -83.0566 C 30.3223 -83.0566 8.74023 -61.4746 8.74023 -35.1562 C 8.74023 -8.83789 30.3223 12.7441 56.6406 12.7441 Z M 56.6406 8.98438 C 32.2266 8.98438 12.4512 -10.791 12.4512 -35.1562 C 12.4512 -59.5215 32.2266 -79.2969 56.5918 -79.2969 C 81.0059 -79.2969 100.781 -59.5215 100.781 -35.1562 C 100.781 -10.791 81.0059 8.98438 56.6406 8.98438 Z M 30.3711 -50.3418 L 30.3711 -39.9902 C 30.3711 -37.4512 31.3965 -36.1816 33.0566 -34.5703 L 59.9609 -7.8125 C 62.1582 -5.66406 64.3066 -5.76172 66.3086 -7.76367 L 84.3262 -25.8301 C 86.3281 -27.832 86.377 -29.9316 84.2773 -32.0801 L 57.5684 -58.8867 C 55.9082 -60.5957 54.6387 -61.5723 52.0996 -61.5723 L 41.6992 -61.5723 C 39.6484 -61.5723 38.623 -60.9375 37.207 -59.5703 L 32.3242 -54.834 C 30.9082 -53.4668 30.3711 -52.3926 30.3711 -50.3418 Z M 47.9492 -44.1406 C 46.8262 -43.0176 44.9707 -43.0176 43.8965 -44.1406 C 42.7734 -45.3125 42.7246 -47.168 43.8477 -48.291 C 44.9707 -49.4141 46.8262 -49.3652 47.9492 -48.291 C 49.1211 -47.168 49.0723 -45.2637 47.9492 -44.1406 Z"/>
  </g>
  <g id="Ultralight-M" transform="matrix(1 0 0 1 503.656 1126)">
   <path d="M 56.0547 12.207 C 82.0801 12.207 103.369 -9.08203 103.369 -35.1562 C 103.369 -61.1816 82.0801 -82.4707 56.0547 -82.4707 C 30.0293 -82.4707 8.74023 -61.1816 8.74023 -35.1562 C 8.74023 -9.08203 30.0293 12.207 56.0547 12.207 Z M 56.0547 9.81445 C 31.2988 9.81445 11.1328 -10.3516 11.1328 -35.1562 C 11.1328 -59.9121 31.2988 -80.0781 56.0547 -80.0781 C 80.8594 -80.0781 100.977 -59.9121 100.977 -35.1562 C 100.977 -10.3516 80.8594 9.81445 56.0547 9.81445 Z M 30.0293 -50.7324 L 30.0293 -40.1367 C 30.0293 -37.6953 30.9082 -36.4746 32.5195 -34.9121 L 60.2539 -7.37305 C 62.1582 -5.46875 64.0625 -5.56641 65.7715 -7.32422 L 84.7656 -26.2695 C 86.4746 -27.9785 86.5234 -29.834 84.668 -31.7383 L 57.1289 -59.375 C 55.5176 -60.9863 54.3457 -61.8164 51.9043 -61.8164 L 41.3086 -61.8164 C 39.3066 -61.8164 38.3301 -61.2793 36.9629 -59.9609 L 31.8848 -55.0781 C 30.5176 -53.8086 30.0293 -52.7344 30.0293 -50.7324 Z M 47.6074 -44.4336 C 46.5332 -43.4082 44.7266 -43.4082 43.75 -44.4336 C 42.7246 -45.5566 42.627 -47.3145 43.7012 -48.3398 C 44.7266 -49.4141 46.5332 -49.3652 47.6074 -48.3398 C 48.7305 -47.3145 48.6328 -45.5078 47.6074 -44.4336 Z"/>
  </g>
  <g id="Black-S" transform="matrix(1 0 0 1 2884.57 696)">
   <path d="M 48.8281 6.78711 C 71.9727 6.78711 90.8203 -12.0605 90.8203 -35.2051 C 90.8203 -58.3496 71.9727 -77.1973 48.8281 -77.1973 C 25.6836 -77.1973 6.83594 -58.3496 6.83594 -35.2051 C 6.83594 -12.0605 25.6836 6.78711 48.8281 6.78711 Z M 48.8281 -7.37305 C 33.4473 -7.37305 20.9961 -19.8242 20.9961 -35.2051 C 20.9961 -50.5859 33.4473 -63.0371 48.8281 -63.0371 C 64.209 -63.0371 76.6602 -50.5859 76.6602 -35.2051 C 76.6602 -19.8242 64.209 -7.37305 48.8281 -7.37305 Z M 28.9551 -44.3359 L 28.9551 -37.6953 C 28.9551 -35.6445 29.4922 -34.8145 30.7617 -33.5449 L 48.0957 -16.0645 C 51.0742 -13.0859 54.6387 -13.916 57.5195 -16.7969 L 66.4062 -25.6836 C 69.2871 -28.5645 70.1172 -32.1777 67.1387 -35.1074 L 49.6582 -52.3926 C 48.3887 -53.6621 47.5098 -54.1992 45.5078 -54.1992 L 38.8672 -54.1992 C 36.9141 -54.1992 35.8398 -53.8574 34.5215 -52.5391 L 30.6641 -48.6816 C 29.2969 -47.3145 28.9551 -46.2891 28.9551 -44.3359 Z M 44.4336 -38.8184 C 43.0176 -37.4023 40.6738 -37.4023 39.209 -38.8184 C 37.7441 -40.2344 37.8418 -42.627 39.209 -43.9941 C 40.625 -45.4102 42.9199 -45.4102 44.3848 -43.9941 C 45.8496 -42.5781 45.8008 -40.1855 44.4336 -38.8184 Z"/>
  </g>
  <g id="Heavy-S" transform="matrix(1 0 0 1 2588.47 696)">
   <path d="M 48.2422 6.15234 C 70.9961 6.15234 89.5996 -12.4512 89.5996 -35.2051 C 89.5996 -57.959 70.9961 -76.6113 48.1934 -76.6113 C 25.4395 -76.6113 6.83594 -57.959 6.83594 -35.2051 C 6.83594 -12.4512 25.4395 6.15234 48.2422 6.15234 Z M 48.2422 -6.39648 C 32.2754 -6.39648 19.4336 -19.2871 19.4336 -35.2051 C 19.4336 -51.1719 32.2754 -64.0137 48.1934 -64.0137 C 64.1602 -64.0137 77.002 -51.1719 77.0508 -35.2051 C 77.0508 -19.2871 64.1602 -6.39648 48.2422 -6.39648 Z M 28.0273 -44.6289 L 28.0273 -37.8906 C 28.0273 -35.7422 28.7109 -34.8633 30.0781 -33.5449 L 47.6074 -15.918 C 50.4883 -13.0371 53.8086 -13.6719 56.5918 -16.4551 L 65.9668 -25.8301 C 68.7988 -28.6621 69.4336 -31.9824 66.5527 -34.8145 L 48.9258 -52.3438 C 47.6074 -53.6621 46.6797 -54.3945 44.5801 -54.3945 L 37.7441 -54.3945 C 35.8398 -54.3945 34.7656 -53.9062 33.4473 -52.6367 L 29.7363 -48.9258 C 28.418 -47.6074 28.0273 -46.5332 28.0273 -44.6289 Z M 43.1152 -39.3555 C 41.748 -38.0371 39.5508 -38.0371 38.1836 -39.3555 C 36.8164 -40.7227 36.8652 -42.9688 38.1836 -44.2871 C 39.502 -45.6055 41.6992 -45.6055 43.0664 -44.2871 C 44.4336 -42.9199 44.4336 -40.6738 43.1152 -39.3555 Z"/>
  </g>
  <g id="Bold-S" transform="matrix(1 0 0 1 2292.44 696)">
   <path d="M 47.5586 5.46875 C 69.873 5.46875 88.2324 -12.8906 88.2324 -35.2051 C 88.2324 -57.5684 69.873 -75.9277 47.5098 -75.9277 C 25.1953 -75.9277 6.83594 -57.5684 6.83594 -35.2051 C 6.83594 -12.8906 25.1953 5.46875 47.5586 5.46875 Z M 47.5586 -5.32227 C 30.957 -5.32227 17.6758 -18.6523 17.6758 -35.2051 C 17.6758 -51.8066 30.957 -65.1367 47.5098 -65.1367 C 64.1113 -65.1367 77.4414 -51.8066 77.4414 -35.2051 C 77.4414 -18.6523 64.1113 -5.32227 47.5586 -5.32227 Z M 27.002 -44.9707 L 27.002 -38.0859 C 27.002 -35.8398 27.8809 -34.9121 29.2969 -33.4961 L 47.0703 -15.7227 C 49.8535 -12.9395 52.8809 -13.3789 55.5664 -16.0645 L 65.5273 -26.0254 C 68.2129 -28.7109 68.6523 -31.7383 65.8691 -34.5215 L 48.0957 -52.2949 C 46.7285 -53.7109 45.7031 -54.5898 43.5059 -54.5898 L 36.4746 -54.5898 C 34.6191 -54.5898 33.5449 -54.0039 32.2754 -52.7344 L 28.7109 -49.1699 C 27.4414 -47.9004 27.002 -46.8262 27.002 -44.9707 Z M 41.6504 -39.9902 C 40.3809 -38.7207 38.3301 -38.7207 37.0117 -39.9902 C 35.7422 -41.2598 35.791 -43.3594 37.0117 -44.5801 C 38.2812 -45.8496 40.332 -45.8496 41.6016 -44.5801 C 42.9199 -43.3105 42.8711 -41.2109 41.6504 -39.9902 Z"/>
  </g>
  <g id="Semibold-S" transform="matrix(1 0 0 1 1996.2 696)">
   <path d="M 47.0703 4.98047 C 69.0918 4.98047 87.3047 -13.1836 87.3047 -35.2539 C 87.3047 -57.2754 69.0918 -75.4883 47.0215 -75.4883 C 25 -75.4883 6.83594 -57.2754 6.83594 -35.2539 C 6.83594 -13.1836 25.0488 4.98047 47.0703 4.98047 Z M 47.0703 -4.58984 C 30.0781 -4.58984 16.4551 -18.2129 16.4551 -35.2539 C 16.4551 -52.2461 30.0293 -65.8691 47.0215 -65.8691 C 64.0625 -65.8691 77.6855 -52.2461 77.7344 -35.2539 C 77.7344 -18.2129 64.0625 -4.58984 47.0703 -4.58984 Z M 26.3184 -45.2148 L 26.3184 -38.2324 C 26.3184 -35.9375 27.2949 -34.9121 28.7598 -33.4961 L 46.7285 -15.5762 C 49.4141 -12.8906 52.2461 -13.1348 54.8828 -15.7715 L 65.1855 -26.1719 C 67.8223 -28.8086 68.1152 -31.5918 65.4297 -34.2773 L 47.5098 -52.2461 C 46.0938 -53.7109 45.0684 -54.6875 42.7734 -54.6875 L 35.5957 -54.6875 C 33.7402 -54.6875 32.7148 -54.0527 31.4453 -52.7832 L 27.9785 -49.3652 C 26.7578 -48.0957 26.3184 -47.0703 26.3184 -45.2148 Z M 40.625 -40.3809 C 39.4043 -39.209 37.4512 -39.209 36.2305 -40.4297 C 35.0098 -41.6504 35.0098 -43.6035 36.2305 -44.8242 C 37.4512 -45.9961 39.3555 -45.9961 40.5762 -44.8242 C 41.7969 -43.6035 41.7969 -41.6016 40.625 -40.3809 Z"/>
  </g>
  <g id="Medium-S" transform="matrix(1 0 0 1 1699.83 696)">
   <path d="M 46.7285 4.63867 C 68.5547 4.63867 86.6211 -13.4277 86.6211 -35.2539 C 86.6211 -57.0312 68.5059 -75.1465 46.6797 -75.1465 C 24.8535 -75.1465 6.83594 -57.0312 6.83594 -35.2539 C 6.83594 -13.4277 24.9023 4.63867 46.7285 4.63867 Z M 46.7285 -4.00391 C 29.3945 -4.00391 15.5273 -17.9199 15.5273 -35.2539 C 15.5273 -52.5879 29.3457 -66.4551 46.6797 -66.4551 C 64.0137 -66.4551 77.8809 -52.5879 77.9297 -35.2539 C 77.9785 -17.9199 64.0625 -4.00391 46.7285 -4.00391 Z M 25.7812 -45.3613 L 25.7812 -38.3789 C 25.7812 -35.9863 26.8555 -34.9609 28.3203 -33.4961 L 46.4355 -15.4785 C 49.0723 -12.8418 51.7578 -12.9883 54.3457 -15.5762 L 64.9414 -26.2695 C 67.5293 -28.8574 67.7246 -31.4941 65.0391 -34.1309 L 47.1191 -52.2461 C 45.6543 -53.7598 44.5801 -54.834 42.2363 -54.834 L 34.9609 -54.834 C 33.1055 -54.834 32.0801 -54.1016 30.8105 -52.832 L 27.4414 -49.5117 C 26.2207 -48.2422 25.7812 -47.2168 25.7812 -45.3613 Z M 39.8438 -40.7227 C 38.6719 -39.5508 36.8164 -39.5508 35.6445 -40.7715 C 34.4727 -41.9434 34.4727 -43.7988 35.5957 -44.9707 C 36.7676 -46.1426 38.6719 -46.1426 39.8438 -44.9707 C 41.0156 -43.7988 41.0156 -41.8945 39.8438 -40.7227 Z"/>
  </g>
  <g id="Regular-S" transform="matrix(1 0 0 1 1403.58 696)">
   <path d="M 46.2402 4.15039 C 67.7734 4.15039 85.6934 -13.7207 85.6934 -35.2539 C 85.6934 -56.7871 67.7246 -74.6582 46.1914 -74.6582 C 24.707 -74.6582 6.83594 -56.7871 6.83594 -35.2539 C 6.83594 -13.7207 24.7559 4.15039 46.2402 4.15039 Z M 46.2402 -3.27148 C 28.5156 -3.27148 14.3555 -17.4805 14.3555 -35.2539 C 14.3555 -53.0273 28.4668 -67.2363 46.1914 -67.2363 C 63.9648 -67.2363 78.1738 -53.0273 78.2227 -35.2539 C 78.2715 -17.4805 64.0137 -3.27148 46.2402 -3.27148 Z M 25.0488 -45.6055 L 25.0488 -38.5254 C 25.0488 -36.0352 26.2695 -34.9609 27.7832 -33.4961 L 46.0449 -15.3809 C 48.6328 -12.793 51.123 -12.793 53.6621 -15.332 L 64.6484 -26.3672 C 67.1875 -28.9062 67.1875 -31.3477 64.5996 -33.8867 L 46.5332 -52.1973 C 45.0195 -53.7598 43.8965 -54.9316 41.5039 -54.9316 L 34.082 -54.9316 C 32.2754 -54.9316 31.25 -54.1504 30.0293 -52.9297 L 26.7578 -49.6582 C 25.5371 -48.4375 25.0488 -47.4121 25.0488 -45.6055 Z M 38.8184 -41.1133 C 37.7441 -40.0391 35.9863 -40.0391 34.8145 -41.1621 C 33.7402 -42.2852 33.7402 -44.0918 34.8145 -45.166 C 35.9375 -46.2891 37.7441 -46.2891 38.8184 -45.166 C 39.9414 -44.0918 39.9414 -42.2363 38.8184 -41.1133 Z"/>
  </g>
  <g id="Light-S" transform="matrix(1 0 0 1 1107.6 696)">
   <path d="M 45.5078 3.4668 C 66.6992 3.4668 84.2285 -14.0625 84.2285 -35.2051 C 84.2285 -56.3965 66.6504 -73.9258 45.5078 -73.9258 C 24.3164 -73.9258 6.83594 -56.3965 6.83594 -35.2051 C 6.83594 -14.0625 24.3652 3.4668 45.5078 3.4668 Z M 45.5078 -2.24609 C 27.2461 -2.24609 12.5977 -16.9434 12.5977 -35.2051 C 12.5977 -53.5156 27.1973 -68.2129 45.5078 -68.2129 C 63.7695 -68.2129 78.4668 -53.5156 78.5156 -35.2051 C 78.5156 -16.9434 63.8184 -2.24609 45.5078 -2.24609 Z M 24.5605 -46.1426 L 24.5605 -38.6719 C 24.5605 -36.377 25.5859 -35.3516 27.0508 -33.9355 L 46.3867 -14.7461 C 48.6328 -12.5 50.8301 -12.5488 52.9785 -14.6973 L 65.1855 -26.9531 C 67.334 -29.1016 67.3828 -31.25 65.1367 -33.4473 L 45.9961 -52.7832 C 44.5312 -54.248 43.5059 -55.2734 41.2598 -55.2734 L 33.5449 -55.2734 C 31.8359 -55.2734 30.8594 -54.5898 29.6875 -53.4668 L 26.2207 -50 C 25.0488 -48.877 24.5605 -47.9004 24.5605 -46.1426 Z M 38.3301 -41.5527 C 37.3047 -40.5273 35.6934 -40.5273 34.668 -41.6016 C 33.6426 -42.627 33.6426 -44.2871 34.6191 -45.2637 C 35.6445 -46.2891 37.3047 -46.2891 38.3301 -45.2637 C 39.4043 -44.2871 39.3555 -42.5781 38.3301 -41.5527 Z"/>
  </g>
  <g id="Thin-S" transform="matrix(1 0 0 1 811.867 696)">
   <path d="M 44.5801 2.53906 C 65.2832 2.53906 82.2754 -14.4531 82.2754 -35.2051 C 82.2754 -55.9082 65.2344 -72.9004 44.5312 -72.9004 C 23.8281 -72.9004 6.83594 -55.9082 6.83594 -35.2051 C 6.83594 -14.4531 23.877 2.53906 44.5801 2.53906 Z M 44.5801 -0.878906 C 25.5859 -0.878906 10.2539 -16.2109 10.2539 -35.2051 C 10.2539 -54.1504 25.5859 -69.4824 44.5312 -69.4824 C 63.5254 -69.4824 78.8574 -54.1504 78.8574 -35.2051 C 78.8574 -16.2109 63.5254 -0.878906 44.5801 -0.878906 Z M 23.9258 -46.875 L 23.9258 -38.916 C 23.9258 -36.8652 24.7559 -35.8398 26.123 -34.5703 L 46.875 -13.9648 C 48.6816 -12.1582 50.4395 -12.207 52.0996 -13.916 L 65.918 -27.6855 C 67.5781 -29.3457 67.627 -31.1035 65.8691 -32.9102 L 45.2637 -53.6133 C 43.8965 -54.9316 42.9199 -55.7617 40.918 -55.7617 L 32.8125 -55.7617 C 31.2012 -55.7617 30.3711 -55.2246 29.248 -54.1504 L 25.4883 -50.4883 C 24.3652 -49.4141 23.9258 -48.5352 23.9258 -46.875 Z M 37.6953 -42.0898 C 36.8164 -41.1621 35.3027 -41.1621 34.4238 -42.0898 C 33.5449 -43.0176 33.4961 -44.5312 34.375 -45.4102 C 35.3027 -46.3379 36.8164 -46.2891 37.6953 -45.4102 C 38.6719 -44.5312 38.623 -42.9688 37.6953 -42.0898 Z"/>
  </g>
  <g id="Ultralight-S" transform="matrix(1 0 0 1 515.644 696)">
   <path d="M 44.043 2.05078 C 64.502 2.05078 81.2988 -14.6973 81.2988 -35.1562 C 81.2988 -55.6152 64.502 -72.3633 44.043 -72.3633 C 23.584 -72.3633 6.83594 -55.6152 6.83594 -35.1562 C 6.83594 -14.6973 23.584 2.05078 44.043 2.05078 Z M 44.043 -0.146484 C 24.7559 -0.146484 9.08203 -15.8691 9.08203 -35.1562 C 9.08203 -54.4434 24.7559 -70.166 44.043 -70.166 C 63.3789 -70.166 79.0527 -54.4434 79.0527 -35.1562 C 79.0527 -15.8691 63.3789 -0.146484 44.043 -0.146484 Z M 23.6328 -47.2656 L 23.6328 -39.0137 C 23.6328 -37.1094 24.3164 -36.1328 25.5859 -34.9121 L 47.1191 -13.5254 C 48.6816 -11.9629 50.2441 -12.0605 51.6602 -13.4766 L 66.2598 -28.0762 C 67.6758 -29.4922 67.7246 -31.0059 66.2109 -32.5684 L 44.873 -54.0039 C 43.6035 -55.2734 42.627 -56.0059 40.7227 -56.0059 L 32.4707 -56.0059 C 30.8594 -56.0059 30.0781 -55.5664 29.0039 -54.4922 L 25.0977 -50.7324 C 24.0234 -49.707 23.6328 -48.8281 23.6328 -47.2656 Z M 37.4023 -42.3828 C 36.5234 -41.5039 35.1074 -41.5039 34.3262 -42.3828 C 33.4473 -43.2617 33.3984 -44.6289 34.2773 -45.5078 C 35.1074 -46.3379 36.5234 -46.2891 37.4023 -45.5078 C 38.2812 -44.6289 38.2324 -43.2129 37.4023 -42.3828 Z"/>
  </g>
 </g>
</svg>
