<?xml version="1.0" encoding="UTF-8"?>
<!--Generator: Apple Native CoreSVG 123-->
<!DOCTYPE svg
PUBLIC "-//W3C//DTD SVG 1.1//EN"
       "http://www.w3.org/Graphics/SVG/1.1/DTD/svg11.dtd">
<svg version="1.1" xmlns="http://www.w3.org/2000/svg" xmlns:xlink="http://www.w3.org/1999/xlink" width="3300" height="2200">
 <!--glyph: "uni1004E4.medium", point size: 100.000000, font version: "Version 15.0d7e11", template writer version: "5"-->
 <g id="Notes">
  <rect height="2200" id="artboard" style="fill:white;opacity:1" width="3300" x="0" y="0"/>
  <line id="" style="fill:none;stroke:black;opacity:1;stroke-width:0.5;" x1="263" x2="3036" y1="292" y2="292"/>
  <text style="stroke:none;fill:black;font-family:-apple-system,&quot;SF Pro Display&quot;,&quot;SF Pro Text&quot;,Helvetica,sans-serif;font-weight:bold;" transform="matrix(1 0 0 1 263 322)">Weight/Scale Variations</text>
  <text style="stroke:none;fill:black;font-family:-apple-system,&quot;SF Pro Display&quot;,&quot;SF Pro Text&quot;,Helvetica,sans-serif;text-anchor:middle;" transform="matrix(1 0 0 1 559.711 322)">Ultralight</text>
  <text style="stroke:none;fill:black;font-family:-apple-system,&quot;SF Pro Display&quot;,&quot;SF Pro Text&quot;,Helvetica,sans-serif;text-anchor:middle;" transform="matrix(1 0 0 1 856.422 322)">Thin</text>
  <text style="stroke:none;fill:black;font-family:-apple-system,&quot;SF Pro Display&quot;,&quot;SF Pro Text&quot;,Helvetica,sans-serif;text-anchor:middle;" transform="matrix(1 0 0 1 1153.13 322)">Light</text>
  <text style="stroke:none;fill:black;font-family:-apple-system,&quot;SF Pro Display&quot;,&quot;SF Pro Text&quot;,Helvetica,sans-serif;text-anchor:middle;" transform="matrix(1 0 0 1 1449.84 322)">Regular</text>
  <text style="stroke:none;fill:black;font-family:-apple-system,&quot;SF Pro Display&quot;,&quot;SF Pro Text&quot;,Helvetica,sans-serif;text-anchor:middle;" transform="matrix(1 0 0 1 1746.56 322)">Medium</text>
  <text style="stroke:none;fill:black;font-family:-apple-system,&quot;SF Pro Display&quot;,&quot;SF Pro Text&quot;,Helvetica,sans-serif;text-anchor:middle;" transform="matrix(1 0 0 1 2043.27 322)">Semibold</text>
  <text style="stroke:none;fill:black;font-family:-apple-system,&quot;SF Pro Display&quot;,&quot;SF Pro Text&quot;,Helvetica,sans-serif;text-anchor:middle;" transform="matrix(1 0 0 1 2339.98 322)">Bold</text>
  <text style="stroke:none;fill:black;font-family:-apple-system,&quot;SF Pro Display&quot;,&quot;SF Pro Text&quot;,Helvetica,sans-serif;text-anchor:middle;" transform="matrix(1 0 0 1 2636.69 322)">Heavy</text>
  <text style="stroke:none;fill:black;font-family:-apple-system,&quot;SF Pro Display&quot;,&quot;SF Pro Text&quot;,Helvetica,sans-serif;text-anchor:middle;" transform="matrix(1 0 0 1 2933.4 322)">Black</text>
  <line id="" style="fill:none;stroke:black;opacity:1;stroke-width:0.5;" x1="263" x2="3036" y1="1903" y2="1903"/>
  <g id="" transform="matrix(1 0 0 1 263 1933)">
   <path d="M 9.24805 0.830078 C 13.5547 0.830078 17.1387 -2.74414 17.1387 -7.05078 C 17.1387 -11.3574 13.5449 -14.9316 9.23828 -14.9316 C 4.94141 -14.9316 1.36719 -11.3574 1.36719 -7.05078 C 1.36719 -2.74414 4.95117 0.830078 9.24805 0.830078 Z M 9.24805 -0.654297 C 5.70312 -0.654297 2.87109 -3.49609 2.87109 -7.05078 C 2.87109 -10.6055 5.69336 -13.4473 9.23828 -13.4473 C 12.793 -13.4473 15.6348 -10.6055 15.6445 -7.05078 C 15.6543 -3.49609 12.8027 -0.654297 9.24805 -0.654297 Z M 9.22852 -3.42773 C 9.69727 -3.42773 9.9707 -3.74023 9.9707 -4.25781 L 9.9707 -6.31836 L 12.1973 -6.31836 C 12.6953 -6.31836 13.0371 -6.57227 13.0371 -7.04102 C 13.0371 -7.51953 12.7148 -7.7832 12.1973 -7.7832 L 9.9707 -7.7832 L 9.9707 -10.0098 C 9.9707 -10.5273 9.69727 -10.8496 9.22852 -10.8496 C 8.75977 -10.8496 8.50586 -10.5078 8.50586 -10.0098 L 8.50586 -7.7832 L 6.29883 -7.7832 C 5.78125 -7.7832 5.44922 -7.51953 5.44922 -7.04102 C 5.44922 -6.57227 5.80078 -6.31836 6.29883 -6.31836 L 8.50586 -6.31836 L 8.50586 -4.25781 C 8.50586 -3.75977 8.75977 -3.42773 9.22852 -3.42773 Z"/>
  </g>
  <g id="" transform="matrix(1 0 0 1 281.506 1933)">
   <path d="M 11.709 2.91016 C 17.1582 2.91016 21.6699 -1.60156 21.6699 -7.05078 C 21.6699 -12.4902 17.1484 -17.0117 11.6992 -17.0117 C 6.25977 -17.0117 1.74805 -12.4902 1.74805 -7.05078 C 1.74805 -1.60156 6.26953 2.91016 11.709 2.91016 Z M 11.709 1.25 C 7.09961 1.25 3.41797 -2.44141 3.41797 -7.05078 C 3.41797 -11.6504 7.08984 -15.3516 11.6992 -15.3516 C 16.3086 -15.3516 20 -11.6504 20.0098 -7.05078 C 20.0195 -2.44141 16.3184 1.25 11.709 1.25 Z M 11.6895 -2.41211 C 12.207 -2.41211 12.5195 -2.77344 12.5195 -3.33984 L 12.5195 -6.23047 L 15.5762 -6.23047 C 16.123 -6.23047 16.5039 -6.51367 16.5039 -7.03125 C 16.5039 -7.55859 16.1426 -7.86133 15.5762 -7.86133 L 12.5195 -7.86133 L 12.5195 -10.9277 C 12.5195 -11.5039 12.207 -11.8555 11.6895 -11.8555 C 11.1719 -11.8555 10.8789 -11.4844 10.8789 -10.9277 L 10.8789 -7.86133 L 7.83203 -7.86133 C 7.26562 -7.86133 6.89453 -7.55859 6.89453 -7.03125 C 6.89453 -6.51367 7.28516 -6.23047 7.83203 -6.23047 L 10.8789 -6.23047 L 10.8789 -3.33984 C 10.8789 -2.79297 11.1719 -2.41211 11.6895 -2.41211 Z"/>
  </g>
  <g id="" transform="matrix(1 0 0 1 304.924 1933)">
   <path d="M 14.9707 5.67383 C 21.9336 5.67383 27.6953 -0.078125 27.6953 -7.04102 C 27.6953 -14.0039 21.9238 -19.7559 14.9609 -19.7559 C 8.00781 -19.7559 2.25586 -14.0039 2.25586 -7.04102 C 2.25586 -0.078125 8.01758 5.67383 14.9707 5.67383 Z M 14.9707 3.85742 C 8.93555 3.85742 4.08203 -1.00586 4.08203 -7.04102 C 4.08203 -13.0762 8.92578 -17.9395 14.9609 -17.9395 C 21.0059 -17.9395 25.8594 -13.0762 25.8691 -7.04102 C 25.8789 -1.00586 21.0156 3.85742 14.9707 3.85742 Z M 14.9512 -1.06445 C 15.5176 -1.06445 15.8691 -1.45508 15.8691 -2.06055 L 15.8691 -6.13281 L 20.1074 -6.13281 C 20.6934 -6.13281 21.1133 -6.46484 21.1133 -7.02148 C 21.1133 -7.59766 20.7227 -7.93945 20.1074 -7.93945 L 15.8691 -7.93945 L 15.8691 -12.1875 C 15.8691 -12.8027 15.5176 -13.1934 14.9512 -13.1934 C 14.3848 -13.1934 14.0625 -12.7832 14.0625 -12.1875 L 14.0625 -7.93945 L 9.83398 -7.93945 C 9.21875 -7.93945 8.80859 -7.59766 8.80859 -7.02148 C 8.80859 -6.46484 9.23828 -6.13281 9.83398 -6.13281 L 14.0625 -6.13281 L 14.0625 -2.06055 C 14.0625 -1.47461 14.3848 -1.06445 14.9512 -1.06445 Z"/>
  </g>
  <text style="stroke:none;fill:black;font-family:-apple-system,&quot;SF Pro Display&quot;,&quot;SF Pro Text&quot;,Helvetica,sans-serif;font-weight:bold;" transform="matrix(1 0 0 1 263 1953)">Design Variations</text>
  <text style="stroke:none;fill:black;font-family:-apple-system,&quot;SF Pro Display&quot;,&quot;SF Pro Text&quot;,Helvetica,sans-serif;" transform="matrix(1 0 0 1 263 1971)">Symbols are supported in up to nine weights and three scales.</text>
  <text style="stroke:none;fill:black;font-family:-apple-system,&quot;SF Pro Display&quot;,&quot;SF Pro Text&quot;,Helvetica,sans-serif;" transform="matrix(1 0 0 1 263 1989)">For optimal layout with text and other symbols, vertically align</text>
  <text style="stroke:none;fill:black;font-family:-apple-system,&quot;SF Pro Display&quot;,&quot;SF Pro Text&quot;,Helvetica,sans-serif;" transform="matrix(1 0 0 1 263 2007)">symbols with the adjacent text.</text>
  <rect height="14" id="" style="fill:#00AEEF;stroke:none;opacity:0.4;" width="3" x="776" y="1919"/>
  <g id="" transform="matrix(1 0 0 1 779 1933)">
   <path d="M 10.5273 0 L 12.373 0 L 7.17773 -14.0918 L 5.43945 -14.0918 L 0.244141 0 L 2.08984 0 L 3.50586 -4.0332 L 9.11133 -4.0332 Z M 6.2793 -11.9531 L 6.33789 -11.9531 L 8.59375 -5.52734 L 4.02344 -5.52734 Z"/>
  </g>
  <rect height="14" id="" style="fill:#00AEEF;stroke:none;opacity:0.4;" width="3" x="791.617" y="1919"/>
  <text style="stroke:none;fill:black;font-family:-apple-system,&quot;SF Pro Display&quot;,&quot;SF Pro Text&quot;,Helvetica,sans-serif;font-weight:bold;" transform="matrix(1 0 0 1 776 1953)">Margins</text>
  <text style="stroke:none;fill:black;font-family:-apple-system,&quot;SF Pro Display&quot;,&quot;SF Pro Text&quot;,Helvetica,sans-serif;" transform="matrix(1 0 0 1 776 1971)">Leading and trailing margins on the left and right side of each symbol</text>
  <text style="stroke:none;fill:black;font-family:-apple-system,&quot;SF Pro Display&quot;,&quot;SF Pro Text&quot;,Helvetica,sans-serif;" transform="matrix(1 0 0 1 776 1989)">can be adjusted by modifying the width of the blue rectangles.</text>
  <text style="stroke:none;fill:black;font-family:-apple-system,&quot;SF Pro Display&quot;,&quot;SF Pro Text&quot;,Helvetica,sans-serif;" transform="matrix(1 0 0 1 776 2007)">Modifications are automatically applied proportionally to all</text>
  <text style="stroke:none;fill:black;font-family:-apple-system,&quot;SF Pro Display&quot;,&quot;SF Pro Text&quot;,Helvetica,sans-serif;" transform="matrix(1 0 0 1 776 2025)">scales and weights.</text>
  <g id="" transform="matrix(1 0 0 1 1289 1933)">
   <path d="M 2.83203 3.11523 L 4.375 4.6582 C 5.22461 5.48828 6.19141 5.41992 7.06055 4.46289 L 17.2754 -6.66016 C 17.7051 -6.36719 18.0957 -6.37695 18.5645 -6.47461 L 19.6094 -6.68945 L 20.3027 -5.99609 L 20.2539 -5.47852 C 20.1855 -4.95117 20.3516 -4.53125 20.8496 -4.0332 L 21.6602 -3.22266 C 22.168 -2.71484 22.8223 -2.68555 23.3008 -3.16406 L 26.5527 -6.41602 C 27.0312 -6.89453 27.0117 -7.54883 26.5039 -8.05664 L 25.6836 -8.87695 C 25.1855 -9.375 24.7754 -9.55078 24.2383 -9.47266 L 23.7109 -9.41406 L 23.0566 -10.0781 L 23.3398 -11.2207 C 23.4863 -11.7871 23.3398 -12.2559 22.7148 -12.8613 L 20.3027 -15.2539 C 16.7578 -18.7793 12.2266 -18.6719 9.11133 -15.5371 C 8.69141 -15.1074 8.64258 -14.5215 8.91602 -14.0918 C 9.15039 -13.7207 9.62891 -13.4961 10.2734 -13.6621 C 11.7871 -14.043 13.3008 -13.9258 14.7852 -12.9199 L 14.1602 -11.3379 C 13.9258 -10.752 13.9453 -10.2734 14.1797 -9.83398 L 3.01758 0.439453 C 2.08008 1.30859 1.97266 2.25586 2.83203 3.11523 Z M 10.6738 -15.1465 C 13.3398 -17.1387 16.6504 -16.8262 19.0527 -14.4141 L 21.6797 -11.8066 C 21.9141 -11.5723 21.9434 -11.3867 21.8848 -11.0938 L 21.5039 -9.53125 L 23.0762 -7.95898 L 24.043 -8.04688 C 24.3262 -8.07617 24.4141 -8.05664 24.6387 -7.83203 L 25.2637 -7.20703 L 22.5098 -4.46289 L 21.8848 -5.07812 C 21.6602 -5.30273 21.6406 -5.40039 21.6699 -5.68359 L 21.7578 -6.64062 L 20.1953 -8.20312 L 18.5742 -7.89062 C 18.291 -7.83203 18.1445 -7.83203 17.9102 -8.07617 L 15.7324 -10.2539 C 15.5078 -10.4883 15.4785 -10.625 15.6055 -10.9473 L 16.5527 -13.2227 C 14.9512 -14.7559 12.8418 -15.6055 10.8008 -14.9512 C 10.7129 -14.9219 10.6445 -14.9414 10.6152 -14.9805 C 10.5859 -15.0293 10.5859 -15.0781 10.6738 -15.1465 Z M 4.10156 2.41211 C 3.61328 1.91406 3.78906 1.61133 4.12109 1.30859 L 15.0781 -8.80859 L 16.3086 -7.57812 L 6.15234 3.34961 C 5.84961 3.68164 5.46875 3.7793 5.06836 3.37891 Z"/>
  </g>
  <text style="stroke:none;fill:black;font-family:-apple-system,&quot;SF Pro Display&quot;,&quot;SF Pro Text&quot;,Helvetica,sans-serif;font-weight:bold;" transform="matrix(1 0 0 1 1289 1953)">Exporting</text>
  <text style="stroke:none;fill:black;font-family:-apple-system,&quot;SF Pro Display&quot;,&quot;SF Pro Text&quot;,Helvetica,sans-serif;" transform="matrix(1 0 0 1 1289 1971)">Symbols should be outlined when exporting to ensure the</text>
  <text style="stroke:none;fill:black;font-family:-apple-system,&quot;SF Pro Display&quot;,&quot;SF Pro Text&quot;,Helvetica,sans-serif;" transform="matrix(1 0 0 1 1289 1989)">design is preserved when submitting to Xcode.</text>
  <text id="template-version" style="stroke:none;fill:black;font-family:-apple-system,&quot;SF Pro Display&quot;,&quot;SF Pro Text&quot;,Helvetica,sans-serif;text-anchor:end;" transform="matrix(1 0 0 1 3036 1933)">Template v.1.0</text>
  <text style="stroke:none;fill:black;font-family:-apple-system,&quot;SF Pro Display&quot;,&quot;SF Pro Text&quot;,Helvetica,sans-serif;text-anchor:end;" transform="matrix(1 0 0 1 3036 1951)">Generated from person.circle.fill</text>
  <text style="stroke:none;fill:black;font-family:-apple-system,&quot;SF Pro Display&quot;,&quot;SF Pro Text&quot;,Helvetica,sans-serif;text-anchor:end;" transform="matrix(1 0 0 1 3036 1969)">Typeset at 100 points</text>
  <text style="stroke:none;fill:black;font-family:-apple-system,&quot;SF Pro Display&quot;,&quot;SF Pro Text&quot;,Helvetica,sans-serif;" transform="matrix(1 0 0 1 263 726)">Small</text>
  <text style="stroke:none;fill:black;font-family:-apple-system,&quot;SF Pro Display&quot;,&quot;SF Pro Text&quot;,Helvetica,sans-serif;" transform="matrix(1 0 0 1 263 1156)">Medium</text>
  <text style="stroke:none;fill:black;font-family:-apple-system,&quot;SF Pro Display&quot;,&quot;SF Pro Text&quot;,Helvetica,sans-serif;" transform="matrix(1 0 0 1 263 1586)">Large</text>
 </g>
 <g id="Guides">
  <g id="H-reference" style="fill:#27AAE1;stroke:none;" transform="matrix(1 0 0 1 339 696)">
   <path d="M 54.9316 0 L 57.666 0 L 30.5664 -70.459 L 28.0762 -70.459 L 0.976562 0 L 3.66211 0 L 12.9395 -24.4629 L 45.7031 -24.4629 Z M 29.1992 -67.0898 L 29.4434 -67.0898 L 44.8242 -26.709 L 13.8184 -26.709 Z"/>
  </g>
  <line id="Baseline-S" style="fill:none;stroke:#27AAE1;opacity:1;stroke-width:0.577;" x1="263" x2="3036" y1="696" y2="696"/>
  <line id="Capline-S" style="fill:none;stroke:#27AAE1;opacity:1;stroke-width:0.577;" x1="263" x2="3036" y1="625.541" y2="625.541"/>
  <g id="H-reference" style="fill:#27AAE1;stroke:none;" transform="matrix(1 0 0 1 339 1126)">
   <path d="M 54.9316 0 L 57.666 0 L 30.5664 -70.459 L 28.0762 -70.459 L 0.976562 0 L 3.66211 0 L 12.9395 -24.4629 L 45.7031 -24.4629 Z M 29.1992 -67.0898 L 29.4434 -67.0898 L 44.8242 -26.709 L 13.8184 -26.709 Z"/>
  </g>
  <line id="Baseline-M" style="fill:none;stroke:#27AAE1;opacity:1;stroke-width:0.577;" x1="263" x2="3036" y1="1126" y2="1126"/>
  <line id="Capline-M" style="fill:none;stroke:#27AAE1;opacity:1;stroke-width:0.577;" x1="263" x2="3036" y1="1055.54" y2="1055.54"/>
  <g id="H-reference" style="fill:#27AAE1;stroke:none;" transform="matrix(1 0 0 1 339 1556)">
   <path d="M 54.9316 0 L 57.666 0 L 30.5664 -70.459 L 28.0762 -70.459 L 0.976562 0 L 3.66211 0 L 12.9395 -24.4629 L 45.7031 -24.4629 Z M 29.1992 -67.0898 L 29.4434 -67.0898 L 44.8242 -26.709 L 13.8184 -26.709 Z"/>
  </g>
  <line id="Baseline-L" style="fill:none;stroke:#27AAE1;opacity:1;stroke-width:0.577;" x1="263" x2="3036" y1="1556" y2="1556"/>
  <line id="Capline-L" style="fill:none;stroke:#27AAE1;opacity:1;stroke-width:0.577;" x1="263" x2="3036" y1="1485.54" y2="1485.54"/>
  <rect height="119.336" id="left-margin" style="fill:#00AEEF;stroke:none;opacity:0.4;" width="8.74023" x="1391.3" y="1030.79"/>
  <rect height="119.336" id="right-margin" style="fill:#00AEEF;stroke:none;opacity:0.4;" width="8.74023" x="1499.65" y="1030.79"/>
 </g>
 <g id="Symbols">
  <g id="Black-L" transform="matrix(1 0 0 1 2854.05 1556)">
   <path d="M 79.3457 32.9102 C 116.748 32.9102 147.412 2.29492 147.412 -35.1074 C 147.412 -72.5586 116.748 -103.174 79.2969 -103.174 C 41.8945 -103.174 11.2793 -72.5586 11.2793 -35.1074 C 11.2793 2.29492 41.9434 32.9102 79.3457 32.9102 Z M 79.3457 -39.9902 C 71.2402 -39.9902 64.6973 -46.8262 64.6973 -55.957 C 64.6973 -64.502 71.2402 -71.582 79.3457 -71.582 C 87.4023 -71.582 93.9453 -64.502 93.9453 -55.957 C 93.9453 -46.8262 87.4023 -39.9414 79.3457 -39.9902 Z M 55.7617 -5.46875 C 52.3438 -5.46875 50.5371 -8.00781 50.5371 -11.0352 C 50.5371 -17.2363 59.2285 -32.8125 79.3457 -32.8125 C 99.4629 -32.8125 108.105 -17.2363 108.105 -11.0352 C 108.105 -8.00781 106.348 -5.46875 102.93 -5.46875 Z"/>
  </g>
  <g id="Heavy-L" transform="matrix(1 0 0 1 2558.39 1556)">
   <path d="M 78.2715 31.8848 C 115.088 31.8848 145.312 1.66016 145.312 -35.1074 C 145.312 -71.9238 115.039 -102.148 78.2715 -102.148 C 41.4551 -102.148 11.2793 -71.9238 11.2793 -35.1074 C 11.2793 1.66016 41.5039 31.8848 78.2715 31.8848 Z M 78.2715 -39.6484 C 70.0195 -39.6484 63.3789 -46.6309 63.3789 -55.9082 C 63.3789 -64.6484 70.0195 -71.875 78.2715 -71.875 C 86.5234 -71.875 93.1641 -64.6484 93.1641 -55.9082 C 93.1641 -46.6309 86.5234 -39.5996 78.2715 -39.6484 Z M 53.5156 -4.98047 C 50.3906 -4.98047 48.7793 -7.27539 48.7793 -10.0586 C 48.7793 -16.4062 57.8125 -32.5195 78.2715 -32.5195 C 98.7305 -32.5195 107.812 -16.4062 107.812 -10.0586 C 107.812 -7.27539 106.201 -4.98047 103.027 -4.98047 Z"/>
  </g>
  <g id="Bold-L" transform="matrix(1 0 0 1 2262.88 1556)">
   <path d="M 77.0996 30.7129 C 113.232 30.7129 142.92 0.976562 142.92 -35.1074 C 142.92 -71.2402 113.184 -100.977 77.0508 -100.977 C 40.9668 -100.977 11.2793 -71.2402 11.2793 -35.1074 C 11.2793 0.976562 41.0156 30.7129 77.0996 30.7129 Z M 77.0996 -39.2578 C 68.6523 -39.3066 61.8652 -46.3867 61.8652 -55.9082 C 61.8652 -64.7949 68.6523 -72.168 77.0996 -72.168 C 85.5469 -72.168 92.334 -64.7949 92.334 -55.9082 C 92.334 -46.3867 85.5469 -39.209 77.0996 -39.2578 Z M 51.0254 -4.44336 C 48.1934 -4.44336 46.7773 -6.39648 46.7773 -8.93555 C 46.7773 -15.4785 56.25 -32.1777 77.0996 -32.1777 C 97.998 -32.1777 107.422 -15.4785 107.422 -8.93555 C 107.422 -6.39648 106.006 -4.44336 103.174 -4.44336 Z"/>
  </g>
  <g id="Semibold-L" transform="matrix(1 0 0 1 1966.97 1556)">
   <path d="M 76.2695 29.8828 C 111.914 29.8828 141.309 0.488281 141.309 -35.1074 C 141.309 -70.752 111.865 -100.146 76.2695 -100.146 C 40.625 -100.146 11.2793 -70.752 11.2793 -35.1074 C 11.2793 0.488281 40.6738 29.8828 76.2695 29.8828 Z M 76.2695 -38.9648 C 67.7246 -39.0137 60.8398 -46.2402 60.8398 -55.8594 C 60.8398 -64.8926 67.7246 -72.4121 76.2695 -72.4121 C 84.8633 -72.4121 91.748 -64.8926 91.748 -55.8594 C 91.748 -46.2402 84.8633 -38.916 76.2695 -38.9648 Z M 49.2676 -4.05273 C 46.6797 -4.05273 45.4102 -5.81055 45.4102 -8.20312 C 45.4102 -14.8438 55.127 -31.9336 76.2695 -31.9336 C 97.4609 -31.9336 107.178 -14.8438 107.178 -8.20312 C 107.178 -5.81055 105.908 -4.05273 103.271 -4.05273 Z"/>
  </g>
  <g id="Medium-L" transform="matrix(1 0 0 1 1670.87 1556)">
   <path d="M 75.6836 29.248 C 110.938 29.248 140.088 0.146484 140.088 -35.1074 C 140.088 -70.4102 110.889 -99.5117 75.6348 -99.5117 C 40.3809 -99.5117 11.2793 -70.4102 11.2793 -35.1074 C 11.2793 0.146484 40.3809 29.248 75.6836 29.248 Z M 75.6836 -38.7695 C 66.9922 -38.8184 60.0586 -46.1426 60.0586 -55.8594 C 60.0586 -64.9414 66.9922 -72.5586 75.6836 -72.5586 C 84.3262 -72.5586 91.2598 -64.9414 91.2598 -55.8594 C 91.2598 -46.1426 84.3262 -38.6719 75.6836 -38.7695 Z M 47.998 -3.75977 C 45.5566 -3.75977 44.3848 -5.37109 44.3848 -7.61719 C 44.3848 -14.3066 54.2969 -31.7871 75.6836 -31.7871 C 97.0215 -31.7871 106.982 -14.3066 106.982 -7.61719 C 106.982 -5.37109 105.811 -3.75977 103.369 -3.75977 Z"/>
  </g>
  <g id="Regular-L" transform="matrix(1 0 0 1 1374.97 1556)">
   <path d="M 74.8535 28.4668 C 109.668 28.4668 138.477 -0.341797 138.477 -35.1074 C 138.477 -69.9219 109.619 -98.7305 74.8047 -98.7305 C 40.0391 -98.7305 11.2793 -69.9219 11.2793 -35.1074 C 11.2793 -0.341797 40.0879 28.4668 74.8535 28.4668 Z M 74.8535 -38.4766 C 66.0645 -38.5742 59.0332 -45.9473 59.0332 -55.8594 C 59.0332 -65.0391 66.0645 -72.7539 74.8535 -72.7539 C 83.6426 -72.7539 90.6738 -65.0391 90.6738 -55.8594 C 90.6738 -45.9473 83.6426 -38.4277 74.8535 -38.4766 Z M 46.2891 -3.36914 C 44.043 -3.36914 43.0176 -4.78516 43.0176 -6.88477 C 43.0176 -13.6719 53.2227 -31.543 74.8535 -31.543 C 96.5332 -31.543 106.689 -13.6719 106.689 -6.88477 C 106.689 -4.78516 105.664 -3.36914 103.467 -3.36914 Z"/>
  </g>
  <g id="Light-L" transform="matrix(1 0 0 1 1079.18 1556)">
   <path d="M 73.9258 27.5879 C 108.301 27.5879 136.621 -0.732422 136.621 -35.1074 C 136.621 -69.4336 108.252 -97.7539 73.9258 -97.7539 C 39.5508 -97.7539 11.2793 -69.4336 11.2793 -35.1074 C 11.2793 -0.732422 39.5996 27.5879 73.9258 27.5879 Z M 73.9258 -38.3301 C 65.0391 -38.3789 57.9102 -45.8984 57.9102 -55.8594 C 57.9102 -65.2344 65.0391 -73.0469 73.9258 -73.0469 C 82.8613 -73.0469 89.9902 -65.2344 89.9902 -55.8594 C 89.9902 -45.8984 82.8613 -38.2324 73.9258 -38.3301 Z M 44.3848 -3.125 C 42.5293 -3.125 41.6992 -4.29688 41.6992 -6.10352 C 41.6992 -13.0859 52.002 -31.6895 73.9258 -31.6895 C 95.8984 -31.6895 106.201 -13.0859 106.201 -6.10352 C 106.201 -4.29688 105.371 -3.125 103.467 -3.125 Z"/>
  </g>
  <g id="Thin-L" transform="matrix(1 0 0 1 783.693 1556)">
   <path d="M 72.7051 26.416 C 106.494 26.416 134.18 -1.26953 134.18 -35.0586 C 134.18 -68.7988 106.494 -96.4844 72.7051 -96.4844 C 38.9648 -96.4844 11.2793 -68.7988 11.2793 -35.0586 C 11.2793 -1.26953 38.9648 26.416 72.7051 26.416 Z M 72.7051 -38.0859 C 63.6719 -38.1348 56.3965 -45.752 56.3965 -55.9082 C 56.3965 -65.4297 63.6719 -73.3887 72.7051 -73.3887 C 81.7871 -73.3887 89.0625 -65.4297 89.0625 -55.9082 C 89.0625 -45.752 81.7871 -37.9883 72.7051 -38.0859 Z M 41.9434 -2.7832 C 40.4297 -2.7832 39.8926 -3.61328 39.8926 -5.07812 C 39.8926 -12.3047 50.3906 -31.8359 72.7051 -31.8359 C 95.0684 -31.8359 105.566 -12.3047 105.566 -5.07812 C 105.566 -3.61328 104.98 -2.7832 103.516 -2.7832 Z"/>
  </g>
  <g id="Ultralight-L" transform="matrix(1 0 0 1 487.616 1556)">
   <path d="M 72.1191 25.7812 C 105.566 25.7812 132.91 -1.5625 132.91 -35.0098 C 132.91 -68.5059 105.566 -95.8496 72.1191 -95.8496 C 38.623 -95.8496 11.2793 -68.5059 11.2793 -35.0098 C 11.2793 -1.5625 38.623 25.7812 72.1191 25.7812 Z M 72.1191 -37.9395 C 62.9883 -38.0371 55.6152 -45.7031 55.6152 -55.957 C 55.6152 -65.5762 62.9883 -73.5352 72.1191 -73.5352 C 81.2012 -73.5352 88.5742 -65.5762 88.5742 -55.957 C 88.5742 -45.7031 81.2012 -37.8418 72.1191 -37.9395 Z M 40.6738 -2.63672 C 39.4043 -2.63672 38.9648 -3.27148 38.9648 -4.54102 C 38.9648 -11.9141 49.5605 -31.9336 72.1191 -31.9336 C 94.6289 -31.9336 105.225 -11.9141 105.225 -4.54102 C 105.225 -3.27148 104.785 -2.63672 103.516 -2.63672 Z"/>
  </g>
  <g id="Black-M" transform="matrix(1 0 0 1 2870.97 1126)">
   <path d="M 62.4023 18.5547 C 91.9922 18.5547 116.113 -5.56641 116.113 -35.1562 C 116.113 -64.7461 91.9922 -88.8184 62.4023 -88.8184 C 32.8125 -88.8184 8.74023 -64.7461 8.74023 -35.1562 C 8.74023 -5.56641 32.8125 18.5547 62.4023 18.5547 Z M 62.4023 -39.2578 C 56.2988 -39.2578 51.3672 -44.4336 51.3672 -51.3672 C 51.3672 -57.8125 56.2988 -63.1836 62.4023 -63.1836 C 68.5059 -63.1836 73.4863 -57.8125 73.4863 -51.3672 C 73.4863 -44.4336 68.5059 -39.2578 62.4023 -39.2578 Z M 45.2637 -12.6953 C 42.334 -12.6953 40.8691 -14.8926 40.8691 -17.3828 C 40.8691 -22.1191 47.168 -33.7891 62.4023 -33.7891 C 77.6367 -33.7891 83.9844 -22.1191 83.9844 -17.3828 C 83.9844 -14.8926 82.4707 -12.6953 79.5898 -12.6953 Z"/>
  </g>
  <g id="Heavy-M" transform="matrix(1 0 0 1 2575.19 1126)">
   <path d="M 61.5234 17.627 C 90.5273 17.627 114.258 -6.10352 114.258 -35.1562 C 114.258 -64.1602 90.5273 -87.8906 61.4746 -87.8906 C 32.4707 -87.8906 8.74023 -64.1602 8.74023 -35.1562 C 8.74023 -6.10352 32.4707 17.627 61.5234 17.627 Z M 61.5234 -38.9648 C 55.2734 -38.9648 50.1953 -44.2383 50.1953 -51.3184 C 50.1953 -57.9102 55.2734 -63.3789 61.5234 -63.3789 C 67.7734 -63.3789 72.8027 -57.9102 72.8027 -51.3184 C 72.8027 -44.2383 67.7734 -38.916 61.5234 -38.9648 Z M 43.2617 -12.207 C 40.625 -12.207 39.2578 -14.209 39.2578 -16.5039 C 39.2578 -21.3379 45.9473 -33.4473 61.5234 -33.4473 C 77.0508 -33.4473 83.7402 -21.3379 83.7402 -16.5039 C 83.7402 -14.209 82.373 -12.207 79.7363 -12.207 Z"/>
  </g>
  <g id="Bold-M" transform="matrix(1 0 0 1 2279.5 1126)">
   <path d="M 60.498 16.6016 C 88.8672 16.6016 112.207 -6.73828 112.207 -35.1562 C 112.207 -63.5742 88.8672 -86.9141 60.4492 -86.9141 C 32.0312 -86.9141 8.74023 -63.5742 8.74023 -35.1562 C 8.74023 -6.73828 32.0801 16.6016 60.498 16.6016 Z M 60.498 -38.5742 C 54.0527 -38.623 48.877 -44.043 48.877 -51.2695 C 48.877 -58.0566 54.0527 -63.6719 60.498 -63.6719 C 66.8945 -63.6719 72.0703 -58.0566 72.0703 -51.2695 C 72.0703 -44.043 66.8945 -38.5254 60.498 -38.5742 Z M 41.0645 -11.6699 C 38.6719 -11.6699 37.5 -13.4277 37.5 -15.5273 C 37.5 -20.5078 44.5801 -33.0566 60.498 -33.0566 C 76.416 -33.0566 83.4961 -20.5078 83.4961 -15.5273 C 83.4961 -13.4277 82.2754 -11.6699 79.8828 -11.6699 Z"/>
  </g>
  <g id="Semibold-M" transform="matrix(1 0 0 1 1983.5 1126)">
   <path d="M 59.7656 15.8691 C 87.7441 15.8691 110.791 -7.17773 110.791 -35.1562 C 110.791 -63.1348 87.6953 -86.1816 59.7656 -86.1816 C 31.7871 -86.1816 8.74023 -63.1348 8.74023 -35.1562 C 8.74023 -7.17773 31.7871 15.8691 59.7656 15.8691 Z M 59.7656 -38.3301 C 53.2227 -38.3789 47.998 -43.8477 47.998 -51.2207 C 47.998 -58.1055 53.2227 -63.8672 59.7656 -63.8672 C 66.3086 -63.8672 71.582 -58.1055 71.582 -51.2207 C 71.582 -43.8477 66.3086 -38.2812 59.7656 -38.3301 Z M 39.5508 -11.3281 C 37.3535 -11.3281 36.2793 -12.8906 36.2793 -14.8438 C 36.2793 -19.9219 43.6035 -32.7637 59.7656 -32.7637 C 75.9277 -32.7637 83.3008 -19.9219 83.3008 -14.8438 C 83.3008 -12.8906 82.1777 -11.3281 79.9805 -11.3281 Z"/>
  </g>
  <g id="Medium-M" transform="matrix(1 0 0 1 1687.3 1126)">
   <path d="M 59.2285 15.332 C 86.9141 15.332 109.766 -7.51953 109.766 -35.1562 C 109.766 -62.793 86.8652 -85.6445 59.1797 -85.6445 C 31.543 -85.6445 8.74023 -62.793 8.74023 -35.1562 C 8.74023 -7.51953 31.5918 15.332 59.2285 15.332 Z M 59.2285 -38.1348 C 52.5879 -38.1836 47.3145 -43.75 47.3145 -51.2207 C 47.3145 -58.1543 52.5879 -64.0137 59.2285 -64.0137 C 65.8691 -64.0137 71.1914 -58.1543 71.1914 -51.2207 C 71.1914 -43.75 65.8691 -38.0859 59.2285 -38.1348 Z M 38.4277 -11.0352 C 36.3281 -11.0352 35.3516 -12.4512 35.3516 -14.3555 C 35.3516 -19.4336 42.8711 -32.5684 59.2285 -32.5684 C 75.5859 -32.5684 83.1543 -19.4336 83.1543 -14.3555 C 83.1543 -12.4512 82.1289 -11.0352 80.0781 -11.0352 Z"/>
  </g>
  <g id="Regular-M" transform="matrix(1 0 0 1 1391.3 1126)">
   <path d="M 58.5449 14.6484 C 85.791 14.6484 108.35 -7.95898 108.35 -35.1562 C 108.35 -62.4023 85.7422 -84.9609 58.4961 -84.9609 C 31.2988 -84.9609 8.74023 -62.4023 8.74023 -35.1562 C 8.74023 -7.95898 31.3477 14.6484 58.5449 14.6484 Z M 58.5449 -37.8906 C 51.8066 -37.9395 46.4355 -43.6035 46.4355 -51.1719 C 46.4355 -58.252 51.8066 -64.1602 58.5449 -64.1602 C 65.2832 -64.1602 70.6543 -58.252 70.6543 -51.1719 C 70.6543 -43.6035 65.2832 -37.793 58.5449 -37.8906 Z M 36.9141 -10.6934 C 35.0098 -10.6934 34.1309 -11.9629 34.1309 -13.6719 C 34.1309 -18.8965 41.9434 -32.3242 58.5449 -32.3242 C 75.1465 -32.3242 82.959 -18.8965 82.959 -13.6719 C 82.959 -11.9629 82.0801 -10.6934 80.1758 -10.6934 Z"/>
  </g>
  <g id="Light-M" transform="matrix(1 0 0 1 1095.42 1126)">
   <path d="M 57.7148 13.8184 C 84.5215 13.8184 106.689 -8.30078 106.689 -35.1562 C 106.689 -61.9629 84.5215 -84.1309 57.666 -84.1309 C 30.8594 -84.1309 8.74023 -61.9629 8.74023 -35.1562 C 8.74023 -8.30078 30.9082 13.8184 57.7148 13.8184 Z M 57.7148 -37.6953 C 50.8789 -37.7441 45.4102 -43.5059 45.4102 -51.2207 C 45.4102 -58.3984 50.8789 -64.4043 57.7148 -64.4043 C 64.5508 -64.4043 70.0684 -58.3984 70.0684 -51.2207 C 70.0684 -43.5059 64.5508 -37.6465 57.7148 -37.6953 Z M 35.2539 -10.4492 C 33.6426 -10.4492 32.9102 -11.4746 32.9102 -12.9883 C 32.9102 -18.3594 40.8691 -32.4219 57.7148 -32.4219 C 74.6094 -32.4219 82.5195 -18.3594 82.5195 -12.9883 C 82.5195 -11.4746 81.7871 -10.4492 80.1758 -10.4492 Z"/>
  </g>
  <g id="Thin-M" transform="matrix(1 0 0 1 799.806 1126)">
   <path d="M 56.6406 12.793 C 82.9102 12.793 104.492 -8.78906 104.492 -35.1074 C 104.492 -61.377 82.9102 -82.959 56.5918 -82.959 C 30.3223 -82.959 8.74023 -61.377 8.74023 -35.1074 C 8.74023 -8.78906 30.3223 12.793 56.6406 12.793 Z M 56.6406 -37.5 C 49.6582 -37.5488 44.043 -43.4082 44.043 -51.2695 C 44.043 -58.5938 49.6582 -64.6973 56.6406 -64.6973 C 63.623 -64.6973 69.1895 -58.5938 69.1895 -51.2695 C 69.1895 -43.4082 63.623 -37.4023 56.6406 -37.5 Z M 33.0078 -10.1562 C 31.7871 -10.1562 31.2988 -10.8887 31.2988 -12.0605 C 31.2988 -17.627 39.4043 -32.5684 56.6406 -32.5684 C 73.8281 -32.5684 81.9336 -17.627 81.9336 -12.0605 C 81.9336 -10.8887 81.4453 -10.1562 80.2246 -10.1562 Z"/>
  </g>
  <g id="Ultralight-M" transform="matrix(1 0 0 1 503.656 1126)">
   <path d="M 56.0547 12.2559 C 82.0801 12.2559 103.369 -9.0332 103.369 -35.0586 C 103.369 -61.084 82.0801 -82.373 56.0547 -82.373 C 30.0293 -82.373 8.74023 -61.084 8.74023 -35.0586 C 8.74023 -9.0332 30.0293 12.2559 56.0547 12.2559 Z M 56.0547 -37.3535 C 49.0234 -37.4512 43.3594 -43.3594 43.3594 -51.2695 C 43.3594 -58.6914 49.0234 -64.8926 56.0547 -64.8926 C 63.0859 -64.8926 68.7988 -58.6914 68.7988 -51.2695 C 68.7988 -43.3594 63.0859 -37.3047 56.0547 -37.3535 Z M 31.8848 -10.0098 C 30.8594 -10.0098 30.4688 -10.5469 30.4688 -11.6211 C 30.4688 -17.2852 38.6719 -32.666 56.0547 -32.666 C 73.4863 -32.666 81.6406 -17.2852 81.6406 -11.6211 C 81.6406 -10.5469 81.25 -10.0098 80.2246 -10.0098 Z"/>
  </g>
  <g id="Black-S" transform="matrix(1 0 0 1 2884.57 696)">
   <path d="M 48.8281 6.83594 C 71.9727 6.83594 90.8203 -12.0117 90.8203 -35.1562 C 90.8203 -58.3008 71.9727 -77.1484 48.8281 -77.1484 C 25.6836 -77.1484 6.83594 -58.3008 6.83594 -35.1562 C 6.83594 -12.0117 25.6836 6.83594 48.8281 6.83594 Z M 48.8281 -38.3789 C 44.043 -38.3789 40.1367 -42.4316 40.1367 -47.8516 C 40.1367 -52.9297 44.043 -57.1289 48.8281 -57.1289 C 53.6133 -57.1289 57.5195 -52.9297 57.5195 -47.8516 C 57.5195 -42.4316 53.6133 -38.3789 48.8281 -38.3789 Z M 35.3027 -17.5293 C 33.0566 -17.5293 31.8848 -19.2383 31.8848 -21.1914 C 31.8848 -24.9023 36.8652 -34.082 48.8281 -34.082 C 60.791 -34.082 65.7715 -24.9023 65.7715 -21.1914 C 65.7715 -19.2383 64.5996 -17.5293 62.3535 -17.5293 Z"/>
  </g>
  <g id="Heavy-S" transform="matrix(1 0 0 1 2588.47 696)">
   <path d="M 48.2422 6.20117 C 70.9961 6.20117 89.5996 -12.4023 89.5996 -35.1562 C 89.5996 -57.9102 70.9961 -76.5625 48.1934 -76.5625 C 25.4395 -76.5625 6.83594 -57.9102 6.83594 -35.1562 C 6.83594 -12.4023 25.4395 6.20117 48.2422 6.20117 Z M 48.2422 -38.1348 C 43.3105 -38.1348 39.3555 -42.2852 39.3555 -47.8027 C 39.3555 -52.9785 43.3105 -57.2754 48.2422 -57.2754 C 53.125 -57.2754 57.0801 -52.9785 57.0801 -47.8027 C 57.0801 -42.2852 53.125 -38.1348 48.2422 -38.1348 Z M 33.9844 -17.1875 C 31.8848 -17.1875 30.8105 -18.75 30.8105 -20.6055 C 30.8105 -24.3652 36.0352 -33.7891 48.2422 -33.7891 C 60.4004 -33.7891 65.625 -24.3652 65.625 -20.6055 C 65.625 -18.75 64.5508 -17.1875 62.4512 -17.1875 Z"/>
  </g>
  <g id="Bold-S" transform="matrix(1 0 0 1 2292.44 696)">
   <path d="M 47.5586 5.51758 C 69.873 5.51758 88.2324 -12.8418 88.2324 -35.1562 C 88.2324 -57.5195 69.873 -75.8789 47.5098 -75.8789 C 25.1953 -75.8789 6.83594 -57.5195 6.83594 -35.1562 C 6.83594 -12.8418 25.1953 5.51758 47.5586 5.51758 Z M 47.5586 -37.8906 C 42.5293 -37.8906 38.4766 -42.1387 38.4766 -47.8027 C 38.4766 -53.0762 42.5293 -57.4707 47.5586 -57.4707 C 52.5391 -57.4707 56.5918 -53.0762 56.5918 -47.8027 C 56.5918 -42.1387 52.5391 -37.8418 47.5586 -37.8906 Z M 32.5195 -16.8457 C 30.5664 -16.8457 29.5898 -18.2129 29.5898 -19.9219 C 29.5898 -23.7793 35.1074 -33.4961 47.5586 -33.4961 C 59.9609 -33.4961 65.4785 -23.7793 65.4785 -19.9219 C 65.4785 -18.2129 64.502 -16.8457 62.5977 -16.8457 Z"/>
  </g>
  <g id="Semibold-S" transform="matrix(1 0 0 1 1996.2 696)">
   <path d="M 47.0703 5.0293 C 69.0918 5.0293 87.3047 -13.1348 87.3047 -35.2051 C 87.3047 -57.2266 69.0918 -75.4395 47.0215 -75.4395 C 25 -75.4395 6.83594 -57.2266 6.83594 -35.2051 C 6.83594 -13.1348 25.0488 5.0293 47.0703 5.0293 Z M 47.0703 -37.6953 C 41.9922 -37.7441 37.8906 -42.041 37.8906 -47.7539 C 37.8906 -53.125 41.9922 -57.5684 47.0703 -57.5684 C 52.1484 -57.5684 56.25 -53.125 56.25 -47.7539 C 56.25 -42.041 52.1484 -37.6465 47.0703 -37.6953 Z M 31.4941 -16.5527 C 29.6875 -16.5527 28.7598 -17.8711 28.7598 -19.4824 C 28.7598 -23.3887 34.4727 -33.252 47.0703 -33.252 C 59.668 -33.252 65.3809 -23.3887 65.3809 -19.4824 C 65.3809 -17.8711 64.4531 -16.5527 62.6465 -16.5527 Z"/>
  </g>
  <g id="Medium-S" transform="matrix(1 0 0 1 1699.83 696)">
   <path d="M 46.7285 4.6875 C 68.5547 4.6875 86.6211 -13.3789 86.6211 -35.2051 C 86.6211 -56.9824 68.5059 -75.0977 46.6797 -75.0977 C 24.8535 -75.0977 6.83594 -56.9824 6.83594 -35.2051 C 6.83594 -13.3789 24.9023 4.6875 46.7285 4.6875 Z M 46.7285 -37.5488 C 41.5527 -37.5977 37.4512 -41.9434 37.4512 -47.7539 C 37.4512 -53.125 41.5527 -57.666 46.7285 -57.666 C 51.8555 -57.666 56.0059 -53.125 56.0059 -47.7539 C 56.0059 -41.9434 51.8555 -37.5 46.7285 -37.5488 Z M 30.7129 -16.3574 C 29.0039 -16.3574 28.125 -17.5781 28.125 -19.1406 C 28.125 -23.0957 33.9844 -33.1055 46.7285 -33.1055 C 59.4238 -33.1055 65.332 -23.0957 65.332 -19.1406 C 65.332 -17.5781 64.4531 -16.3574 62.6953 -16.3574 Z"/>
  </g>
  <g id="Regular-S" transform="matrix(1 0 0 1 1403.58 696)">
   <path d="M 46.2402 4.19922 C 67.7734 4.19922 85.6934 -13.6719 85.6934 -35.2051 C 85.6934 -56.7383 67.7246 -74.6094 46.1914 -74.6094 C 24.707 -74.6094 6.83594 -56.7383 6.83594 -35.2051 C 6.83594 -13.6719 24.7559 4.19922 46.2402 4.19922 Z M 46.2402 -37.3535 C 41.0156 -37.4023 36.8652 -41.8457 36.8652 -47.7051 C 36.8652 -53.1738 41.0156 -57.8125 46.2402 -57.8125 C 51.5137 -57.8125 55.6641 -53.1738 55.6641 -47.7051 C 55.6641 -41.8457 51.5137 -37.3047 46.2402 -37.3535 Z M 29.7363 -16.1133 C 28.125 -16.1133 27.2949 -17.2363 27.2949 -18.7012 C 27.2949 -22.6562 33.3984 -32.8613 46.2402 -32.8613 C 59.1309 -32.8613 65.2344 -22.6562 65.2344 -18.7012 C 65.2344 -17.2363 64.4043 -16.1133 62.793 -16.1133 Z"/>
  </g>
  <g id="Light-S" transform="matrix(1 0 0 1 1107.6 696)">
   <path d="M 45.5078 3.51562 C 66.6992 3.51562 84.2285 -14.0137 84.2285 -35.1562 C 84.2285 -56.3477 66.6504 -73.877 45.5078 -73.877 C 24.3164 -73.877 6.83594 -56.3477 6.83594 -35.1562 C 6.83594 -14.0137 24.3652 3.51562 45.5078 3.51562 Z M 45.5078 -37.207 C 40.1855 -37.2559 35.9375 -41.748 35.9375 -47.7539 C 35.9375 -53.3203 40.1855 -58.0078 45.5078 -58.0078 C 50.8301 -58.0078 55.127 -53.3203 55.127 -47.7539 C 55.127 -41.748 50.8301 -37.1582 45.5078 -37.207 Z M 28.2227 -15.918 C 26.8555 -15.918 26.2207 -16.7969 26.2207 -18.0664 C 26.2207 -22.2168 32.4219 -32.959 45.5078 -32.959 C 58.6426 -32.959 64.7949 -22.2168 64.7949 -18.0664 C 64.7949 -16.7969 64.1602 -15.918 62.793 -15.918 Z"/>
  </g>
  <g id="Thin-S" transform="matrix(1 0 0 1 811.867 696)">
   <path d="M 44.5801 2.58789 C 65.2832 2.58789 82.2754 -14.4043 82.2754 -35.1562 C 82.2754 -55.8594 65.2344 -72.8516 44.5312 -72.8516 C 23.8281 -72.8516 6.83594 -55.8594 6.83594 -35.1562 C 6.83594 -14.4043 23.877 2.58789 44.5801 2.58789 Z M 44.5801 -37.0605 C 39.1113 -37.1094 34.7656 -41.6504 34.7656 -47.7539 C 34.7656 -53.5156 39.1113 -58.252 44.5801 -58.252 C 50 -58.252 54.3945 -53.5156 54.3945 -47.7539 C 54.3945 -41.6504 50 -37.0117 44.5801 -37.0605 Z M 26.2695 -15.6738 C 25.2441 -15.6738 24.8047 -16.2598 24.8047 -17.2852 C 24.8047 -21.582 31.1523 -33.1055 44.5801 -33.1055 C 58.0078 -33.1055 64.3066 -21.582 64.3066 -17.2852 C 64.3066 -16.2598 63.8672 -15.6738 62.8418 -15.6738 Z"/>
  </g>
  <g id="Ultralight-S" transform="matrix(1 0 0 1 515.644 696)">
   <path d="M 44.043 2.09961 C 64.502 2.09961 81.2988 -14.6484 81.2988 -35.1074 C 81.2988 -55.5664 64.502 -72.3145 44.043 -72.3145 C 23.584 -72.3145 6.83594 -55.5664 6.83594 -35.1074 C 6.83594 -14.6484 23.584 2.09961 44.043 2.09961 Z M 44.043 -36.9141 C 38.5742 -36.9629 34.1309 -41.6016 34.1309 -47.8027 C 34.1309 -53.6133 38.5742 -58.3984 44.043 -58.3984 C 49.5605 -58.3984 54.0039 -53.6133 54.0039 -47.8027 C 54.0039 -41.6016 49.5605 -36.8652 44.043 -36.9141 Z M 25.293 -15.5273 C 24.4141 -15.5273 24.0723 -15.9668 24.0723 -16.8457 C 24.0723 -21.2402 30.4688 -33.2031 44.043 -33.2031 C 57.666 -33.2031 64.0137 -21.2402 64.0137 -16.8457 C 64.0137 -15.9668 63.7207 -15.5273 62.8418 -15.5273 Z"/>
  </g>
 </g>
</svg>
