<?xml version="1.0" encoding="UTF-8"?>
<!--Generator: Apple Native CoreSVG 123-->
<!DOCTYPE svg
PUBLIC "-//W3C//DTD SVG 1.1//EN"
       "http://www.w3.org/Graphics/SVG/1.1/DTD/svg11.dtd">
<svg version="1.1" xmlns="http://www.w3.org/2000/svg" xmlns:xlink="http://www.w3.org/1999/xlink" width="3300" height="2200">
 <!--glyph: "uni10023A.medium", point size: 100.000000, font version: "Version 15.0d7e11", template writer version: "5"-->
 <g id="Notes">
  <rect height="2200" id="artboard" style="fill:white;opacity:1" width="3300" x="0" y="0"/>
  <line id="" style="fill:none;stroke:black;opacity:1;stroke-width:0.5;" x1="263" x2="3036" y1="292" y2="292"/>
  <text style="stroke:none;fill:black;font-family:-apple-system,&quot;SF Pro Display&quot;,&quot;SF Pro Text&quot;,Helvetica,sans-serif;font-weight:bold;" transform="matrix(1 0 0 1 263 322)">Weight/Scale Variations</text>
  <text style="stroke:none;fill:black;font-family:-apple-system,&quot;SF Pro Display&quot;,&quot;SF Pro Text&quot;,Helvetica,sans-serif;text-anchor:middle;" transform="matrix(1 0 0 1 559.711 322)">Ultralight</text>
  <text style="stroke:none;fill:black;font-family:-apple-system,&quot;SF Pro Display&quot;,&quot;SF Pro Text&quot;,Helvetica,sans-serif;text-anchor:middle;" transform="matrix(1 0 0 1 856.422 322)">Thin</text>
  <text style="stroke:none;fill:black;font-family:-apple-system,&quot;SF Pro Display&quot;,&quot;SF Pro Text&quot;,Helvetica,sans-serif;text-anchor:middle;" transform="matrix(1 0 0 1 1153.13 322)">Light</text>
  <text style="stroke:none;fill:black;font-family:-apple-system,&quot;SF Pro Display&quot;,&quot;SF Pro Text&quot;,Helvetica,sans-serif;text-anchor:middle;" transform="matrix(1 0 0 1 1449.84 322)">Regular</text>
  <text style="stroke:none;fill:black;font-family:-apple-system,&quot;SF Pro Display&quot;,&quot;SF Pro Text&quot;,Helvetica,sans-serif;text-anchor:middle;" transform="matrix(1 0 0 1 1746.56 322)">Medium</text>
  <text style="stroke:none;fill:black;font-family:-apple-system,&quot;SF Pro Display&quot;,&quot;SF Pro Text&quot;,Helvetica,sans-serif;text-anchor:middle;" transform="matrix(1 0 0 1 2043.27 322)">Semibold</text>
  <text style="stroke:none;fill:black;font-family:-apple-system,&quot;SF Pro Display&quot;,&quot;SF Pro Text&quot;,Helvetica,sans-serif;text-anchor:middle;" transform="matrix(1 0 0 1 2339.98 322)">Bold</text>
  <text style="stroke:none;fill:black;font-family:-apple-system,&quot;SF Pro Display&quot;,&quot;SF Pro Text&quot;,Helvetica,sans-serif;text-anchor:middle;" transform="matrix(1 0 0 1 2636.69 322)">Heavy</text>
  <text style="stroke:none;fill:black;font-family:-apple-system,&quot;SF Pro Display&quot;,&quot;SF Pro Text&quot;,Helvetica,sans-serif;text-anchor:middle;" transform="matrix(1 0 0 1 2933.4 322)">Black</text>
  <line id="" style="fill:none;stroke:black;opacity:1;stroke-width:0.5;" x1="263" x2="3036" y1="1903" y2="1903"/>
  <g id="" transform="matrix(1 0 0 1 263 1933)">
   <path d="M 9.24805 0.830078 C 13.5547 0.830078 17.1387 -2.74414 17.1387 -7.05078 C 17.1387 -11.3574 13.5449 -14.9316 9.23828 -14.9316 C 4.94141 -14.9316 1.36719 -11.3574 1.36719 -7.05078 C 1.36719 -2.74414 4.95117 0.830078 9.24805 0.830078 Z M 9.24805 -0.654297 C 5.70312 -0.654297 2.87109 -3.49609 2.87109 -7.05078 C 2.87109 -10.6055 5.69336 -13.4473 9.23828 -13.4473 C 12.793 -13.4473 15.6348 -10.6055 15.6445 -7.05078 C 15.6543 -3.49609 12.8027 -0.654297 9.24805 -0.654297 Z M 9.22852 -3.42773 C 9.69727 -3.42773 9.9707 -3.74023 9.9707 -4.25781 L 9.9707 -6.31836 L 12.1973 -6.31836 C 12.6953 -6.31836 13.0371 -6.57227 13.0371 -7.04102 C 13.0371 -7.51953 12.7148 -7.7832 12.1973 -7.7832 L 9.9707 -7.7832 L 9.9707 -10.0098 C 9.9707 -10.5273 9.69727 -10.8496 9.22852 -10.8496 C 8.75977 -10.8496 8.50586 -10.5078 8.50586 -10.0098 L 8.50586 -7.7832 L 6.29883 -7.7832 C 5.78125 -7.7832 5.44922 -7.51953 5.44922 -7.04102 C 5.44922 -6.57227 5.80078 -6.31836 6.29883 -6.31836 L 8.50586 -6.31836 L 8.50586 -4.25781 C 8.50586 -3.75977 8.75977 -3.42773 9.22852 -3.42773 Z"/>
  </g>
  <g id="" transform="matrix(1 0 0 1 281.506 1933)">
   <path d="M 11.709 2.91016 C 17.1582 2.91016 21.6699 -1.60156 21.6699 -7.05078 C 21.6699 -12.4902 17.1484 -17.0117 11.6992 -17.0117 C 6.25977 -17.0117 1.74805 -12.4902 1.74805 -7.05078 C 1.74805 -1.60156 6.26953 2.91016 11.709 2.91016 Z M 11.709 1.25 C 7.09961 1.25 3.41797 -2.44141 3.41797 -7.05078 C 3.41797 -11.6504 7.08984 -15.3516 11.6992 -15.3516 C 16.3086 -15.3516 20 -11.6504 20.0098 -7.05078 C 20.0195 -2.44141 16.3184 1.25 11.709 1.25 Z M 11.6895 -2.41211 C 12.207 -2.41211 12.5195 -2.77344 12.5195 -3.33984 L 12.5195 -6.23047 L 15.5762 -6.23047 C 16.123 -6.23047 16.5039 -6.51367 16.5039 -7.03125 C 16.5039 -7.55859 16.1426 -7.86133 15.5762 -7.86133 L 12.5195 -7.86133 L 12.5195 -10.9277 C 12.5195 -11.5039 12.207 -11.8555 11.6895 -11.8555 C 11.1719 -11.8555 10.8789 -11.4844 10.8789 -10.9277 L 10.8789 -7.86133 L 7.83203 -7.86133 C 7.26562 -7.86133 6.89453 -7.55859 6.89453 -7.03125 C 6.89453 -6.51367 7.28516 -6.23047 7.83203 -6.23047 L 10.8789 -6.23047 L 10.8789 -3.33984 C 10.8789 -2.79297 11.1719 -2.41211 11.6895 -2.41211 Z"/>
  </g>
  <g id="" transform="matrix(1 0 0 1 304.924 1933)">
   <path d="M 14.9707 5.67383 C 21.9336 5.67383 27.6953 -0.078125 27.6953 -7.04102 C 27.6953 -14.0039 21.9238 -19.7559 14.9609 -19.7559 C 8.00781 -19.7559 2.25586 -14.0039 2.25586 -7.04102 C 2.25586 -0.078125 8.01758 5.67383 14.9707 5.67383 Z M 14.9707 3.85742 C 8.93555 3.85742 4.08203 -1.00586 4.08203 -7.04102 C 4.08203 -13.0762 8.92578 -17.9395 14.9609 -17.9395 C 21.0059 -17.9395 25.8594 -13.0762 25.8691 -7.04102 C 25.8789 -1.00586 21.0156 3.85742 14.9707 3.85742 Z M 14.9512 -1.06445 C 15.5176 -1.06445 15.8691 -1.45508 15.8691 -2.06055 L 15.8691 -6.13281 L 20.1074 -6.13281 C 20.6934 -6.13281 21.1133 -6.46484 21.1133 -7.02148 C 21.1133 -7.59766 20.7227 -7.93945 20.1074 -7.93945 L 15.8691 -7.93945 L 15.8691 -12.1875 C 15.8691 -12.8027 15.5176 -13.1934 14.9512 -13.1934 C 14.3848 -13.1934 14.0625 -12.7832 14.0625 -12.1875 L 14.0625 -7.93945 L 9.83398 -7.93945 C 9.21875 -7.93945 8.80859 -7.59766 8.80859 -7.02148 C 8.80859 -6.46484 9.23828 -6.13281 9.83398 -6.13281 L 14.0625 -6.13281 L 14.0625 -2.06055 C 14.0625 -1.47461 14.3848 -1.06445 14.9512 -1.06445 Z"/>
  </g>
  <text style="stroke:none;fill:black;font-family:-apple-system,&quot;SF Pro Display&quot;,&quot;SF Pro Text&quot;,Helvetica,sans-serif;font-weight:bold;" transform="matrix(1 0 0 1 263 1953)">Design Variations</text>
  <text style="stroke:none;fill:black;font-family:-apple-system,&quot;SF Pro Display&quot;,&quot;SF Pro Text&quot;,Helvetica,sans-serif;" transform="matrix(1 0 0 1 263 1971)">Symbols are supported in up to nine weights and three scales.</text>
  <text style="stroke:none;fill:black;font-family:-apple-system,&quot;SF Pro Display&quot;,&quot;SF Pro Text&quot;,Helvetica,sans-serif;" transform="matrix(1 0 0 1 263 1989)">For optimal layout with text and other symbols, vertically align</text>
  <text style="stroke:none;fill:black;font-family:-apple-system,&quot;SF Pro Display&quot;,&quot;SF Pro Text&quot;,Helvetica,sans-serif;" transform="matrix(1 0 0 1 263 2007)">symbols with the adjacent text.</text>
  <rect height="14" id="" style="fill:#00AEEF;stroke:none;opacity:0.4;" width="3" x="776" y="1919"/>
  <g id="" transform="matrix(1 0 0 1 779 1933)">
   <path d="M 10.5273 0 L 12.373 0 L 7.17773 -14.0918 L 5.43945 -14.0918 L 0.244141 0 L 2.08984 0 L 3.50586 -4.0332 L 9.11133 -4.0332 Z M 6.2793 -11.9531 L 6.33789 -11.9531 L 8.59375 -5.52734 L 4.02344 -5.52734 Z"/>
  </g>
  <rect height="14" id="" style="fill:#00AEEF;stroke:none;opacity:0.4;" width="3" x="791.617" y="1919"/>
  <text style="stroke:none;fill:black;font-family:-apple-system,&quot;SF Pro Display&quot;,&quot;SF Pro Text&quot;,Helvetica,sans-serif;font-weight:bold;" transform="matrix(1 0 0 1 776 1953)">Margins</text>
  <text style="stroke:none;fill:black;font-family:-apple-system,&quot;SF Pro Display&quot;,&quot;SF Pro Text&quot;,Helvetica,sans-serif;" transform="matrix(1 0 0 1 776 1971)">Leading and trailing margins on the left and right side of each symbol</text>
  <text style="stroke:none;fill:black;font-family:-apple-system,&quot;SF Pro Display&quot;,&quot;SF Pro Text&quot;,Helvetica,sans-serif;" transform="matrix(1 0 0 1 776 1989)">can be adjusted by modifying the width of the blue rectangles.</text>
  <text style="stroke:none;fill:black;font-family:-apple-system,&quot;SF Pro Display&quot;,&quot;SF Pro Text&quot;,Helvetica,sans-serif;" transform="matrix(1 0 0 1 776 2007)">Modifications are automatically applied proportionally to all</text>
  <text style="stroke:none;fill:black;font-family:-apple-system,&quot;SF Pro Display&quot;,&quot;SF Pro Text&quot;,Helvetica,sans-serif;" transform="matrix(1 0 0 1 776 2025)">scales and weights.</text>
  <g id="" transform="matrix(1 0 0 1 1289 1933)">
   <path d="M 2.83203 3.11523 L 4.375 4.6582 C 5.22461 5.48828 6.19141 5.41992 7.06055 4.46289 L 17.2754 -6.66016 C 17.7051 -6.36719 18.0957 -6.37695 18.5645 -6.47461 L 19.6094 -6.68945 L 20.3027 -5.99609 L 20.2539 -5.47852 C 20.1855 -4.95117 20.3516 -4.53125 20.8496 -4.0332 L 21.6602 -3.22266 C 22.168 -2.71484 22.8223 -2.68555 23.3008 -3.16406 L 26.5527 -6.41602 C 27.0312 -6.89453 27.0117 -7.54883 26.5039 -8.05664 L 25.6836 -8.87695 C 25.1855 -9.375 24.7754 -9.55078 24.2383 -9.47266 L 23.7109 -9.41406 L 23.0566 -10.0781 L 23.3398 -11.2207 C 23.4863 -11.7871 23.3398 -12.2559 22.7148 -12.8613 L 20.3027 -15.2539 C 16.7578 -18.7793 12.2266 -18.6719 9.11133 -15.5371 C 8.69141 -15.1074 8.64258 -14.5215 8.91602 -14.0918 C 9.15039 -13.7207 9.62891 -13.4961 10.2734 -13.6621 C 11.7871 -14.043 13.3008 -13.9258 14.7852 -12.9199 L 14.1602 -11.3379 C 13.9258 -10.752 13.9453 -10.2734 14.1797 -9.83398 L 3.01758 0.439453 C 2.08008 1.30859 1.97266 2.25586 2.83203 3.11523 Z M 10.6738 -15.1465 C 13.3398 -17.1387 16.6504 -16.8262 19.0527 -14.4141 L 21.6797 -11.8066 C 21.9141 -11.5723 21.9434 -11.3867 21.8848 -11.0938 L 21.5039 -9.53125 L 23.0762 -7.95898 L 24.043 -8.04688 C 24.3262 -8.07617 24.4141 -8.05664 24.6387 -7.83203 L 25.2637 -7.20703 L 22.5098 -4.46289 L 21.8848 -5.07812 C 21.6602 -5.30273 21.6406 -5.40039 21.6699 -5.68359 L 21.7578 -6.64062 L 20.1953 -8.20312 L 18.5742 -7.89062 C 18.291 -7.83203 18.1445 -7.83203 17.9102 -8.07617 L 15.7324 -10.2539 C 15.5078 -10.4883 15.4785 -10.625 15.6055 -10.9473 L 16.5527 -13.2227 C 14.9512 -14.7559 12.8418 -15.6055 10.8008 -14.9512 C 10.7129 -14.9219 10.6445 -14.9414 10.6152 -14.9805 C 10.5859 -15.0293 10.5859 -15.0781 10.6738 -15.1465 Z M 4.10156 2.41211 C 3.61328 1.91406 3.78906 1.61133 4.12109 1.30859 L 15.0781 -8.80859 L 16.3086 -7.57812 L 6.15234 3.34961 C 5.84961 3.68164 5.46875 3.7793 5.06836 3.37891 Z"/>
  </g>
  <text style="stroke:none;fill:black;font-family:-apple-system,&quot;SF Pro Display&quot;,&quot;SF Pro Text&quot;,Helvetica,sans-serif;font-weight:bold;" transform="matrix(1 0 0 1 1289 1953)">Exporting</text>
  <text style="stroke:none;fill:black;font-family:-apple-system,&quot;SF Pro Display&quot;,&quot;SF Pro Text&quot;,Helvetica,sans-serif;" transform="matrix(1 0 0 1 1289 1971)">Symbols should be outlined when exporting to ensure the</text>
  <text style="stroke:none;fill:black;font-family:-apple-system,&quot;SF Pro Display&quot;,&quot;SF Pro Text&quot;,Helvetica,sans-serif;" transform="matrix(1 0 0 1 1289 1989)">design is preserved when submitting to Xcode.</text>
  <text id="template-version" style="stroke:none;fill:black;font-family:-apple-system,&quot;SF Pro Display&quot;,&quot;SF Pro Text&quot;,Helvetica,sans-serif;text-anchor:end;" transform="matrix(1 0 0 1 3036 1933)">Template v.1.0</text>
  <text style="stroke:none;fill:black;font-family:-apple-system,&quot;SF Pro Display&quot;,&quot;SF Pro Text&quot;,Helvetica,sans-serif;text-anchor:end;" transform="matrix(1 0 0 1 3036 1951)">Generated from doc.circle.fill</text>
  <text style="stroke:none;fill:black;font-family:-apple-system,&quot;SF Pro Display&quot;,&quot;SF Pro Text&quot;,Helvetica,sans-serif;text-anchor:end;" transform="matrix(1 0 0 1 3036 1969)">Typeset at 100 points</text>
  <text style="stroke:none;fill:black;font-family:-apple-system,&quot;SF Pro Display&quot;,&quot;SF Pro Text&quot;,Helvetica,sans-serif;" transform="matrix(1 0 0 1 263 726)">Small</text>
  <text style="stroke:none;fill:black;font-family:-apple-system,&quot;SF Pro Display&quot;,&quot;SF Pro Text&quot;,Helvetica,sans-serif;" transform="matrix(1 0 0 1 263 1156)">Medium</text>
  <text style="stroke:none;fill:black;font-family:-apple-system,&quot;SF Pro Display&quot;,&quot;SF Pro Text&quot;,Helvetica,sans-serif;" transform="matrix(1 0 0 1 263 1586)">Large</text>
 </g>
 <g id="Guides">
  <g id="H-reference" style="fill:#27AAE1;stroke:none;" transform="matrix(1 0 0 1 339 696)">
   <path d="M 54.9316 0 L 57.666 0 L 30.5664 -70.459 L 28.0762 -70.459 L 0.976562 0 L 3.66211 0 L 12.9395 -24.4629 L 45.7031 -24.4629 Z M 29.1992 -67.0898 L 29.4434 -67.0898 L 44.8242 -26.709 L 13.8184 -26.709 Z"/>
  </g>
  <line id="Baseline-S" style="fill:none;stroke:#27AAE1;opacity:1;stroke-width:0.577;" x1="263" x2="3036" y1="696" y2="696"/>
  <line id="Capline-S" style="fill:none;stroke:#27AAE1;opacity:1;stroke-width:0.577;" x1="263" x2="3036" y1="625.541" y2="625.541"/>
  <g id="H-reference" style="fill:#27AAE1;stroke:none;" transform="matrix(1 0 0 1 339 1126)">
   <path d="M 54.9316 0 L 57.666 0 L 30.5664 -70.459 L 28.0762 -70.459 L 0.976562 0 L 3.66211 0 L 12.9395 -24.4629 L 45.7031 -24.4629 Z M 29.1992 -67.0898 L 29.4434 -67.0898 L 44.8242 -26.709 L 13.8184 -26.709 Z"/>
  </g>
  <line id="Baseline-M" style="fill:none;stroke:#27AAE1;opacity:1;stroke-width:0.577;" x1="263" x2="3036" y1="1126" y2="1126"/>
  <line id="Capline-M" style="fill:none;stroke:#27AAE1;opacity:1;stroke-width:0.577;" x1="263" x2="3036" y1="1055.54" y2="1055.54"/>
  <g id="H-reference" style="fill:#27AAE1;stroke:none;" transform="matrix(1 0 0 1 339 1556)">
   <path d="M 54.9316 0 L 57.666 0 L 30.5664 -70.459 L 28.0762 -70.459 L 0.976562 0 L 3.66211 0 L 12.9395 -24.4629 L 45.7031 -24.4629 Z M 29.1992 -67.0898 L 29.4434 -67.0898 L 44.8242 -26.709 L 13.8184 -26.709 Z"/>
  </g>
  <line id="Baseline-L" style="fill:none;stroke:#27AAE1;opacity:1;stroke-width:0.577;" x1="263" x2="3036" y1="1556" y2="1556"/>
  <line id="Capline-L" style="fill:none;stroke:#27AAE1;opacity:1;stroke-width:0.577;" x1="263" x2="3036" y1="1485.54" y2="1485.54"/>
  <rect height="119.336" id="left-margin" style="fill:#00AEEF;stroke:none;opacity:0.4;" width="8.74023" x="1391.3" y="1030.79"/>
  <rect height="119.336" id="right-margin" style="fill:#00AEEF;stroke:none;opacity:0.4;" width="8.74023" x="1499.65" y="1030.79"/>
 </g>
 <g id="Symbols">
  <g id="Black-L" transform="matrix(1 0 0 1 2854.05 1556)">
   <path d="M 79.3457 32.8613 C 116.748 32.8613 147.412 2.19727 147.412 -35.2051 C 147.412 -72.6074 116.748 -103.271 79.2969 -103.271 C 41.8945 -103.271 11.2793 -72.6074 11.2793 -35.2051 C 11.2793 2.19727 41.9434 32.8613 79.3457 32.8613 Z M 63.3789 -2.92969 C 56.25 -2.92969 52.1973 -6.98242 52.1973 -14.1602 L 52.1973 -58.0566 C 52.1973 -65.2344 56.25 -69.2871 63.3789 -69.2871 L 76.3184 -69.2871 L 76.3184 -44.3848 C 76.3184 -40.8203 78.125 -39.0137 81.6895 -39.0137 L 106.445 -39.0137 L 106.445 -14.1602 C 106.445 -6.98242 102.393 -2.92969 95.2637 -2.92969 Z M 83.8379 -44.6289 C 82.6172 -44.6289 81.9336 -45.2637 81.9336 -46.5332 L 81.9336 -69.043 C 83.6426 -68.9453 85.3516 -67.5293 87.207 -65.6738 L 102.686 -50.0488 C 104.688 -48.0469 106.104 -46.3867 106.25 -44.6289 Z"/>
  </g>
  <g id="Heavy-L" transform="matrix(1 0 0 1 2558.39 1556)">
   <path d="M 78.2715 31.7871 C 115.088 31.7871 145.312 1.5625 145.312 -35.2051 C 145.312 -72.0215 115.039 -102.246 78.2715 -102.246 C 41.4551 -102.246 11.2793 -72.0215 11.2793 -35.2051 C 11.2793 1.5625 41.5039 31.7871 78.2715 31.7871 Z M 61.8164 -2.29492 C 54.7363 -2.29492 50.8789 -6.20117 50.8789 -13.2812 L 50.8789 -59.082 C 50.8789 -66.1621 54.7852 -70.1172 61.8164 -70.1172 L 75.3418 -70.1172 L 75.3418 -45.166 C 75.3418 -41.4551 77.1484 -39.5996 80.8594 -39.5996 L 105.615 -39.5996 L 105.615 -13.2812 C 105.615 -6.20117 101.758 -2.29492 94.7266 -2.29492 Z M 82.666 -45.0195 C 81.3965 -45.0195 80.7129 -45.6543 80.7129 -46.9238 L 80.7129 -69.8242 C 82.3242 -69.7266 83.9355 -68.4082 85.6445 -66.6504 L 102.1 -50.0488 C 103.955 -48.1934 105.225 -46.6309 105.371 -45.0195 Z"/>
  </g>
  <g id="Bold-L" transform="matrix(1 0 0 1 2262.88 1556)">
   <path d="M 77.0996 30.6152 C 113.232 30.6152 142.92 0.878906 142.92 -35.2051 C 142.92 -71.3379 113.184 -101.074 77.0508 -101.074 C 40.9668 -101.074 11.2793 -71.3379 11.2793 -35.2051 C 11.2793 0.878906 41.0156 30.6152 77.0996 30.6152 Z M 60.0586 -1.5625 C 53.0762 -1.5625 49.4141 -5.32227 49.4141 -12.3047 L 49.4141 -60.2539 C 49.4141 -67.2363 53.125 -70.9961 60.0586 -70.9961 L 74.2188 -70.9961 L 74.2188 -45.9961 C 74.2188 -42.1387 76.123 -40.2832 79.9316 -40.2832 L 104.736 -40.2832 L 104.736 -12.3047 C 104.736 -5.37109 101.025 -1.5625 94.0918 -1.5625 Z M 81.3477 -45.459 C 80.0781 -45.459 79.3945 -46.0938 79.3945 -47.4121 L 79.3945 -70.7031 C 80.8594 -70.5566 82.3242 -69.3848 83.9355 -67.7246 L 101.416 -50.0488 C 103.125 -48.3398 104.297 -46.9238 104.443 -45.459 Z"/>
  </g>
  <g id="Semibold-L" transform="matrix(1 0 0 1 1966.97 1556)">
   <path d="M 76.2695 29.7852 C 111.914 29.7852 141.309 0.390625 141.309 -35.2539 C 141.309 -70.8496 111.865 -100.244 76.2695 -100.244 C 40.625 -100.244 11.2793 -70.8496 11.2793 -35.2539 C 11.2793 0.390625 40.6738 29.7852 76.2695 29.7852 Z M 58.8379 -1.07422 C 51.9531 -1.07422 48.3887 -4.73633 48.3887 -11.6699 L 48.3887 -61.084 C 48.3887 -67.9688 52.002 -71.6309 58.8379 -71.6309 L 73.4863 -71.6309 L 73.4863 -46.582 C 73.4863 -42.627 75.3906 -40.7227 79.2969 -40.7227 L 104.102 -40.7227 L 104.102 -11.6699 C 104.102 -4.78516 100.537 -1.07422 93.7012 -1.07422 Z M 80.4199 -45.7031 C 79.1504 -45.7031 78.4668 -46.3867 78.4668 -47.7051 L 78.4668 -71.2891 C 79.834 -71.0938 81.25 -70.0684 82.7148 -68.5059 L 100.928 -50.0488 C 102.539 -48.4863 103.613 -47.1191 103.76 -45.7031 Z"/>
  </g>
  <g id="Medium-L" transform="matrix(1 0 0 1 1670.87 1556)">
   <path d="M 75.6836 29.1504 C 110.938 29.1504 140.088 0.0488281 140.088 -35.2539 C 140.088 -70.5078 110.889 -99.6094 75.6348 -99.6094 C 40.3809 -99.6094 11.2793 -70.5078 11.2793 -35.2539 C 11.2793 0.0488281 40.3809 29.1504 75.6836 29.1504 Z M 57.9102 -0.732422 C 51.0742 -0.732422 47.6074 -4.24805 47.6074 -11.1328 L 47.6074 -61.7188 C 47.6074 -68.5059 51.1719 -72.1191 57.9102 -72.1191 L 72.9004 -72.1191 L 72.9004 -47.0215 C 72.9004 -43.0176 74.8047 -41.0645 78.8086 -41.0645 L 103.662 -41.0645 L 103.662 -11.1328 C 103.662 -4.29688 100.146 -0.732422 93.3594 -0.732422 Z M 79.7363 -45.9473 C 78.418 -45.9473 77.7832 -46.6309 77.7832 -47.9492 L 77.7832 -71.7285 C 79.0527 -71.5332 80.3711 -70.5566 81.8359 -69.0918 L 100.586 -50.0488 C 102.1 -48.5352 103.125 -47.2656 103.271 -45.9473 Z"/>
  </g>
  <g id="Regular-L" transform="matrix(1 0 0 1 1374.97 1556)">
   <path d="M 74.8535 28.3691 C 109.668 28.3691 138.477 -0.439453 138.477 -35.2539 C 138.477 -70.0195 109.619 -98.8281 74.8047 -98.8281 C 40.0391 -98.8281 11.2793 -70.0195 11.2793 -35.2539 C 11.2793 -0.439453 40.0879 28.3691 74.8535 28.3691 Z M 56.6895 -0.244141 C 49.9512 -0.244141 46.582 -3.66211 46.582 -10.498 L 46.582 -62.5 C 46.582 -69.2383 50.0488 -72.7539 56.6895 -72.7539 L 72.168 -72.7539 L 72.168 -47.6074 C 72.168 -43.5059 74.1211 -41.5527 78.2227 -41.5527 L 103.027 -41.5527 L 103.027 -10.498 C 103.027 -3.71094 99.6582 -0.244141 92.9199 -0.244141 Z M 78.8086 -46.2402 C 77.4902 -46.2402 76.8555 -46.9238 76.8555 -48.2422 L 76.8555 -72.3145 C 78.0762 -72.1191 79.2969 -71.2402 80.6641 -69.8242 L 100.146 -50.0977 C 101.514 -48.6816 102.441 -47.4609 102.637 -46.2402 Z"/>
  </g>
  <g id="Light-L" transform="matrix(1 0 0 1 1079.18 1556)">
   <path d="M 73.9258 27.4414 C 108.301 27.4414 136.621 -0.878906 136.621 -35.2051 C 136.621 -69.5801 108.252 -97.9004 73.9258 -97.9004 C 39.5508 -97.9004 11.2793 -69.5801 11.2793 -35.2051 C 11.2793 -0.878906 39.5996 27.4414 73.9258 27.4414 Z M 55.6641 -0.439453 C 49.3164 -0.439453 46.0938 -3.71094 46.0938 -10.1074 L 46.0938 -62.9883 C 46.0938 -69.3359 49.4141 -72.6562 55.6641 -72.6562 L 71.5332 -72.6562 L 71.5332 -47.8027 C 71.5332 -44.043 73.3398 -42.1875 77.0996 -42.1875 L 101.758 -42.1875 L 101.758 -10.1074 C 101.758 -3.75977 98.5352 -0.439453 92.1387 -0.439453 Z M 77.8809 -46.3379 C 76.3672 -46.3379 75.6836 -47.1191 75.6836 -48.584 L 75.6836 -72.168 C 76.6113 -71.9727 77.6367 -71.2402 78.6621 -70.1172 L 99.2676 -49.4141 C 100.342 -48.3398 101.123 -47.3633 101.27 -46.3379 Z"/>
  </g>
  <g id="Thin-L" transform="matrix(1 0 0 1 783.693 1556)">
   <path d="M 72.7051 26.2695 C 106.494 26.2695 134.18 -1.41602 134.18 -35.2051 C 134.18 -68.9453 106.494 -96.6309 72.7051 -96.6309 C 38.9648 -96.6309 11.2793 -68.9453 11.2793 -35.2051 C 11.2793 -1.41602 38.9648 26.2695 72.7051 26.2695 Z M 54.3457 -0.683594 C 48.4375 -0.683594 45.4102 -3.80859 45.4102 -9.66797 L 45.4102 -63.5742 C 45.4102 -69.4336 48.584 -72.5586 54.3457 -72.5586 L 70.7031 -72.5586 L 70.7031 -48.0469 C 70.7031 -44.7266 72.3633 -43.0664 75.6836 -43.0664 L 100.049 -43.0664 L 100.049 -9.66797 C 100.049 -3.80859 97.0215 -0.683594 91.1133 -0.683594 Z M 76.6113 -46.4844 C 74.9023 -46.4844 74.1211 -47.3633 74.1211 -49.0723 L 74.1211 -71.9727 C 74.7559 -71.8262 75.3906 -71.2402 76.0742 -70.5566 L 98.0957 -48.5352 C 98.7793 -47.8516 99.4141 -47.2168 99.5117 -46.4844 Z"/>
  </g>
  <g id="Ultralight-L" transform="matrix(1 0 0 1 487.616 1556)">
   <path d="M 72.1191 25.6348 C 105.566 25.6348 132.91 -1.70898 132.91 -35.2051 C 132.91 -68.6523 105.566 -95.9961 72.1191 -95.9961 C 38.623 -95.9961 11.2793 -68.6523 11.2793 -35.2051 C 11.2793 -1.70898 38.623 25.6348 72.1191 25.6348 Z M 53.6621 -0.830078 C 47.998 -0.830078 45.0684 -3.85742 45.0684 -9.42383 L 45.0684 -63.8672 C 45.0684 -69.4824 48.1445 -72.4609 53.6621 -72.4609 L 70.2637 -72.4609 L 70.2637 -48.1934 C 70.2637 -45.1172 71.8262 -43.5059 74.9512 -43.5059 L 99.1699 -43.5059 L 99.1699 -9.42383 C 99.1699 -3.85742 96.2402 -0.830078 90.5762 -0.830078 Z M 75.9277 -46.582 C 74.1211 -46.582 73.291 -47.4609 73.291 -49.3164 L 73.291 -71.875 C 73.7793 -71.7285 74.2676 -71.2402 74.707 -70.752 L 97.5098 -48.0957 C 97.998 -47.6074 98.4863 -47.1191 98.584 -46.582 Z"/>
  </g>
  <g id="Black-M" transform="matrix(1 0 0 1 2870.97 1126)">
   <path d="M 62.4023 18.457 C 91.9922 18.457 116.113 -5.61523 116.113 -35.2051 C 116.113 -64.7949 91.9922 -88.8672 62.4023 -88.8672 C 32.8125 -88.8672 8.74023 -64.7949 8.74023 -35.2051 C 8.74023 -5.61523 32.8125 18.457 62.4023 18.457 Z M 50.6836 -11.1816 C 45.2148 -11.1816 41.9434 -14.4043 41.9434 -19.873 L 41.9434 -51.7578 C 41.9434 -57.2266 45.2148 -60.4492 50.6836 -60.4492 L 60.1074 -60.4492 L 60.1074 -41.4062 C 60.1074 -39.0137 61.4258 -37.6953 63.8184 -37.6953 L 82.8613 -37.6953 L 82.8613 -19.873 C 82.8613 -14.4043 79.6387 -11.1816 74.1211 -11.1816 Z M 66.0645 -42.0898 C 65.0391 -42.0898 64.4531 -42.5781 64.4531 -43.6523 L 64.4531 -60.3027 C 65.8691 -60.3027 67.1387 -59.082 68.6035 -57.666 L 79.9316 -46.3379 C 81.4941 -44.7754 82.7148 -43.457 82.7637 -42.0898 Z"/>
  </g>
  <g id="Heavy-M" transform="matrix(1 0 0 1 2575.19 1126)">
   <path d="M 61.5234 17.5293 C 90.5273 17.5293 114.258 -6.20117 114.258 -35.2051 C 114.258 -64.2578 90.5273 -87.9883 61.4746 -87.9883 C 32.4707 -87.9883 8.74023 -64.2578 8.74023 -35.2051 C 8.74023 -6.20117 32.4707 17.5293 61.5234 17.5293 Z M 49.2188 -10.4004 C 43.75 -10.4004 40.625 -13.5254 40.625 -19.043 L 40.625 -52.7832 C 40.625 -58.252 43.7988 -61.377 49.2188 -61.377 L 59.2285 -61.377 L 59.2285 -42.1875 C 59.2285 -39.5508 60.5957 -38.1836 63.1836 -38.1836 L 82.3242 -38.1836 L 82.3242 -19.043 C 82.3242 -13.5742 79.1992 -10.4004 73.7305 -10.4004 Z M 64.9902 -42.4805 C 64.0137 -42.4805 63.4766 -42.9688 63.4766 -43.9941 L 63.4766 -61.1816 C 64.7949 -61.1328 66.0645 -60.0586 67.4316 -58.6426 L 79.4922 -46.5332 C 81.0059 -45.0195 82.0801 -43.75 82.1777 -42.4805 Z"/>
  </g>
  <g id="Bold-M" transform="matrix(1 0 0 1 2279.5 1126)">
   <path d="M 60.498 16.5039 C 88.8672 16.5039 112.207 -6.83594 112.207 -35.2051 C 112.207 -63.623 88.8672 -86.9629 60.4492 -86.9629 C 32.0312 -86.9629 8.74023 -63.623 8.74023 -35.2051 C 8.74023 -6.83594 32.0801 16.5039 60.498 16.5039 Z M 47.6074 -9.57031 C 42.1387 -9.57031 39.1602 -12.5977 39.1602 -18.0664 L 39.1602 -53.9062 C 39.1602 -59.375 42.1875 -62.4023 47.6074 -62.4023 L 58.2031 -62.4023 L 58.2031 -43.0664 C 58.2031 -40.1855 59.6191 -38.7207 62.5 -38.7207 L 81.7383 -38.7207 L 81.7383 -18.0664 C 81.7383 -12.5977 78.7598 -9.57031 73.291 -9.57031 Z M 63.8184 -42.8711 C 62.8906 -42.8711 62.3535 -43.3594 62.3535 -44.3848 L 62.3535 -62.1582 C 63.5742 -62.1094 64.7949 -61.084 66.1133 -59.7656 L 79.0039 -46.7285 C 80.4199 -45.3125 81.3965 -44.0918 81.543 -42.8711 Z"/>
  </g>
  <g id="Semibold-M" transform="matrix(1 0 0 1 1983.5 1126)">
   <path d="M 59.7656 15.8203 C 87.7441 15.8203 110.791 -7.27539 110.791 -35.2539 C 110.791 -63.1836 87.6953 -86.2793 59.7656 -86.2793 C 31.7871 -86.2793 8.74023 -63.1836 8.74023 -35.2539 C 8.74023 -7.27539 31.7871 15.8203 59.7656 15.8203 Z M 46.4844 -8.98438 C 41.0645 -8.98438 38.1836 -11.9141 38.1836 -17.3828 L 38.1836 -54.7363 C 38.1836 -60.1562 41.0645 -63.1348 46.4844 -63.1348 L 57.4707 -63.1348 L 57.4707 -43.6523 C 57.4707 -40.5762 58.9844 -39.1113 62.0605 -39.1113 L 81.2988 -39.1113 L 81.2988 -17.3828 C 81.2988 -11.9629 78.4668 -8.98438 72.998 -8.98438 Z M 63.0371 -43.1641 C 62.0605 -43.1641 61.5723 -43.6523 61.5723 -44.6289 L 61.5723 -62.8906 C 62.7441 -62.7441 63.916 -61.8164 65.2344 -60.498 L 78.6621 -46.875 C 80.0293 -45.5078 80.957 -44.3359 81.1035 -43.1641 Z"/>
  </g>
  <g id="Medium-M" transform="matrix(1 0 0 1 1687.3 1126)">
   <path d="M 59.2285 15.2832 C 86.9141 15.2832 109.766 -7.56836 109.766 -35.2539 C 109.766 -62.8906 86.8652 -85.7422 59.1797 -85.7422 C 31.543 -85.7422 8.74023 -62.8906 8.74023 -35.2539 C 8.74023 -7.56836 31.5918 15.2832 59.2285 15.2832 Z M 45.6055 -8.54492 C 40.1855 -8.54492 37.4023 -11.4258 37.4023 -16.8945 L 37.4023 -55.3223 C 37.4023 -60.791 40.2344 -63.6719 45.6055 -63.6719 L 56.9824 -63.6719 L 56.9824 -44.0918 C 56.9824 -40.918 58.4961 -39.3555 61.7188 -39.3555 L 81.0059 -39.3555 L 81.0059 -16.8945 C 81.0059 -11.4258 78.2227 -8.54492 72.7539 -8.54492 Z M 62.4512 -43.4082 C 61.4746 -43.4082 60.9863 -43.8965 60.9863 -44.873 L 60.9863 -63.3789 C 62.1094 -63.2324 63.2812 -62.4023 64.5508 -61.084 L 78.418 -46.9727 C 79.7363 -45.6543 80.6152 -44.5312 80.7617 -43.4082 Z"/>
  </g>
  <g id="Regular-M" transform="matrix(1 0 0 1 1391.3 1126)">
   <path d="M 58.5449 14.5508 C 85.791 14.5508 108.35 -8.00781 108.35 -35.2539 C 108.35 -62.4512 85.7422 -85.0586 58.4961 -85.0586 C 31.2988 -85.0586 8.74023 -62.4512 8.74023 -35.2539 C 8.74023 -8.00781 31.3477 14.5508 58.5449 14.5508 Z M 44.5312 -8.00781 C 39.1113 -8.00781 36.4258 -10.7422 36.4258 -16.2598 L 36.4258 -56.1035 C 36.4258 -61.5723 39.1113 -64.3555 44.5312 -64.3555 L 56.25 -64.3555 L 56.25 -44.6777 C 56.25 -41.3086 57.8613 -39.7461 61.2305 -39.7461 L 80.5664 -39.7461 L 80.5664 -16.2598 C 80.5664 -10.791 77.8809 -8.00781 72.4609 -8.00781 Z M 61.6211 -43.7012 C 60.6934 -43.7012 60.2051 -44.1895 60.2051 -45.1172 L 60.2051 -64.0625 C 61.2793 -63.916 62.4023 -63.1348 63.623 -61.8652 L 78.0762 -47.1191 C 79.3457 -45.8496 80.127 -44.7754 80.3223 -43.7012 Z"/>
  </g>
  <g id="Light-M" transform="matrix(1 0 0 1 1095.42 1126)">
   <path d="M 57.7148 13.7695 C 84.5215 13.7695 106.689 -8.39844 106.689 -35.2539 C 106.689 -62.0605 84.5215 -84.2285 57.666 -84.2285 C 30.8594 -84.2285 8.74023 -62.0605 8.74023 -35.2539 C 8.74023 -8.39844 30.9082 13.7695 57.7148 13.7695 Z M 43.6035 -8.1543 C 38.5254 -8.1543 35.9375 -10.791 35.9375 -15.918 L 35.9375 -56.4941 C 35.9375 -61.6211 38.5742 -64.2578 43.6035 -64.2578 L 55.7129 -64.2578 L 55.7129 -44.873 C 55.7129 -41.7969 57.1777 -40.332 60.2539 -40.332 L 79.4434 -40.332 L 79.4434 -15.918 C 79.4434 -10.8398 76.8555 -8.1543 71.7773 -8.1543 Z M 60.791 -43.7988 C 59.7168 -43.7988 59.1797 -44.3359 59.1797 -45.4102 L 59.1797 -63.916 C 60.0098 -63.7695 60.8887 -63.1348 61.8652 -62.1582 L 77.2949 -46.5332 C 78.3203 -45.5566 78.9551 -44.6777 79.1016 -43.7988 Z"/>
  </g>
  <g id="Thin-M" transform="matrix(1 0 0 1 799.806 1126)">
   <path d="M 56.6406 12.6953 C 82.9102 12.6953 104.492 -8.88672 104.492 -35.2051 C 104.492 -61.5234 82.9102 -83.1055 56.5918 -83.1055 C 30.3223 -83.1055 8.74023 -61.5234 8.74023 -35.2051 C 8.74023 -8.88672 30.3223 12.6953 56.6406 12.6953 Z M 42.3828 -8.39844 C 37.6953 -8.39844 35.3516 -10.8398 35.3516 -15.5273 L 35.3516 -57.0801 C 35.3516 -61.7188 37.8418 -64.1602 42.3828 -64.1602 L 54.9805 -64.1602 L 54.9805 -45.1172 C 54.9805 -42.4316 56.2988 -41.1133 58.9355 -41.1133 L 77.8809 -41.1133 L 77.8809 -15.5273 C 77.8809 -10.8887 75.4883 -8.39844 70.8008 -8.39844 Z M 59.6191 -43.9453 C 58.3496 -43.9453 57.7637 -44.5801 57.7637 -45.8496 L 57.7637 -63.7695 C 58.3496 -63.623 58.9355 -63.1348 59.5215 -62.5 L 76.2695 -45.752 C 76.9043 -45.1172 77.3926 -44.5312 77.4902 -43.9453 Z"/>
  </g>
  <g id="Ultralight-M" transform="matrix(1 0 0 1 503.656 1126)">
   <path d="M 56.0547 12.1094 C 82.0801 12.1094 103.369 -9.17969 103.369 -35.2051 C 103.369 -61.2305 82.0801 -82.5195 56.0547 -82.5195 C 30.0293 -82.5195 8.74023 -61.2305 8.74023 -35.2051 C 8.74023 -9.17969 30.0293 12.1094 56.0547 12.1094 Z M 41.7969 -8.54492 C 37.3047 -8.54492 35.0098 -10.8887 35.0098 -15.2832 L 35.0098 -57.3242 C 35.0098 -61.7676 37.4512 -64.1113 41.7969 -64.1113 L 54.5898 -64.1113 L 54.5898 -45.2637 C 54.5898 -42.7734 55.8105 -41.5039 58.3008 -41.5039 L 77.0996 -41.5039 L 77.0996 -15.2832 C 77.0996 -10.8887 74.8047 -8.54492 70.3613 -8.54492 Z M 59.0332 -43.9941 C 57.666 -43.9941 57.0312 -44.6777 57.0312 -46.0449 L 57.0312 -63.6719 C 57.4707 -63.5254 57.9102 -63.1348 58.3008 -62.6953 L 75.7812 -45.3125 C 76.1719 -44.9219 76.6113 -44.4824 76.6602 -43.9941 Z"/>
  </g>
  <g id="Black-S" transform="matrix(1 0 0 1 2884.57 696)">
   <path d="M 48.8281 6.78711 C 71.9727 6.78711 90.8203 -12.0605 90.8203 -35.2051 C 90.8203 -58.3496 71.9727 -77.1973 48.8281 -77.1973 C 25.6836 -77.1973 6.83594 -58.3496 6.83594 -35.2051 C 6.83594 -12.0605 25.6836 6.78711 48.8281 6.78711 Z M 39.5996 -16.3086 C 35.3027 -16.3086 32.7637 -18.8477 32.7637 -23.1445 L 32.7637 -48.2422 C 32.7637 -52.5391 35.3027 -55.0781 39.5996 -55.0781 L 47.0215 -55.0781 L 47.0215 -40.1367 C 47.0215 -38.2324 48.0469 -37.207 49.9512 -37.207 L 64.8926 -37.207 L 64.8926 -23.1445 C 64.8926 -18.8477 62.3535 -16.3086 58.0566 -16.3086 Z M 51.6602 -40.625 C 50.8789 -40.625 50.4395 -41.0156 50.4395 -41.8457 L 50.4395 -54.9316 C 51.5137 -54.9316 52.5391 -54.0039 53.6621 -52.8809 L 62.5977 -43.9453 C 63.8184 -42.7246 64.7461 -41.6992 64.7949 -40.625 Z"/>
  </g>
  <g id="Heavy-S" transform="matrix(1 0 0 1 2588.47 696)">
   <path d="M 48.2422 6.15234 C 70.9961 6.15234 89.5996 -12.4512 89.5996 -35.2051 C 89.5996 -57.959 70.9961 -76.6113 48.1934 -76.6113 C 25.4395 -76.6113 6.83594 -57.959 6.83594 -35.2051 C 6.83594 -12.4512 25.4395 6.15234 48.2422 6.15234 Z M 38.5742 -15.7227 C 34.2773 -15.7227 31.8359 -18.1641 31.8359 -22.5098 L 31.8359 -48.9746 C 31.8359 -53.3203 34.2773 -55.8105 38.5742 -55.8105 L 46.3867 -55.8105 L 46.3867 -40.7227 C 46.3867 -38.5742 47.4609 -37.5 49.6094 -37.5 L 64.5996 -37.5 L 64.5996 -22.5098 C 64.5996 -18.2129 62.1582 -15.7227 57.8125 -15.7227 Z M 50.9766 -40.918 C 50.1953 -40.918 49.8047 -41.3086 49.8047 -42.0898 L 49.8047 -55.6152 C 50.8301 -55.6152 51.8555 -54.7363 52.9785 -53.6133 L 62.3535 -44.1406 C 63.5254 -42.9688 64.4043 -41.9434 64.502 -40.918 Z"/>
  </g>
  <g id="Bold-S" transform="matrix(1 0 0 1 2292.44 696)">
   <path d="M 47.5586 5.46875 C 69.873 5.46875 88.2324 -12.8906 88.2324 -35.2051 C 88.2324 -57.5684 69.873 -75.9277 47.5098 -75.9277 C 25.1953 -75.9277 6.83594 -57.5684 6.83594 -35.2051 C 6.83594 -12.8906 25.1953 5.46875 47.5586 5.46875 Z M 37.4512 -15.0391 C 33.1055 -15.0391 30.7617 -17.4316 30.7617 -21.8262 L 30.7617 -49.8047 C 30.7617 -54.1992 33.1055 -56.5918 37.4512 -56.5918 L 45.7031 -56.5918 L 45.7031 -41.3574 C 45.7031 -39.0137 46.8262 -37.8418 49.1699 -37.8418 L 64.3066 -37.8418 L 64.3066 -21.8262 C 64.3066 -17.4805 61.9141 -15.0391 57.5684 -15.0391 Z M 50.1953 -41.2109 C 49.4629 -41.2109 49.0723 -41.6016 49.0723 -42.334 L 49.0723 -56.3965 C 50.0488 -56.3477 51.0742 -55.5664 52.1973 -54.3945 L 62.0605 -44.3848 C 63.2324 -43.2129 64.0625 -42.2363 64.1602 -41.2109 Z"/>
  </g>
  <g id="Semibold-S" transform="matrix(1 0 0 1 1996.2 696)">
   <path d="M 47.0703 4.98047 C 69.0918 4.98047 87.3047 -13.1836 87.3047 -35.2539 C 87.3047 -57.2754 69.0918 -75.4883 47.0215 -75.4883 C 25 -75.4883 6.83594 -57.2754 6.83594 -35.2539 C 6.83594 -13.1836 25.0488 4.98047 47.0703 4.98047 Z M 36.6699 -14.5996 C 32.3242 -14.5996 30.0293 -16.9434 30.0293 -21.3379 L 30.0293 -50.3906 C 30.0293 -54.7852 32.3242 -57.1289 36.6699 -57.1289 L 45.2148 -57.1289 L 45.2148 -41.7969 C 45.2148 -39.3066 46.3867 -38.0859 48.9258 -38.0859 L 64.0625 -38.0859 L 64.0625 -21.3379 C 64.0625 -16.9434 61.7676 -14.5996 57.4219 -14.5996 Z M 49.6582 -41.4551 C 48.9258 -41.4551 48.584 -41.7969 48.584 -42.5293 L 48.584 -56.9336 C 49.5605 -56.8359 50.5371 -56.1035 51.6602 -54.9805 L 61.8652 -44.5312 C 63.0371 -43.4082 63.7695 -42.4316 63.916 -41.4551 Z"/>
  </g>
  <g id="Medium-S" transform="matrix(1 0 0 1 1699.83 696)">
   <path d="M 46.7285 4.63867 C 68.5547 4.63867 86.6211 -13.4277 86.6211 -35.2539 C 86.6211 -57.0801 68.5059 -75.1465 46.6797 -75.1465 C 24.8535 -75.1465 6.83594 -57.0801 6.83594 -35.2539 C 6.83594 -13.4277 24.9023 4.63867 46.7285 4.63867 Z M 36.084 -14.2578 C 31.6895 -14.2578 29.4434 -16.5527 29.4434 -20.9961 L 29.4434 -50.8301 C 29.4434 -55.2246 31.6895 -57.5684 36.084 -57.5684 L 44.8242 -57.5684 L 44.8242 -42.1387 C 44.8242 -39.502 46.0938 -38.2324 48.6816 -38.2324 L 63.916 -38.2324 L 63.916 -20.9961 C 63.916 -16.5527 61.6699 -14.2578 57.2754 -14.2578 Z M 49.2188 -41.6016 C 48.5352 -41.6016 48.1934 -41.9434 48.1934 -42.627 L 48.1934 -57.373 C 49.1699 -57.2266 50.1465 -56.543 51.2207 -55.4199 L 61.7188 -44.6777 C 62.8906 -43.5059 63.5742 -42.5781 63.7207 -41.6016 Z"/>
  </g>
  <g id="Regular-S" transform="matrix(1 0 0 1 1403.58 696)">
   <path d="M 46.2402 4.15039 C 67.7734 4.15039 85.6934 -13.7207 85.6934 -35.2539 C 85.6934 -56.7871 67.7246 -74.6582 46.1914 -74.6582 C 24.707 -74.6582 6.83594 -56.7871 6.83594 -35.2539 C 6.83594 -13.7207 24.7559 4.15039 46.2402 4.15039 Z M 35.3027 -13.8184 C 30.9082 -13.8184 28.7598 -16.0156 28.7598 -20.5078 L 28.7598 -51.3672 C 28.7598 -55.8105 30.9082 -58.1055 35.3027 -58.1055 L 44.3359 -58.1055 L 44.3359 -42.5781 C 44.3359 -39.7949 45.6543 -38.4766 48.4375 -38.4766 L 63.6719 -38.4766 L 63.6719 -20.5078 C 63.6719 -16.0645 61.5234 -13.8184 57.1289 -13.8184 Z M 48.6816 -41.7969 C 48.0469 -41.7969 47.7051 -42.1875 47.7051 -42.8223 L 47.7051 -57.9102 C 48.6328 -57.7637 49.6094 -57.0801 50.6836 -55.957 L 61.5723 -44.8242 C 62.6953 -43.7012 63.3301 -42.7734 63.4766 -41.7969 Z"/>
  </g>
  <g id="Light-S" transform="matrix(1 0 0 1 1107.6 696)">
   <path d="M 45.5078 3.4668 C 66.6992 3.4668 84.2285 -14.0625 84.2285 -35.2539 C 84.2285 -56.3965 66.6504 -73.9258 45.5078 -73.9258 C 24.3164 -73.9258 6.83594 -56.3965 6.83594 -35.2539 C 6.83594 -14.0625 24.3652 3.4668 45.5078 3.4668 Z M 34.5215 -13.9648 C 30.3711 -13.9648 28.3203 -16.0645 28.3203 -20.2148 L 28.3203 -51.7578 C 28.3203 -55.8594 30.4199 -58.0078 34.5215 -58.0078 L 43.8477 -58.0078 L 43.8477 -42.7246 C 43.8477 -40.1855 45.0684 -39.0137 47.5586 -39.0137 L 62.6465 -39.0137 L 62.6465 -20.2148 C 62.6465 -16.1133 60.5957 -13.9648 56.4941 -13.9648 Z M 47.9492 -41.8945 C 47.1191 -41.8945 46.7285 -42.334 46.7285 -43.1152 L 46.7285 -57.7637 C 47.5098 -57.666 48.291 -57.0801 49.1211 -56.2012 L 60.8398 -44.2871 C 61.7188 -43.4082 62.3047 -42.6758 62.4023 -41.8945 Z"/>
  </g>
  <g id="Thin-S" transform="matrix(1 0 0 1 811.867 696)">
   <path d="M 44.5801 2.49023 C 65.2832 2.49023 82.2754 -14.502 82.2754 -35.2051 C 82.2754 -55.9082 65.2344 -72.9492 44.5312 -72.9492 C 23.8281 -72.9492 6.83594 -55.9082 6.83594 -35.2051 C 6.83594 -14.502 23.877 2.49023 44.5801 2.49023 Z M 33.4473 -14.1602 C 29.6875 -14.1602 27.7832 -16.1133 27.7832 -19.873 L 27.7832 -52.2461 C 27.7832 -55.957 29.7852 -57.9102 33.4473 -57.9102 L 43.2129 -57.9102 L 43.2129 -42.9199 C 43.2129 -40.7715 44.2383 -39.6973 46.4355 -39.6973 L 61.3281 -39.6973 L 61.3281 -19.873 C 61.3281 -16.1133 59.4238 -14.1602 55.6641 -14.1602 Z M 46.9238 -41.9922 C 45.9473 -41.9922 45.5078 -42.4805 45.5078 -43.457 L 45.5078 -57.6172 C 45.9961 -57.5195 46.5332 -57.0801 47.0703 -56.543 L 59.9609 -43.6035 C 60.498 -43.0664 60.9375 -42.5781 60.9863 -41.9922 Z"/>
  </g>
  <g id="Ultralight-S" transform="matrix(1 0 0 1 515.644 696)">
   <path d="M 44.043 2.00195 C 64.502 2.00195 81.2988 -14.7461 81.2988 -35.2051 C 81.2988 -55.6641 64.502 -72.4121 44.043 -72.4121 C 23.584 -72.4121 6.83594 -55.6641 6.83594 -35.2051 C 6.83594 -14.7461 23.584 2.00195 44.043 2.00195 Z M 32.9102 -14.2578 C 29.3457 -14.2578 27.4902 -16.1621 27.4902 -19.6777 L 27.4902 -52.4902 C 27.4902 -56.0059 29.4434 -57.8613 32.9102 -57.8613 L 42.8711 -57.8613 L 42.8711 -43.0176 C 42.8711 -41.0645 43.8477 -40.0391 45.8496 -40.0391 L 60.5957 -40.0391 L 60.5957 -19.6777 C 60.5957 -16.1621 58.7891 -14.2578 55.2246 -14.2578 Z M 46.3867 -42.0898 C 45.3613 -42.0898 44.873 -42.627 44.873 -43.6523 L 44.873 -57.5195 C 45.2637 -57.4219 45.6055 -57.0801 45.9961 -56.6895 L 59.4727 -43.2617 C 59.8633 -42.8711 60.2051 -42.4805 60.2539 -42.0898 Z"/>
  </g>
 </g>
</svg>
